<svg xmlns="http://www.w3.org/2000/svg" viewBox="0 0 64 64">
  <!-- Hintergrund -->
  <defs>
    <linearGradient id="bg" x1="0%" y1="0%" x2="100%" y2="100%">
      <stop offset="0%" stop-color="#111827"></stop>
      <stop offset="100%" stop-color="#020617"></stop>
    </linearGradient>
    <linearGradient id="helm" x1="0%" y1="0%" x2="100%" y2="0%">
      <stop offset="0%" stop-color="#e5e7eb"></stop>
      <stop offset="100%" stop-color="#cbd5f5"></stop>
    </linearGradient>
    <linearGradient id="accent" x1="0%" y1="0%" x2="0%" y2="100%">
      <stop offset="0%" stop-color="#facc15"></stop>
      <stop offset="100%" stop-color="#f97316"></stop>
    </linearGradient>
  </defs>

  <!-- Abgerundetes Quadrat als Grundform -->
  <rect x="4" y="4" width="56" height="56" rx="14" fill="url(#bg)"></rect>

  <!-- Goldener Rand -->
  <rect x="6" y="6" width="52" height="52" rx="12" fill="none" stroke="#facc15" stroke-width="2" opacity="0.9"></rect>

  <!-- Ritterhelm -->
  <g transform="translate(9,6)">
    <path fill="url(#helm)" d="
      M20 6
      C16 6 12 9 10 14
      L8 22
      C7.5 24 7.5 26 8 28
      L9 32
      C10 36 14 39 18 39
      L26 39
      C30 39 34 36 35 32
      L36 28
      C36.5 26 36.5 24 36 22
      L34 14
      C32 9 28 6 24 6
      Z"></path>
    <rect x="16" y="20" width="16" height="4" rx="2" fill="#020617" opacity="0.9"></rect>
    <rect x="23.5" y="12" width="1" height="20" fill="#9ca3af" opacity="0.9"></rect>
    <ellipse cx="22" cy="40" rx="11" ry="2.5" fill="#020617" opacity="0.5"></ellipse>
  </g>

  <!-- Keycap / Blitz -->
  <g transform="translate(28,36)">
    <rect x="0" y="0" width="20" height="14" rx="3" fill="url(#accent)" stroke="#78350f" stroke-width="1"></rect>
    <path d="M9 3 L6 9 H9 L8 13 L13 7 H10 L11 3 Z" transform="translate(1,-1)" fill="#1f2933" stroke="#1f2933" stroke-width="0.5"></path>
  </g>
</svg>
