<svg xmlns="http://www.w3.org/2000/svg" viewBox="0 0 1200 400" preserveAspectRatio="xMidYMid slice">
  <defs>
    <linearGradient id="forestSky" x1="0" y1="0" x2="0" y2="1">
      <stop offset="0%" stop-color="#061425"/>
      <stop offset="55%" stop-color="#0d2431"/>
      <stop offset="100%" stop-color="#081912"/>
    </linearGradient>
    <linearGradient id="forestFog" x1="0" y1="0" x2="1" y2="0">
      <stop offset="0%" stop-color="rgba(46,204,113,0.18)"/>
      <stop offset="100%" stop-color="rgba(79,209,197,0.18)"/>
    </linearGradient>
    <linearGradient id="forestGround" x1="0" y1="0" x2="0" y2="1">
      <stop offset="0%" stop-color="#103122"/>
      <stop offset="100%" stop-color="#0a1c12"/>
    </linearGradient>
  </defs>

  <rect width="1200" height="400" fill="url(#forestSky)"/>

  <g fill="#081820" opacity="0.55">
    <path d="M0 240 L80 200 L140 260 L220 210 L300 270 L380 210 L460 270 L540 210 L620 260 L700 210 L780 260 L860 210 L940 270 L1020 210 L1100 260 L1180 210 L1200 240 L1200 400 L0 400 Z"/>
  </g>

  <rect y="280" width="1200" height="120" fill="url(#forestGround)"/>
  <rect y="300" width="1200" height="80" fill="url(#forestFog)" opacity="0.45"/>

  <g id="treeSimple">
    <rect x="-6" y="0" width="12" height="80" fill="#6b4428"/>
    <polygon points="-60,0 60,0 0,-120" fill="#1f6038"/>
    <polygon points="-50,-20 50,-20 0,-120" fill="#2a7b4a"/>
  </g>

  <g opacity="0.9">
    <g transform="translate(40 320) scale(1.1)">
      <use href="#treeSimple"/>
    </g>
    <g transform="translate(120 300) scale(0.95)">
      <use href="#treeSimple"/>
    </g>
    <g transform="translate(200 330) scale(1.15)">
      <use href="#treeSimple"/>
    </g>
    <g transform="translate(280 305) scale(0.9)">
      <use href="#treeSimple"/>
    </g>
    <g transform="translate(360 325) scale(1.05)">
      <use href="#treeSimple"/>
    </g>
    <g transform="translate(450 300) scale(0.92)">
      <use href="#treeSimple"/>
    </g>
    <g transform="translate(520 335) scale(1.1)">
      <use href="#treeSimple"/>
    </g>
    <g transform="translate(610 310) scale(0.95)">
      <use href="#treeSimple"/>
    </g>
    <g transform="translate(690 330) scale(1.12)">
      <use href="#treeSimple"/>
    </g>
    <g transform="translate(780 305) scale(0.9)">
      <use href="#treeSimple"/>
    </g>
    <g transform="translate(860 335) scale(1.1)">
      <use href="#treeSimple"/>
    </g>
    <g transform="translate(950 310) scale(0.92)">
      <use href="#treeSimple"/>
    </g>
    <g transform="translate(1030 330) scale(1.08)">
      <use href="#treeSimple"/>
    </g>
    <g transform="translate(1110 305) scale(0.9)">
      <use href="#treeSimple"/>
    </g>
  </g>

  <g fill="rgba(255,255,255,0.4)">
    <circle cx="180" cy="120" r="2"/>
    <circle cx="260" cy="80" r="1.8"/>
    <circle cx="420" cy="110" r="2"/>
    <circle cx="540" cy="70" r="1.6"/>
    <circle cx="720" cy="90" r="2"/>
    <circle cx="860" cy="60" r="1.8"/>
    <circle cx="1020" cy="90" r="2.2"/>
  </g>
</svg>
