<svg xmlns="http://www.w3.org/2000/svg" viewBox="0 0 1200 400" preserveAspectRatio="xMidYMid slice">
  <defs>
    <linearGradient id="forestSky" x1="0%" y1="0%" x2="0%" y2="100%">
      <stop offset="0%" stop-color="#0f172a"/>
      <stop offset="35%" stop-color="#12263a"/>
      <stop offset="100%" stop-color="#0a1a19"/>
    </linearGradient>
    <linearGradient id="forestMist" x1="0" y1="0" x2="1" y2="0">
      <stop offset="0%" stop-color="rgba(34,197,94,0.15)"/>
      <stop offset="100%" stop-color="rgba(59,130,246,0.08)"/>
    </linearGradient>
  </defs>
  <rect width="1200" height="400" fill="url(#forestSky)"/>
  <g fill="#0b1f22" opacity="0.9">
    <path d="M0 320 L70 240 L120 320 L180 230 L240 320 L300 210 L360 320 L420 240 L480 320 L540 230 L600 320 L660 210 L720 320 L780 240 L840 320 L900 220 L960 320 L1020 230 L1080 320 L1140 210 L1200 320 L1200 400 L0 400 Z"/>
  </g>
  <g fill="#123524" opacity="0.8">
    <path d="M0 360 L50 280 L80 360 L120 270 L160 360 L210 260 L260 360 L310 280 L360 360 L410 270 L460 360 L510 260 L560 360 L610 285 L660 360 L710 270 L760 360 L810 255 L860 360 L910 275 L960 360 L1010 270 L1060 360 L1110 280 L1160 360 L1200 280 L1200 400 L0 400 Z"/>
  </g>
  <rect y="300" width="1200" height="140" fill="url(#forestMist)" opacity="0.5"/>
  <g fill="#1b5132" opacity="0.65">
    <circle cx="180" cy="180" r="35"/>
    <circle cx="200" cy="160" r="28"/>
    <circle cx="220" cy="190" r="32"/>
    <circle cx="950" cy="150" r="30"/>
    <circle cx="980" cy="175" r="34"/>
  </g>
  <g fill="rgba(226,232,240,0.08)">
    <circle cx="140" cy="60" r="4"/>
    <circle cx="240" cy="90" r="3"/>
    <circle cx="320" cy="40" r="2"/>
    <circle cx="780" cy="75" r="4"/>
    <circle cx="860" cy="40" r="3"/>
    <circle cx="980" cy="65" r="2"/>
  </g>
</svg>
