<svg xmlns="http://www.w3.org/2000/svg" viewBox="0 0 1200 400" preserveAspectRatio="xMidYMid slice">
  <defs>
    <radialGradient id="nebula" cx="50%" cy="45%" r="70%">
      <stop offset="0%" stop-color="#1d2a54"/>
      <stop offset="40%" stop-color="#331b4a"/>
      <stop offset="100%" stop-color="#080b15"/>
    </radialGradient>
    <linearGradient id="aurora" x1="0" y1="0" x2="1" y2="1">
      <stop offset="0%" stop-color="rgba(236,72,153,0.4)"/>
      <stop offset="50%" stop-color="rgba(79,70,229,0.35)"/>
      <stop offset="100%" stop-color="rgba(16,185,129,0.35)"/>
    </linearGradient>
  </defs>
  <rect width="1200" height="400" fill="url(#nebula)"/>
  <path d="M0 320 C200 260 360 360 540 300 C720 240 900 360 1200 280 L1200 400 L0 400 Z" fill="rgba(15,23,42,0.75)"/>
  <path d="M0 360 C240 300 420 380 640 320 C860 260 1040 360 1200 310 L1200 400 L0 400 Z" fill="rgba(59,7,100,0.55)"/>
  <path d="M60 240 C180 200 240 260 360 220 C480 180 580 240 700 210 C820 180 920 230 1100 190" stroke="url(#aurora)" stroke-width="70" stroke-linecap="round" opacity="0.4"/>
  <g fill="rgba(255,255,255,0.5)">
    <circle cx="180" cy="80" r="2"/>
    <circle cx="240" cy="140" r="3"/>
    <circle cx="400" cy="60" r="2"/>
    <circle cx="520" cy="110" r="4"/>
    <circle cx="660" cy="70" r="2"/>
    <circle cx="780" cy="40" r="3"/>
    <circle cx="920" cy="120" r="2"/>
    <circle cx="1080" cy="60" r="4"/>
  </g>
  <g fill="rgba(255,255,255,0.18)">
    <rect x="150" y="40" width="2" height="20"/>
    <rect x="510" y="20" width="2" height="24"/>
    <rect x="870" y="50" width="2" height="18"/>
  </g>
</svg>
