<svg xmlns="http://www.w3.org/2000/svg" viewBox="0 0 1200 400" preserveAspectRatio="xMidYMid slice">
  <defs>
    <linearGradient id="forestSky" x1="0" y1="0" x2="0" y2="1">
      <stop offset="0%" stop-color="#061425"/>
      <stop offset="55%" stop-color="#0d2431"/>
      <stop offset="100%" stop-color="#081912"/>
    </linearGradient>
    <linearGradient id="forestFog" x1="0" y1="0" x2="1" y2="0">
      <stop offset="0%" stop-color="rgba(46,204,113,0.18)"/>
      <stop offset="100%" stop-color="rgba(79,209,197,0.18)"/>
    </linearGradient>
    <linearGradient id="forestGround" x1="0" y1="0" x2="0" y2="1">
      <stop offset="0%" stop-color="#2a3c25"/>
      <stop offset="100%" stop-color="#18311f"/>
    </linearGradient>
    <linearGradient id="mountainShade" x1="0" y1="0" x2="0" y2="1">
      <stop offset="0%" stop-color="#142433"/>
      <stop offset="100%" stop-color="#08141b"/>
    </linearGradient>
    <g id="treeSimple">
      <rect x="-6" y="-20" width="12" height="90" fill="#6b4428"/>
      <polygon points="-65,-20 65,-20 0,-150" fill="#1f6038"/>
      <polygon points="-50,-45 50,-45 0,-150" fill="#2a7b4a"/>
    </g>
  </defs>

  <rect width="1200" height="400" fill="url(#forestSky)"/>

  <g fill="url(#mountainShade)" opacity="0.9">
    <path d="M-40 250 L80 160 L160 220 L260 150 L360 230 L460 180 L560 250 L660 190 L760 240 L860 170 L960 250 L1060 190 L1160 240 L1240 200 L1240 400 L-40 400 Z"/>
  </g>
  <g fill="#081820" opacity="0.6">
    <path d="M0 270 L80 230 L140 280 L220 240 L300 290 L380 240 L460 300 L540 240 L620 290 L700 240 L780 280 L860 240 L940 290 L1020 240 L1100 280 L1180 230 L1200 270 L1200 400 L0 400 Z"/>
  </g>

  <rect y="280" width="1200" height="120" fill="url(#forestGround)"/>
  <rect y="380" width="1200" height="20" fill="#4a2f1d"/>
  <rect y="370" width="1200" height="30" fill="#4a2f1d"/>
  
  <g opacity="0.9">
    <g transform="translate(40 315) scale(1.1)">
      <use href="#treeSimple"/>
    </g>
    <g transform="translate(120 300) scale(0.95)">
      <use href="#treeSimple"/>
    </g>
    <g transform="translate(200 305) scale(1.15)">
      <use href="#treeSimple"/>
    </g>
    <g transform="translate(280 310) scale(0.9)">
      <use href="#treeSimple"/>
    </g>
    <g transform="translate(360 300) scale(1.05)">
      <use href="#treeSimple"/>
    </g>
    <g transform="translate(450 315) scale(0.92)">
      <use href="#treeSimple"/>
    </g>
    <g transform="translate(520 305) scale(1.1)">
      <use href="#treeSimple"/>
    </g>
    <g transform="translate(610 320) scale(0.95)">
      <use href="#treeSimple"/>
    </g>
    <g transform="translate(690 295) scale(1.12)">
      <use href="#treeSimple"/>
    </g>
    <g transform="translate(780 315) scale(0.9)">
      <use href="#treeSimple"/>
    </g>
    <g transform="translate(860 305) scale(1.1)">
      <use href="#treeSimple"/>
    </g>
    <g transform="translate(950 315) scale(0.92)">
      <use href="#treeSimple"/>
    </g>
    <g transform="translate(1030 300) scale(1.08)">
      <use href="#treeSimple"/>
    </g>
    <g transform="translate(1110 325) scale(0.9)">
      <use href="#treeSimple"/>
    </g>
  </g>

  <g fill="rgba(255,255,255,0.4)">
    <circle cx="180" cy="120" r="2"/>
    <circle cx="260" cy="80" r="1.8"/>
    <circle cx="420" cy="110" r="2"/>
    <circle cx="540" cy="70" r="1.6"/>
    <circle cx="720" cy="90" r="2"/>
    <circle cx="860" cy="60" r="1.8"/>
    <circle cx="1020" cy="90" r="2.2"/>
  </g>
</svg>
