<svg viewBox="0 0 160 160" xmlns="http://www.w3.org/2000/svg" role="img" aria-label="Dunkelgoblin">
  <defs>
    <linearGradient id="darkGoblinSkin" x1="0%" y1="0%" x2="100%" y2="100%">
      <stop offset="0%" stop-color="#a855f7" />
      <stop offset="100%" stop-color="#4338ca" />
    </linearGradient>
    <linearGradient id="darkGoblinCloak" x1="0%" y1="0%" x2="100%" y2="100%">
      <stop offset="0%" stop-color="#1e1b4b" />
      <stop offset="100%" stop-color="#312e81" />
    </linearGradient>
  </defs>
  <rect x="14" y="18" width="132" height="134" rx="42" fill="rgba(99,102,241,0.32)" />
  <ellipse cx="80" cy="138" rx="46" ry="16" fill="rgba(168,85,247,0.28)" />
  <g stroke="#312e81" stroke-width="2.5" stroke-linejoin="round">
    <path d="M34 84 C30 50 54 26 80 26 C106 26 130 50 126 84 Z" fill="url(#darkGoblinSkin)" />
    <path d="M48 90 C52 114 62 130 80 130 C98 130 108 114 112 90 Z" fill="#7c3aed" />
    <circle cx="66" cy="76" r="9" fill="#0b1120" />
    <circle cx="94" cy="76" r="9" fill="#0b1120" />
    <circle cx="66" cy="76" r="3" fill="#f5f3ff" />
    <circle cx="94" cy="76" r="3" fill="#f5f3ff" />
    <path d="M68 100 Q80 110 92 100" stroke="#f9a8d4" stroke-width="3" stroke-linecap="round" />
  </g>
  <g fill="url(#darkGoblinCloak)" stroke="#1e1b4b" stroke-width="2.5">
    <path d="M46 60 Q80 34 114 60 L108 142 H52 Z" />
    <path d="M80 48 L68 68" stroke="#c4b5fd" stroke-width="3" stroke-linecap="round" />
  </g>
  <g stroke="#22d3ee" stroke-width="3" stroke-linecap="round">
    <path d="M56 40 Q80 22 104 40" />
    <path d="M48 46 L40 28" />
    <path d="M112 46 L120 28" />
  </g>
  <circle cx="80" cy="108" r="10" fill="#22d3ee" stroke="#0f172a" stroke-width="2" />
</svg>
