<svg viewBox="0 0 160 160" xmlns="http://www.w3.org/2000/svg" role="img" aria-label="Waldgoblin">
  <defs>
    <linearGradient id="forestGoblinSkin" x1="0%" y1="0%" x2="100%" y2="100%">
      <stop offset="0%" stop-color="#bbf7d0" />
      <stop offset="100%" stop-color="#047857" />
    </linearGradient>
    <linearGradient id="forestGoblinCloak" x1="0%" y1="0%" x2="100%" y2="100%">
      <stop offset="0%" stop-color="#166534" />
      <stop offset="100%" stop-color="#4d7c0f" />
    </linearGradient>
  </defs>
  <rect x="12" y="18" width="136" height="132" rx="42" fill="rgba(15,118,110,0.35)" />
  <ellipse cx="80" cy="136" rx="46" ry="14" fill="rgba(101,163,13,0.28)" />
  <g stroke="#064e3b" stroke-width="2.4" stroke-linejoin="round">
    <path d="M36 84 C32 48 54 26 80 26 C106 26 128 48 124 84 Z" fill="url(#forestGoblinSkin)" />
    <path d="M48 88 C50 110 62 124 80 124 C98 124 110 110 112 88 Z" fill="#0f766e" />
    <circle cx="66" cy="74" r="8" fill="#0f172a" />
    <circle cx="94" cy="74" r="8" fill="#0f172a" />
    <circle cx="66" cy="74" r="3" fill="#bbf7d0" />
    <circle cx="94" cy="74" r="3" fill="#bbf7d0" />
    <path d="M70 96 C80 104 90 104 100 96" stroke="#a3e635" stroke-width="3" stroke-linecap="round" />
  </g>
  <g fill="url(#forestGoblinCloak)" stroke="#14532d" stroke-width="2.4">
    <path d="M44 54 C60 40 100 40 116 54 L110 122 H50 Z" />
    <path d="M80 48 L68 64" stroke="#ecfccb" stroke-width="3" stroke-linecap="round" />
  </g>
  <g fill="#22c55e" stroke="#14532d" stroke-width="2">
    <path d="M32 88 L52 144" />
    <path d="M128 88 L108 144" />
    <circle cx="40" cy="108" r="8" />
    <circle cx="120" cy="108" r="8" />
  </g>
  <path d="M72 60 h16" stroke="#064e3b" stroke-width="3" stroke-linecap="round" />
</svg>
