<svg viewBox="0 0 64 64" xmlns="http://www.w3.org/2000/svg" role="img" aria-hidden="true" shape-rendering="crispEdges">
  <rect width="64" height="64" fill="none"/>
  <g opacity="0.85">
    <rect x="18" y="56" width="28" height="4" fill="rgba(15,23,42,0.65)"/>
    <rect x="20" y="55" width="24" height="1" fill="rgba(165,180,252,0.16)"/>
  </g>
  <g>
    <rect x="24" y="10" width="16" height="12" fill="#6366f1" stroke="#4338ca" stroke-width="1"/>
    <rect x="22" y="22" width="20" height="18" fill="#4c1d95" stroke="#312e81" stroke-width="1"/>
    <rect x="24" y="40" width="16" height="10" fill="#3730a3" stroke="#1e1b4b" stroke-width="1"/>
  </g>
  <g>
    <rect x="22" y="14" width="6" height="4" fill="#312e81"/>
    <rect x="36" y="14" width="6" height="4" fill="#312e81"/>
    <rect x="28" y="16" width="4" height="2" fill="#1e1b4b"/>
    <rect x="34" y="16" width="4" height="2" fill="#1e1b4b"/>
    <rect x="30" y="20" width="6" height="2" fill="#1f2937"/>
    <rect x="28" y="12" width="4" height="2" fill="#c7d2fe"/>
    <rect x="34" y="12" width="4" height="2" fill="#c7d2fe"/>
  </g>
  <g>
    <rect x="22" y="28" width="20" height="4" fill="#0f172a" opacity="0.35"/>
    <rect x="26" y="34" width="12" height="2" fill="#a855f7"/>
    <rect x="30" y="36" width="4" height="2" fill="#7c3aed"/>
  </g>
  <g>
    <rect x="24" y="46" width="6" height="10" fill="#4338ca" stroke="#1e1b4b" stroke-width="1"/>
    <rect x="34" y="46" width="6" height="10" fill="#4338ca" stroke="#1e1b4b" stroke-width="1"/>
    <rect x="22" y="56" width="8" height="4" fill="#111827"/>
    <rect x="34" y="56" width="8" height="4" fill="#111827"/>
  </g>
  <g>
    <rect x="12" y="24" width="8" height="8" fill="#4c1d95" stroke="#1e1b4b" stroke-width="1"/>
    <rect x="10" y="20" width="6" height="16" fill="#5b21b6" stroke="#1e1b4b" stroke-width="1"/>
    <rect x="8" y="18" width="4" height="18" fill="#312e81"/>
    <rect x="6" y="16" width="4" height="18" fill="#0f172a"/>
    <rect x="4" y="12" width="4" height="8" fill="#f472b6"/>
  </g>
  <g>
    <rect x="44" y="18" width="8" height="8" fill="#4c1d95" stroke="#1e1b4b" stroke-width="1"/>
    <rect x="44" y="16" width="6" height="18" fill="#1f2937"/>
    <rect x="50" y="14" width="10" height="6" fill="#a855f7"/>
    <rect x="54" y="10" width="4" height="32" fill="#1e1b4b"/>
    <rect x="48" y="36" width="12" height="6" fill="#cbd5f5"/>
  </g>
</svg>
