<svg xmlns="http://www.w3.org/2000/svg" viewBox="0 0 32 32" shape-rendering="crispEdges" role="img" aria-label="Kobold pixel art">
  <rect width="32" height="32" fill="none"/>
  <rect x="3" y="23" width="26" height="2" fill="#041012" opacity="0.45"/>
  <rect x="6" y="6" width="20" height="4" fill="#166534"/>
  <rect x="8" y="5" width="16" height="2" fill="#22c55e"/>
  <rect x="7" y="10" width="18" height="9" fill="#14532d"/>
  <rect x="9" y="11" width="14" height="7" fill="#15803d"/>
  <rect x="11" y="12" width="10" height="4" fill="#22c55e"/>
  <rect x="9" y="9" width="4" height="2" fill="#0f172a"/>
  <rect x="19" y="9" width="4" height="2" fill="#0f172a"/>
  <rect x="13" y="15" width="2" height="2" fill="#0f172a"/>
  <rect x="17" y="15" width="2" height="2" fill="#0f172a"/>
  <rect x="8" y="19" width="16" height="5" fill="#0f172a"/>
  <rect x="9" y="20" width="14" height="4" fill="#1f2937"/>
  <rect x="10" y="20" width="4" height="6" fill="#0b1120"/>
  <rect x="18" y="20" width="4" height="6" fill="#0b1120"/>
  <rect x="8" y="19" width="3" height="2" fill="#22c55e"/>
  <rect x="21" y="19" width="3" height="2" fill="#22c55e"/>
  <rect x="6" y="11" width="3" height="3" fill="#22c55e"/>
  <rect x="23" y="11" width="3" height="3" fill="#22c55e"/>
  <rect x="5" y="15" width="4" height="3" fill="#14532d"/>
  <rect x="23" y="15" width="4" height="3" fill="#14532d"/>
</svg>
