<svg xmlns="http://www.w3.org/2000/svg" viewBox="0 0 120 120" role="img" aria-labelledby="title">
  <title>Goblinkoenig</title>
  <defs>
    <linearGradient id="king-bg" x1="10" y1="0" x2="110" y2="120" gradientUnits="userSpaceOnUse">
      <stop offset="0" stop-color="#1e0a28"/>
      <stop offset="1" stop-color="#07010d"/>
    </linearGradient>
    <linearGradient id="king-skin" x1="34" y1="26" x2="96" y2="98" gradientUnits="userSpaceOnUse">
      <stop offset="0" stop-color="#ffd77d"/>
      <stop offset="1" stop-color="#cf8d28"/>
    </linearGradient>
  </defs>
  <path d="M60 15l-8 14-14-6 4 18-14 6 18 4 4 18 10-14 10 14 4-18 18-4-14-6 4-18-14 6z" fill="#f2b705" stroke="#402000" stroke-width="3"/>
  <circle cx="60" cy="66" r="34" fill="url(#king-skin)" stroke="#5f2b00" stroke-width="4"/>
  <path d="M36 59c-4 0-7-4-7-8s3-8 8-8 12 5 13 11c-5 2-9 4-14 5zm48 0c4 0 7-4 7-8s-3-8-8-8-12 5-13 11c5 2 9 4 14 5z" fill="#341300"/>
  <path d="M41 74c7 7 13 10 19 10s12-3 19-10" stroke="#5c2a00" stroke-width="4" stroke-linecap="round"/>
  <path d="M40 84c6 4 12 6 20 6s14-2 20-6" stroke="#ffe6a6" stroke-width="3" stroke-linecap="round"/>
  <path d="M30 86c5-7 12-10 30-10s25 3 30 10" stroke="#8c4600" stroke-width="3" stroke-linecap="round"/>
  <path d="M35 47c7-7 16-11 25-11s18 4 25 11" stroke="#ffefc0" stroke-width="3" stroke-linecap="round"/>
  <path d="M60 34c-5 0-10 4-10 9v5h20v-5c0-5-5-9-10-9z" fill="#fff5cf" stroke="#5c2c00" stroke-width="3"/>
  <circle cx="46" cy="61" r="4" fill="#fff8da"/>
  <circle cx="74" cy="61" r="4" fill="#fff8da"/>
  <path d="M40 90h40l-4 16H44z" fill="#d88d1a" stroke="#431b00" stroke-width="3"/>
</svg>
