<svg xmlns="http://www.w3.org/2000/svg" viewBox="0 0 120 120" role="img" aria-labelledby="title">
  <title>Bergtroll</title>
  <defs>
    <linearGradient id="troll-bg" x1="8" y1="0" x2="112" y2="120" gradientUnits="userSpaceOnUse">
      <stop offset="0" stop-color="#1c1a1d"/>
      <stop offset="1" stop-color="#050505"/>
    </linearGradient>
    <linearGradient id="troll-skin" x1="38" y1="28" x2="96" y2="100" gradientUnits="userSpaceOnUse">
      <stop offset="0" stop-color="#d7d0c8"/>
      <stop offset="1" stop-color="#7a6e6a"/>
    </linearGradient>
  </defs>
  <rect width="120" height="120" rx="28" fill="url(#troll-bg)"/>
  <path d="M23 60c3-17 22-32 37-35-3 11-2 21 2 28-9-1-24 0-39 7z" fill="#6f6460"/>
  <path d="M97 60c-3-17-22-32-37-35 3 11 2 21-2 28 9-1 24 0 39 7z" fill="#4f4b4a"/>
  <ellipse cx="60" cy="68" rx="36" ry="32" fill="url(#troll-skin)" stroke="#2e2724" stroke-width="4"/>
  <path d="M34 80h52v10c0 6-5 11-11 11H45c-6 0-11-5-11-11V80z" fill="#3b2f2d" stroke="#120c0c" stroke-width="3"/>
  <path d="M30 63c6 5 15 8 30 8s24-3 30-8" fill="none" stroke="#3f312e" stroke-width="4" stroke-linecap="round"/>
  <circle cx="46" cy="60" r="6" fill="#130f0f"/>
  <circle cx="74" cy="60" r="6" fill="#130f0f"/>
  <path d="M48 87c4 2 8 3 12 3s8-1 12-3" stroke="#251d1c" stroke-width="3" stroke-linecap="round"/>
  <path d="M60 30c-5 0-9 4-9 9v9h18v-9c0-5-4-9-9-9z" fill="#5c524f" stroke="#120c0c" stroke-width="3"/>
  <path d="M38 38l-8-18 16 7-8 11zm44 0l8-18-16 7 8 11z" fill="#9b918a" stroke="#322b28" stroke-width="3"/>
  <rect x="32" y="71" width="56" height="9" rx="4.5" fill="#1f1818"/>
  <path d="M42 71c5 4 11 6 18 6s13-2 18-6" stroke="#e9e5d8" stroke-width="2" stroke-linecap="round"/>
</svg>
