<svg xmlns="http://www.w3.org/2000/svg" viewBox="0 0 32 32" shape-rendering="crispEdges">
  <rect width="32" height="32" fill="none"/>
  <rect x="9" y="26" width="14" height="2" fill="#0b1120" opacity="0.6"/>
  <rect x="10" y="27" width="12" height="1" fill="#111827" opacity="0.5"/>
  <rect x="11" y="23" width="4" height="3" fill="#1e293b"/>
  <rect x="17" y="23" width="4" height="3" fill="#1e293b"/>
  <rect x="11" y="19" width="10" height="5" fill="#475569"/>
  <rect x="11" y="20" width="10" height="1" fill="#94a3b8"/>
  <rect x="9" y="13" width="14" height="8" fill="#9ca3af"/>
  <rect x="10" y="14" width="12" height="5" fill="#cbd5f5"/>
  <rect x="9" y="16" width="14" height="1" fill="#475569"/>
  <rect x="8" y="11" width="16" height="2" fill="#9ca3af"/>
  <rect x="7" y="11" width="2" height="6" fill="#64748b"/>
  <rect x="23" y="11" width="2" height="6" fill="#64748b"/>
  <rect x="7" y="17" width="2" height="2" fill="#1e293b"/>
  <rect x="23" y="17" width="2" height="2" fill="#1e293b"/>
  <rect x="6" y="18" width="2" height="2" fill="#d1d5db"/>
  <rect x="24" y="18" width="2" height="2" fill="#d1d5db"/>
  <rect x="12" y="9" width="8" height="2" fill="#cbd5f5"/>
  <rect x="11" y="7" width="10" height="2" fill="#9ca3af"/>
  <rect x="13" y="6" width="6" height="1" fill="#64748b"/>
  <rect x="12" y="8" width="2" height="1" fill="#1f2937"/>
  <rect x="18" y="8" width="2" height="1" fill="#1f2937"/>
  <rect x="13" y="10" width="6" height="1" fill="#475569"/>
  <rect x="10" y="6" width="2" height="3" fill="#64748b"/>
  <rect x="20" y="6" width="2" height="3" fill="#64748b"/>
  <rect x="12" y="5" width="8" height="1" fill="#1e293b"/>
  <rect x="14" y="4" width="4" height="1" fill="#0f172a"/>
  <rect x="13" y="3" width="6" height="1" fill="#ef4444"/>
</svg>
