<svg xmlns="http://www.w3.org/2000/svg" viewBox="0 0 32 32" shape-rendering="crispEdges">
  <rect width="32" height="32" fill="none"/>
  <rect x="6" y="27" width="20" height="3" fill="#0a0f1a" opacity="0.6"/>
  <rect x="8" y="5" width="16" height="5" fill="#166534"/>
  <rect x="7" y="10" width="18" height="5" fill="#1f8f54"/>
  <rect x="6" y="15" width="20" height="6" fill="#14532d"/>
  <rect x="9" y="21" width="4" height="7" fill="#1c4532"/>
  <rect x="19" y="21" width="4" height="7" fill="#1c4532"/>
  <rect x="10" y="12" width="2" height="2" fill="#02160f"/>
  <rect x="20" y="12" width="2" height="2" fill="#02160f"/>
  <rect x="12" y="16" width="8" height="3" fill="#02160f"/>
  <rect x="5" y="13" width="4" height="3" fill="#10b981"/>
  <rect x="23" y="13" width="4" height="3" fill="#10b981"/>
  <rect x="12" y="5" width="8" height="3" fill="#9ca3af"/>
  <rect x="12" y="3" width="8" height="2" fill="#d1d5db"/>
  <rect x="11" y="18" width="10" height="3" fill="#0f172a"/>
  <rect x="13" y="21" width="6" height="7" fill="#1f2937"/>
</svg>
