<svg viewBox="0 0 64 64" xmlns="http://www.w3.org/2000/svg" role="img" aria-hidden="true" shape-rendering="crispEdges">
  <rect width="64" height="64" fill="none"/>
  <g opacity="0.9">
    <rect x="18" y="56" width="28" height="4" fill="rgba(15,23,42,0.75)"/>
    <rect x="20" y="55" width="24" height="1" fill="rgba(192,132,252,0.18)"/>
  </g>
  <g>
    <rect x="24" y="10" width="16" height="12" fill="#6d28d9" stroke="#4c1d95" stroke-width="1"/>
    <rect x="22" y="22" width="20" height="18" fill="#5b21b6" stroke="#3b0764" stroke-width="1"/>
    <rect x="24" y="40" width="16" height="10" fill="#3b0764" stroke="#1e1b4b" stroke-width="1"/>
  </g>
  <g>
    <rect x="28" y="16" width="4" height="2" fill="#0f172a"/>
    <rect x="34" y="16" width="4" height="2" fill="#0f172a"/>
    <rect x="30" y="20" width="6" height="2" fill="#111827"/>
    <rect x="28" y="12" width="4" height="2" fill="#f0abfc"/>
    <rect x="34" y="12" width="4" height="2" fill="#f0abfc"/>
  </g>
  <g>
    <rect x="22" y="28" width="20" height="4" fill="#111827" opacity="0.3"/>
    <rect x="26" y="34" width="12" height="2" fill="#c4b5fd"/>
    <rect x="28" y="36" width="8" height="2" fill="#a855f7"/>
  </g>
  <g>
    <rect x="24" y="46" width="6" height="10" fill="#4c1d95" stroke="#1e1b4b" stroke-width="1"/>
    <rect x="34" y="46" width="6" height="10" fill="#4c1d95" stroke="#1e1b4b" stroke-width="1"/>
    <rect x="22" y="56" width="8" height="4" fill="#0f172a"/>
    <rect x="34" y="56" width="8" height="4" fill="#0f172a"/>
  </g>
  <g>
    <rect x="12" y="24" width="8" height="8" fill="#5b21b6" stroke="#2e1065" stroke-width="1"/>
    <rect x="10" y="18" width="6" height="18" fill="#6d28d9" stroke="#3b0764" stroke-width="1"/>
    <rect x="8" y="16" width="4" height="18" fill="#312e81"/>
    <rect x="6" y="14" width="4" height="20" fill="#111827"/>
    <rect x="4" y="12" width="4" height="6" fill="#22d3ee"/>
  </g>
  <g>
    <rect x="44" y="18" width="10" height="10" fill="#3b0764" stroke="#1e1b4b" stroke-width="1"/>
    <rect x="46" y="16" width="6" height="24" fill="#0f172a"/>
    <rect x="52" y="14" width="6" height="20" fill="#1e293b"/>
    <rect x="50" y="32" width="10" height="4" fill="#22d3ee"/>
    <rect x="48" y="20" width="6" height="4" fill="#a5f3fc"/>
  </g>
</svg>
