<svg width="200" height="200" viewBox="0 0 200 200" fill="none" xmlns="http://www.w3.org/2000/svg">
  <defs>
    <linearGradient id="kobold_bg" x1="20" y1="10" x2="180" y2="190" gradientUnits="userSpaceOnUse">
      <stop offset="0" stop-color="#064e3b"/>
      <stop offset="0.6" stop-color="#047857"/>
      <stop offset="1" stop-color="#34d399"/>
    </linearGradient>
    <radialGradient id="kobold_core" cx="0" cy="0" r="1" gradientUnits="userSpaceOnUse" gradientTransform="translate(100 90) scale(70 60)">
      <stop offset="0" stop-color="#bbf7d0"/>
      <stop offset="1" stop-color="#4ade80" stop-opacity="0"/>
    </radialGradient>
  </defs>
  <rect width="200" height="200" rx="24" fill="url(#kobold_bg)"/>
  <rect width="200" height="200" rx="24" fill="url(#kobold_core)" opacity="0.65"/>
  <path d="M60 54c-12 6-24 26-24 44 0 22 15 38 38 50 9 4 17 6 26 6s17-2 26-6c23-12 38-28 38-50 0-18-12-38-24-44l-16 28-24-6-24 6-16-28Z" fill="#064e3b" opacity="0.3"/>
  <path d="M60 58c-11 9-18 23-18 38 0 18 12 32 32 44 8 4.5 16 6.5 26 6.5s18-2 26-6.5c20-12 32-26 32-44 0-15-7-29-18-38l-18 24-22-8-22 8-18-24Z" fill="#10b981"/>
  <path d="M96 46c-6 0-10 4-10 9 0 4 2 7 6 9l-4 24 12 6 12-6-4-24c4-2 6-5 6-9 0-5-4-9-10-9h-8Z" fill="#ecfccb"/>
  <path d="M82 116c-10 0-18 6-18 14 0 5.5 4 11.5 14 12 12 1 22-4 22-12 0-8-8-14-18-14Z" fill="#064e3b" opacity="0.35"/>
  <path d="M118 116c-10 0-18 6-18 14 0 8 10 13 22 12 10-0.5 14-6.5 14-12 0-8-8-14-18-14Z" fill="#064e3b" opacity="0.3"/>
  <path d="M70 82c8 10 18 12 30 12s22-2 30-12c-6-12-17-18-30-18s-24 6-30 18Z" fill="#1d4ed8" opacity="0.18"/>
  <path d="M92 76c0 4 3 7 8 7s8-3 8-7-3-7-8-7-8 3-8 7Z" fill="#022c22"/>
  <path d="M86 84c-2 4-4 11-4 18 0 9 6 14 18 14s18-5 18-14c0-7-2-14-4-18-8 6-20 6-28 0Z" fill="#a7f3d0"/>
  <path d="M112 68c6 2 14 8 16 14 4-6 6-16 0-26-6 4-11 8-16 12Z" fill="#ecfccb" opacity="0.6"/>
  <path d="M72 82c-6-4-12-18 0-26 2 6 10 12 16 14-4 3-10 8-16 12Z" fill="#ecfccb" opacity="0.6"/>
  <path d="M102 142 82 162c-3 3-1 8 3 8h30c4 0 6-5 3-8l-20-20Z" fill="#065f46"/>
  <path d="M100 118c-4 0-8 3-8 7s4 7 8 7 8-3 8-7-4-7-8-7Z" fill="#022c22"/>
  <circle cx="88" cy="60" r="6" fill="#022c22"/>
  <circle cx="112" cy="60" r="6" fill="#022c22"/>
  <path d="M88 58c-3 0-5 2-5 5s2 5 5 5 5-2 5-5-2-5-5-5Z" fill="#a7f3d0"/>
  <path d="M112 58c-3 0-5 2-5 5s2 5 5 5 5-2 5-5-2-5-5-5Z" fill="#a7f3d0"/>
</svg>
