<svg width="200" height="200" viewBox="0 0 200 200" fill="none" xmlns="http://www.w3.org/2000/svg">
  <defs>
    <linearGradient id="gk_bg" x1="26" y1="14" x2="174" y2="186" gradientUnits="userSpaceOnUse">
      <stop offset="0" stop-color="#0f172a"/>
      <stop offset="0.5" stop-color="#14532d"/>
      <stop offset="1" stop-color="#fde047"/>
    </linearGradient>
    <radialGradient id="gk_glow" cx="0" cy="0" r="1" gradientUnits="userSpaceOnUse" gradientTransform="translate(100 90) scale(88 70)">
      <stop offset="0" stop-color="#facc15" stop-opacity="0.65"/>
      <stop offset="1" stop-color="#14532d" stop-opacity="0"/>
    </radialGradient>
    <linearGradient id="gk_body" x1="60" y1="66" x2="140" y2="160" gradientUnits="userSpaceOnUse">
      <stop offset="0" stop-color="#16a34a"/>
      <stop offset="1" stop-color="#065f46"/>
    </linearGradient>
  </defs>
  <rect width="200" height="200" rx="24" fill="url(#gk_bg)"/>
  <rect width="200" height="200" rx="24" fill="url(#gk_glow)"/>
  <path d="M44 154c20 24 48 38 56 38s36-14 56-38c-24-10-32-22-36-34-4-12-10-30-20-30h-0.5c-10 0-16 18-20 30-4 12-12 24-36 34Z" fill="#0f172a" opacity="0.55"/>
  <path d="M62 68c-10 12-18 26-18 42 0 30 24 48 56 48s56-18 56-48c0-16-8-30-18-42l-18 22-20-6-20 6-18-22Z" fill="url(#gk_body)"/>
  <path d="M100 40c-18 0-30 12-30 34 0 12 6 18 14 22l-6 30 22 14 22-14-6-30c8-4 14-10 14-22 0-22-12-34-30-34Z" fill="#fef3c7"/>
  <path d="M74 108c8 14 18 20 26 20s18-6 26-20c-8-14-16-22-26-22s-18 8-26 22Z" fill="#65a30d" opacity="0.45"/>
  <path d="M84 134c-10 0-18 8-18 16 0 8 6 14 14 14 12 0 22-8 22-16 0-8-8-14-18-14Z" fill="#064e3b" opacity="0.45"/>
  <path d="M116 134c-10 0-18 6-18 14 0 8 10 16 22 16 8 0 14-6 14-14 0-8-8-16-18-16Z" fill="#064e3b" opacity="0.4"/>
  <path d="M86 72c-6 0-10 4-10 10 0 6 4 10 10 10s10-4 10-10c0-6-4-10-10-10Z" fill="#0f172a"/>
  <path d="M114 72c-6 0-10 4-10 10 0 6 4 10 10 10s10-4 10-10c0-6-4-10-10-10Z" fill="#0f172a"/>
  <path d="M90 124c0 10 8 16 10 16s10-6 10-16-8-18-10-18-10 8-10 18Z" fill="#fef9c3"/>
  <path d="M100 142c-6 0-10 4-10 8s4 8 10 8 10-4 10-8-4-8-10-8Z" fill="#facc15"/>
  <path d="M72 92c-8-12-12-28-2-40 6 10 16 16 28 18-12 4-18 10-26 22Z" fill="#fef9c3" opacity="0.6"/>
  <path d="M128 92c-8-12-14-18-26-22 12-2 22-8 28-18 10 12 6 28-2 40Z" fill="#fef9c3" opacity="0.6"/>
  <path d="M84 66c-4 0-6 2-6 4s2 4 6 4 6-2 6-4-2-4-6-4Z" fill="#fefce8"/>
  <path d="M116 66c-4 0-6 2-6 4s2 4 6 4 6-2 6-4-2-4-6-4Z" fill="#fefce8"/>
  <path d="M68 150c-4 0-8 4-8 8s4 6 8 6 8-2 8-6-4-8-8-8Z" fill="#fde047"/>
  <path d="M132 150c-4 0-8 4-8 8s4 6 8 6 8-2 8-6-4-8-8-8Z" fill="#fde047"/>
  <path d="M100 82c-4 0-6 2-6 6s2 6 6 6 6-2 6-6-2-6-6-6Z" fill="#0f172a"/>
  <path d="M76 58 92 70l8-10 8 10 16-12-8 22-16-6-16 6-8-22Z" fill="#facc15"/>
</svg>
