<svg viewBox="0 0 160 160" xmlns="http://www.w3.org/2000/svg" role="img" aria-labelledby="title desc">
  <title id="title">Goblinkoenig</title>
  <desc id="desc">The imposing goblin king crowned with gold and emerald flames.</desc>
  <defs>
    <linearGradient id="gk-bg" x1="0%" y1="0%" x2="0%" y2="100%">
      <stop offset="0%" stop-color="#1a2e1d"/>
      <stop offset="100%" stop-color="#0a130b"/>
    </linearGradient>
    <linearGradient id="gk-skin" x1="0%" y1="0%" x2="100%" y2="100%">
      <stop offset="0%" stop-color="#22c55e"/>
      <stop offset="50%" stop-color="#16a34a"/>
      <stop offset="100%" stop-color="#166534"/>
    </linearGradient>
    <linearGradient id="gk-armor" x1="0%" y1="0%" x2="100%" y2="100%">
      <stop offset="0%" stop-color="#fde68a"/>
      <stop offset="50%" stop-color="#facc15"/>
      <stop offset="100%" stop-color="#b45309"/>
    </linearGradient>
    <radialGradient id="gk-eye" cx="50%" cy="50%" r="50%">
      <stop offset="0%" stop-color="#fef9c3"/>
      <stop offset="100%" stop-color="#facc15"/>
    </radialGradient>
    <filter id="gk-shadow" x="-20%" y="-20%" width="140%" height="140%">
      <feDropShadow dx="0" dy="7" stdDeviation="9" flood-color="#041006" flood-opacity="0.85"/>
    </filter>
  </defs>
  <rect width="160" height="160" rx="30" fill="url(#gk-bg)"/>
  <g filter="url(#gk-shadow)">
    <path d="M32 136 Q20 92 46 52 Q64 30 80 28 Q96 30 114 52 Q140 92 128 136" fill="url(#gk-armor)" opacity="0.8"/>
    <path d="M50 58 Q68 44 80 44 Q92 44 110 58 L104 92 Q94 112 80 114 Q66 112 56 92 Z" fill="url(#gk-skin)" stroke="#0f2d1a" stroke-width="2.2"/>
    <path d="M56 92 Q66 130 48 140 Q30 128 38 100 Z" fill="url(#gk-skin)" stroke="#0f2d1a" stroke-width="1.9"/>
    <path d="M104 92 Q94 130 112 140 Q130 128 122 100 Z" fill="url(#gk-skin)" stroke="#0f2d1a" stroke-width="1.9"/>
    <path d="M60 114 Q74 128 80 130 Q86 128 100 114 L104 142 Q90 150 80 152 Q70 150 56 142 Z" fill="#14532d" stroke="#0b311b" stroke-width="2"/>
    <path d="M44 48 L60 30 L80 36 L100 30 L116 48" fill="#fbbf24" stroke="#b45309" stroke-width="1.8"/>
    <path d="M56 28 L80 18 L104 28 L96 8 L80 14 L64 8 Z" fill="#facc15" stroke="#b45309" stroke-width="1.6"/>
    <ellipse cx="66" cy="78" rx="9" ry="11" fill="#0f2d1a"/>
    <ellipse cx="94" cy="78" rx="9" ry="11" fill="#0f2d1a"/>
    <circle cx="66" cy="78" r="5" fill="url(#gk-eye)"/>
    <circle cx="94" cy="78" r="5" fill="url(#gk-eye)"/>
    <path d="M64 106 Q80 118 96 106" fill="none" stroke="#0f2d1a" stroke-width="2.8" stroke-linecap="round"/>
    <path d="M70 90 Q80 94 90 90" fill="none" stroke="#fef9c3" stroke-width="2" stroke-linecap="round"/>
    <path d="M60 120 L80 128 L100 120" fill="none" stroke="#facc15" stroke-width="3" stroke-linecap="round"/>
  </g>
</svg>
