<svg xmlns="http://www.w3.org/2000/svg" viewBox="0 0 120 120" role="img" aria-labelledby="title">
  <title>Hoehlengoblin</title>
  <defs>
    <linearGradient id="cave-bg" x1="12" y1="0" x2="108" y2="120" gradientUnits="userSpaceOnUse">
      <stop offset="0" stop-color="#061428"/>
      <stop offset="1" stop-color="#02070e"/>
    </linearGradient>
    <linearGradient id="cave-skin" x1="32" y1="28" x2="94" y2="94" gradientUnits="userSpaceOnUse">
      <stop offset="0" stop-color="#6de1dd"/>
      <stop offset="1" stop-color="#1a6570"/>
    </linearGradient>
  </defs>
  <path d="M60 16l-9 13-18 3 10 12-3 18 20-9 20 9-3-18 10-12-18-3z" fill="#2dd3d6" stroke="#063043" stroke-width="3"/>
  <circle cx="60" cy="66" r="34" fill="url(#cave-skin)" stroke="#042a35" stroke-width="4"/>
  <path d="M30 78c4-6 10-9 16-9s12 3 14 9c2-6 8-9 14-9s12 3 16 9" fill="none" stroke="#062b37" stroke-width="3" stroke-linecap="round"/>
  <path d="M44 58c-4 0-7-3-7-7s3-7 7-7 9 4 10 9c-4 1-7 5-10 5zm32 0c4 0 7-3 7-7s-3-7-7-7-9 4-10 9c4 1 7 5 10 5z" fill="#031d25"/>
  <path d="M45 82c6 2 10 3 15 3s9-1 15-3" stroke="#d7ffff" stroke-width="3" stroke-linecap="round"/>
  <path d="M36 70l6 4-3 9-7-5zm48 0-6 4 3 9 7-5z" fill="#39f5ff" stroke="#063043" stroke-width="2"/>
  <path d="M60 46c-6 0-11-5-11-11s5-11 11-11 11 5 11 11-5 11-11 11z" fill="#133c48"/>
</svg>
