<svg xmlns="http://www.w3.org/2000/svg" viewBox="0 0 32 32" shape-rendering="crispEdges" role="img" aria-label="Kriegsgoblin pixel art">
  <rect width="32" height="32" fill="none"/>
  <rect x="3" y="26" width="26" height="2" fill="#130308" opacity="0.5"/>
  <rect x="7" y="5" width="18" height="5" fill="#b91c1c"/>
  <rect x="9" y="4" width="14" height="2" fill="#f87171"/>
  <rect x="6" y="10" width="20" height="10" fill="#7f1d1d"/>
  <rect x="8" y="11" width="16" height="8" fill="#dc2626"/>
  <rect x="11" y="12" width="10" height="5" fill="#fca5a5"/>
  <rect x="9" y="9" width="4" height="3" fill="#0f172a"/>
  <rect x="19" y="9" width="4" height="3" fill="#0f172a"/>
  <rect x="13" y="15" width="2" height="2" fill="#0f172a"/>
  <rect x="17" y="15" width="2" height="2" fill="#0f172a"/>
  <rect x="8" y="19" width="16" height="6" fill="#0b1120"/>
  <rect x="9" y="20" width="14" height="5" fill="#111827"/>
  <rect x="10" y="20" width="4" height="7" fill="#1f2937"/>
  <rect x="18" y="20" width="4" height="7" fill="#1f2937"/>
  <rect x="7" y="13" width="3" height="4" fill="#dc2626"/>
  <rect x="22" y="13" width="3" height="4" fill="#dc2626"/>
  <rect x="5" y="12" width="3" height="3" fill="#f87171"/>
  <rect x="24" y="12" width="3" height="3" fill="#f87171"/>
  <rect x="6" y="16" width="3" height="3" fill="#b91c1c"/>
  <rect x="23" y="16" width="3" height="3" fill="#b91c1c"/>
  <rect x="10" y="22" width="12" height="2" fill="#facc15"/>
  <rect x="11" y="23" width="10" height="2" fill="#f97316"/>
  <rect x="12" y="24" width="8" height="2" fill="#ea580c"/>
  <rect x="13" y="8" width="6" height="1" fill="#fde68a"/>
  <rect x="12" y="7" width="8" height="1" fill="#fef3c7"/>
</svg>
