<svg xmlns="http://www.w3.org/2000/svg" viewBox="0 0 32 32" shape-rendering="crispEdges" role="img" aria-label="Hobgoblin pixel art">
  <rect width="32" height="32" fill="none"/>
  <rect x="4" y="25" width="24" height="2" fill="#030712" opacity="0.5"/>
  <rect x="7" y="5" width="18" height="4" fill="#365314"/>
  <rect x="9" y="4" width="14" height="2" fill="#65a30d"/>
  <rect x="6" y="9" width="20" height="10" fill="#3f6212"/>
  <rect x="8" y="10" width="16" height="8" fill="#4d7c0f"/>
  <rect x="10" y="11" width="12" height="6" fill="#84cc16"/>
  <rect x="9" y="9" width="5" height="2" fill="#111827"/>
  <rect x="18" y="9" width="5" height="2" fill="#111827"/>
  <rect x="12" y="14" width="2" height="2" fill="#111827"/>
  <rect x="18" y="14" width="2" height="2" fill="#111827"/>
  <rect x="8" y="18" width="16" height="5" fill="#1f2937"/>
  <rect x="9" y="19" width="14" height="4" fill="#0f172a"/>
  <rect x="10" y="19" width="4" height="6" fill="#1f2937"/>
  <rect x="18" y="19" width="4" height="6" fill="#1f2937"/>
  <rect x="7" y="13" width="4" height="4" fill="#4d7c0f"/>
  <rect x="21" y="13" width="4" height="4" fill="#4d7c0f"/>
  <rect x="5" y="11" width="3" height="3" fill="#a3e635"/>
  <rect x="24" y="11" width="3" height="3" fill="#a3e635"/>
  <rect x="6" y="16" width="3" height="3" fill="#365314"/>
  <rect x="23" y="16" width="3" height="3" fill="#365314"/>
  <rect x="11" y="8" width="10" height="1" fill="#d9f99d"/>
  <rect x="12" y="7" width="8" height="1" fill="#fefce8"/>
  <rect x="10" y="20" width="12" height="2" fill="#78350f"/>
  <rect x="12" y="21" width="8" height="2" fill="#f97316"/>
</svg>
