<svg viewBox="0 0 160 160" xmlns="http://www.w3.org/2000/svg" role="img" aria-label="Hobgoblin">
  <defs>
    <linearGradient id="hobgoblinSkin" x1="0%" y1="0%" x2="100%" y2="100%">
      <stop offset="0%" stop-color="#fbbf24" />
      <stop offset="100%" stop-color="#b45309" />
    </linearGradient>
    <linearGradient id="hobgoblinArmor" x1="0%" y1="0%" x2="0%" y2="100%">
      <stop offset="0%" stop-color="#78350f" />
      <stop offset="100%" stop-color="#431407" />
    </linearGradient>
  </defs>
  <rect x="14" y="18" width="132" height="132" rx="40" fill="rgba(120,53,15,0.35)" />
  <ellipse cx="80" cy="136" rx="46" ry="14" fill="rgba(217,119,6,0.32)" />
  <g stroke="#7c2d12" stroke-width="2.6" stroke-linejoin="round">
    <path d="M38 80 C34 46 56 24 80 24 C104 24 126 46 122 80 Z" fill="url(#hobgoblinSkin)" />
    <path d="M52 82 C54 104 64 120 80 120 C96 120 106 104 108 82 Z" fill="#d97706" />
    <circle cx="66" cy="72" r="10" fill="#7c2d12" />
    <circle cx="94" cy="72" r="10" fill="#7c2d12" />
    <circle cx="66" cy="72" r="4" fill="#fde68a" />
    <circle cx="94" cy="72" r="4" fill="#fde68a" />
    <path d="M68 94 Q80 104 92 94" stroke="#f8fafc" stroke-width="3" stroke-linecap="round" />
    <path d="M52 56 H72" stroke-linecap="round" />
    <path d="M108 56 H88" stroke-linecap="round" />
  </g>
  <g fill="url(#hobgoblinArmor)" stroke="#1f2937" stroke-width="2.6">
    <path d="M48 120 L112 120 L126 150 H34 Z" />
    <path d="M58 128 H102 L106 144 H54 Z" fill="#92400e" />
  </g>
  <g stroke="#f59e0b" stroke-width="3" stroke-linecap="round">
    <path d="M80 40 V16" />
    <path d="M80 40 L66 18" />
    <path d="M80 40 L94 18" />
  </g>
</svg>
