<svg width="200" height="200" viewBox="0 0 200 200" fill="none" xmlns="http://www.w3.org/2000/svg">
  <defs>
    <linearGradient id="bt_bg" x1="20" y1="20" x2="180" y2="180" gradientUnits="userSpaceOnUse">
      <stop offset="0" stop-color="#0f172a"/>
      <stop offset="0.55" stop-color="#1f2937"/>
      <stop offset="1" stop-color="#6b7280"/>
    </linearGradient>
    <radialGradient id="bt_glow" cx="0" cy="0" r="1" gradientUnits="userSpaceOnUse" gradientTransform="translate(100 96) scale(86 70)">
      <stop offset="0" stop-color="#facc15" stop-opacity="0.35"/>
      <stop offset="1" stop-color="#6b7280" stop-opacity="0"/>
    </radialGradient>
    <linearGradient id="bt_body" x1="60" y1="60" x2="140" y2="160" gradientUnits="userSpaceOnUse">
      <stop offset="0" stop-color="#9ca3af"/>
      <stop offset="1" stop-color="#4b5563"/>
    </linearGradient>
  </defs>
  <rect width="200" height="200" rx="24" fill="url(#bt_bg)"/>
  <rect width="200" height="200" rx="24" fill="url(#bt_glow)"/>
  <path d="M44 154c18 24 48 38 56 38s38-14 56-38c-26-8-34-22-38-36-4-12-10-30-18-30h-0.5c-8 0-14 18-18 30-4 14-12 28-38 36Z" fill="#0f172a" opacity="0.5"/>
  <path d="M60 64c-12 12-18 28-18 46 0 26 20 44 58 44s58-18 58-44c0-18-6-34-18-46l-18 24-22-6-22 6-18-24Z" fill="url(#bt_body)"/>
  <path d="M100 36c-18 0-32 14-32 36 0 14 8 22 14 26l-8 34 26 16 26-16-8-34c6-4 14-12 14-26 0-22-14-36-32-36Z" fill="#e5e7eb"/>
  <path d="M72 102c10 14 20 20 28 20s18-6 28-20c-8-16-18-24-28-24s-20 8-28 24Z" fill="#6b7280" opacity="0.5"/>
  <path d="M84 134c-12 0-22 8-22 18 0 8 6 14 16 14 14 0 26-8 26-18 0-8-10-14-20-14Z" fill="#1f2937" opacity="0.5"/>
  <path d="M116 134c-10 0-20 6-20 14 0 10 12 18 26 18 10 0 16-6 16-14 0-10-10-18-22-18Z" fill="#1f2937" opacity="0.4"/>
  <path d="M84 68c-6 0-12 4-12 10 0 6 6 12 12 12s12-6 12-12c0-6-6-10-12-10Z" fill="#111827"/>
  <path d="M116 68c-6 0-12 4-12 10 0 6 6 12 12 12s12-6 12-12c0-6-6-10-12-10Z" fill="#111827"/>
  <path d="M92 128c0 12 8 18 8 18s8-6 8-18c0-10-8-20-8-20s-8 10-8 20Z" fill="#d1d5db"/>
  <path d="M100 150c-8 0-12 4-12 8s4 10 12 10 12-6 12-10-4-8-12-8Z" fill="#4b5563"/>
  <path d="M70 92c-10-14-14-32-2-46 6 10 18 18 32 20-12 6-20 12-30 26Z" fill="#e5e7eb" opacity="0.6"/>
  <path d="M130 92c-10-14-18-20-30-26 14-2 26-10 32-20 12 14 8 32-2 46Z" fill="#e5e7eb" opacity="0.6"/>
  <path d="M88 62c-4 0-6 2-6 4s2 4 6 4 6-2 6-4-2-4-6-4Z" fill="#f9fafb"/>
  <path d="M112 62c-4 0-6 2-6 4s2 4 6 4 6-2 6-4-2-4-6-4Z" fill="#f9fafb"/>
  <path d="M72 156c-4 0-10 2-10 7s6 7 10 7 8-4 8-7-4-7-8-7Z" fill="#9ca3af"/>
  <path d="M128 156c-4 0-8 4-8 7s4 7 8 7 10-2 10-7-6-7-10-7Z" fill="#9ca3af"/>
  <path d="M100 86c-4 0-6 2-6 6s2 6 6 6 6-2 6-6-2-6-6-6Z" fill="#111827"/>
</svg>
