<svg xmlns="http://www.w3.org/2000/svg" viewBox="0 0 32 32" shape-rendering="crispEdges" role="img" aria-label="Waldgoblin pixel art">
  <rect width="32" height="32" fill="none"/>
  <rect x="3" y="25" width="26" height="2" fill="#021410" opacity="0.45"/>
  <rect x="7" y="5" width="18" height="4" fill="#166534"/>
  <rect x="10" y="4" width="12" height="2" fill="#22c55e"/>
  <rect x="5" y="9" width="22" height="11" fill="#14532d"/>
  <rect x="8" y="10" width="16" height="9" fill="#15803d"/>
  <rect x="10" y="11" width="12" height="5" fill="#34d399"/>
  <rect x="9" y="9" width="4" height="2" fill="#052e16"/>
  <rect x="19" y="9" width="4" height="2" fill="#052e16"/>
  <rect x="13" y="14" width="2" height="2" fill="#052e16"/>
  <rect x="17" y="14" width="2" height="2" fill="#052e16"/>
  <rect x="8" y="19" width="16" height="5" fill="#0f172a"/>
  <rect x="9" y="20" width="14" height="4" fill="#1f2937"/>
  <rect x="10" y="20" width="4" height="6" fill="#0b1120"/>
  <rect x="18" y="20" width="4" height="6" fill="#0b1120"/>
  <rect x="6" y="12" width="3" height="4" fill="#15803d"/>
  <rect x="23" y="12" width="3" height="4" fill="#15803d"/>
  <rect x="5" y="16" width="4" height="4" fill="#14532d"/>
  <rect x="23" y="16" width="4" height="4" fill="#14532d"/>
  <rect x="11" y="8" width="10" height="1" fill="#bef264"/>
  <rect x="12" y="7" width="8" height="1" fill="#d9f99d"/>
  <rect x="4" y="8" width="4" height="2" fill="#78350f"/>
  <rect x="24" y="8" width="4" height="2" fill="#78350f"/>
  <rect x="4" y="7" width="3" height="1" fill="#92400e"/>
  <rect x="25" y="7" width="3" height="1" fill="#92400e"/>
  <rect x="4" y="6" width="2" height="1" fill="#facc15"/>
  <rect x="26" y="6" width="2" height="1" fill="#facc15"/>
</svg>
