<svg viewBox="0 0 160 160" xmlns="http://www.w3.org/2000/svg" role="img" aria-labelledby="title desc">
  <title id="title">Kobold Scout</title>
  <desc id="desc">A mischievous green kobold scout with a leather hood and glowing amber eyes.</desc>
  <defs>
    <linearGradient id="kobold-bg" x1="0%" y1="0%" x2="0%" y2="100%">
      <stop offset="0%" stop-color="#1b2b1f"/>
      <stop offset="70%" stop-color="#0f1a14"/>
      <stop offset="100%" stop-color="#0a1410"/>
    </linearGradient>
    <linearGradient id="kobold-skin" x1="0%" y1="0%" x2="100%" y2="100%">
      <stop offset="0%" stop-color="#64d27a"/>
      <stop offset="50%" stop-color="#36b56b"/>
      <stop offset="100%" stop-color="#1f8f4f"/>
    </linearGradient>
    <linearGradient id="kobold-hood" x1="0%" y1="0%" x2="100%" y2="100%">
      <stop offset="0%" stop-color="#3f3327"/>
      <stop offset="40%" stop-color="#2b2219"/>
      <stop offset="100%" stop-color="#1a150f"/>
    </linearGradient>
    <radialGradient id="kobold-eye" cx="50%" cy="50%" r="50%">
      <stop offset="0%" stop-color="#fcd34d"/>
      <stop offset="100%" stop-color="#f59e0b"/>
    </radialGradient>
    <filter id="kobold-shadow" x="-20%" y="-20%" width="140%" height="140%">
      <feDropShadow dx="0" dy="5" stdDeviation="6" flood-color="#051007" flood-opacity="0.75"/>
    </filter>
  </defs>
  <rect width="160" height="160" rx="28" fill="url(#kobold-bg)"/>
  <g filter="url(#kobold-shadow)">
    <path d="M36 130 Q20 82 44 56 Q60 38 80 36 Q100 38 116 56 Q140 82 124 130" fill="url(#kobold-hood)"/>
    <path d="M48 52 Q66 40 80 40 Q94 40 112 52 L104 78 Q96 94 80 96 Q64 94 56 78 Z" fill="url(#kobold-skin)" stroke="#0f1a14" stroke-width="2"/>
    <path d="M52 78 Q64 120 48 130 Q32 120 40 90 Z" fill="url(#kobold-skin)" stroke="#0f1a14" stroke-width="1.6"/>
    <path d="M108 78 Q96 120 112 130 Q128 120 120 90 Z" fill="url(#kobold-skin)" stroke="#0f1a14" stroke-width="1.6"/>
    <path d="M60 96 Q72 112 80 114 Q88 112 100 96 L104 132 Q92 140 80 142 Q68 140 56 132 Z" fill="#215d3c" stroke="#0b2d1d" stroke-width="2"/>
    <ellipse cx="64" cy="74" rx="8" ry="10" fill="#0f1a14"/>
    <ellipse cx="96" cy="74" rx="8" ry="10" fill="#0f1a14"/>
    <circle cx="64" cy="74" r="4.6" fill="url(#kobold-eye)"/>
    <circle cx="96" cy="74" r="4.6" fill="url(#kobold-eye)"/>
    <path d="M64 108 Q80 118 96 108" fill="none" stroke="#0f1a14" stroke-width="2.4" stroke-linecap="round"/>
    <path d="M40 60 Q58 46 66 36 Q58 72 48 82 Z" fill="#4d3a29"/>
    <path d="M120 60 Q102 46 94 36 Q102 72 112 82 Z" fill="#4d3a29"/>
  </g>
</svg>
