<svg xmlns="http://www.w3.org/2000/svg" viewBox="0 0 32 32" shape-rendering="crispEdges">
  <rect width="32" height="32" fill="none"/>
  <rect x="6" y="27" width="20" height="3" fill="#041a12" opacity="0.55"/>
  <rect x="8" y="6" width="16" height="4" fill="#166534"/>
  <rect x="7" y="10" width="18" height="6" fill="#22c55e"/>
  <rect x="6" y="16" width="20" height="6" fill="#16a34a"/>
  <rect x="9" y="22" width="4" height="6" fill="#15803d"/>
  <rect x="19" y="22" width="4" height="6" fill="#15803d"/>
  <rect x="11" y="12" width="2" height="2" fill="#052e16"/>
  <rect x="19" y="12" width="2" height="2" fill="#052e16"/>
  <rect x="12" y="17" width="8" height="3" fill="#052e16"/>
  <rect x="5" y="12" width="4" height="3" fill="#86efac"/>
  <rect x="23" y="12" width="4" height="3" fill="#86efac"/>
  <rect x="13" y="4" width="6" height="2" fill="#facc15"/>
  <rect x="14" y="2" width="4" height="2" fill="#fde047"/>
  <rect x="12" y="22" width="3" height="6" fill="#bbf7d0"/>
  <rect x="17" y="22" width="3" height="6" fill="#bbf7d0"/>
</svg>
