<svg viewBox="0 0 64 64" xmlns="http://www.w3.org/2000/svg" role="img" aria-hidden="true" shape-rendering="crispEdges">
  <rect width="64" height="64" fill="none"/>
  <g opacity="0.85">
    <rect x="18" y="56" width="28" height="4" fill="rgba(15,23,42,0.55)"/>
    <rect x="20" y="55" width="24" height="1" fill="rgba(74,222,128,0.2)"/>
  </g>
  <g>
    <rect x="22" y="8" width="6" height="6" fill="#22c55e"/>
    <rect x="36" y="8" width="6" height="6" fill="#22c55e"/>
    <rect x="24" y="10" width="16" height="12" fill="#4ade80" stroke="#15803d" stroke-width="1"/>
    <rect x="22" y="22" width="20" height="18" fill="#16a34a" stroke="#166534" stroke-width="1"/>
    <rect x="24" y="40" width="16" height="10" fill="#15803d" stroke="#14532d" stroke-width="1"/>
  </g>
  <g>
    <rect x="28" y="16" width="4" height="2" fill="#022c22"/>
    <rect x="34" y="16" width="4" height="2" fill="#022c22"/>
    <rect x="30" y="20" width="6" height="2" fill="#14532d"/>
    <rect x="28" y="12" width="4" height="2" fill="#bbf7d0"/>
    <rect x="34" y="12" width="4" height="2" fill="#bbf7d0"/>
  </g>
  <g>
    <rect x="22" y="28" width="20" height="4" fill="#0f172a" opacity="0.3"/>
    <rect x="28" y="34" width="8" height="2" fill="#34d399"/>
    <rect x="30" y="36" width="4" height="2" fill="#22c55e"/>
  </g>
  <g>
    <rect x="24" y="46" width="6" height="10" fill="#15803d" stroke="#14532d" stroke-width="1"/>
    <rect x="34" y="46" width="6" height="10" fill="#15803d" stroke="#14532d" stroke-width="1"/>
    <rect x="22" y="56" width="8" height="4" fill="#0f172a"/>
    <rect x="34" y="56" width="8" height="4" fill="#0f172a"/>
  </g>
  <g>
    <rect x="12" y="24" width="8" height="6" fill="#16a34a" stroke="#14532d" stroke-width="1"/>
    <rect x="10" y="16" width="6" height="18" fill="#22c55e" stroke="#14532d" stroke-width="1"/>
    <rect x="8" y="14" width="4" height="20" fill="#064e3b"/>
    <rect x="6" y="10" width="4" height="24" fill="#451a03"/>
    <rect x="4" y="8" width="4" height="6" fill="#78350f"/>
  </g>
  <g>
    <rect x="44" y="18" width="10" height="8" fill="#15803d" stroke="#166534" stroke-width="1"/>
    <rect x="46" y="16" width="6" height="22" fill="#78350f"/>
    <rect x="52" y="14" width="4" height="24" fill="#431407"/>
    <rect x="48" y="36" width="10" height="6" fill="#a16207"/>
    <rect x="50" y="32" width="6" height="4" fill="#fde68a"/>
  </g>
</svg>
