<svg viewBox="0 0 64 64" xmlns="http://www.w3.org/2000/svg" role="img" aria-hidden="true" shape-rendering="crispEdges">
  <rect width="64" height="64" fill="none"/>
  <g opacity="0.92">
    <rect x="18" y="56" width="28" height="4" fill="rgba(15,23,42,0.82)"/>
    <rect x="20" y="55" width="24" height="1" fill="rgba(248,113,113,0.22)"/>
  </g>
  <g>
    <rect x="22" y="8" width="8" height="6" fill="#b91c1c"/>
    <rect x="34" y="8" width="8" height="6" fill="#b91c1c"/>
    <rect x="24" y="10" width="16" height="12" fill="#ef4444" stroke="#991b1b" stroke-width="1"/>
    <rect x="22" y="22" width="20" height="18" fill="#7f1d1d" stroke="#450a0a" stroke-width="1"/>
    <rect x="24" y="40" width="16" height="10" fill="#450a0a" stroke="#1f0707" stroke-width="1"/>
  </g>
  <g>
    <rect x="28" y="16" width="4" height="2" fill="#facc15"/>
    <rect x="34" y="16" width="4" height="2" fill="#facc15"/>
    <rect x="30" y="20" width="6" height="2" fill="#f97316"/>
    <rect x="28" y="12" width="4" height="2" fill="#fee2e2"/>
    <rect x="34" y="12" width="4" height="2" fill="#fee2e2"/>
  </g>
  <g>
    <rect x="22" y="28" width="20" height="4" fill="#facc15" opacity="0.35"/>
    <rect x="26" y="34" width="12" height="2" fill="#f97316"/>
    <rect x="28" y="36" width="8" height="2" fill="#fb7185"/>
  </g>
  <g>
    <rect x="24" y="46" width="6" height="10" fill="#991b1b" stroke="#450a0a" stroke-width="1"/>
    <rect x="34" y="46" width="6" height="10" fill="#991b1b" stroke="#450a0a" stroke-width="1"/>
    <rect x="22" y="56" width="8" height="4" fill="#1f0707"/>
    <rect x="34" y="56" width="8" height="4" fill="#1f0707"/>
  </g>
  <g>
    <rect x="12" y="24" width="8" height="8" fill="#7f1d1d" stroke="#450a0a" stroke-width="1"/>
    <rect x="10" y="18" width="6" height="18" fill="#991b1b" stroke="#450a0a" stroke-width="1"/>
    <rect x="8" y="16" width="4" height="20" fill="#450a0a"/>
    <rect x="6" y="14" width="4" height="22" fill="#111827"/>
    <rect x="4" y="12" width="4" height="8" fill="#22c55e"/>
  </g>
  <g>
    <rect x="44" y="18" width="10" height="10" fill="#7f1d1d" stroke="#450a0a" stroke-width="1"/>
    <rect x="46" y="16" width="6" height="24" fill="#991b1b"/>
    <rect x="52" y="14" width="6" height="22" fill="#111827"/>
    <rect x="48" y="32" width="10" height="4" fill="#f97316"/>
    <rect x="50" y="20" width="6" height="4" fill="#facc15"/>
    <rect x="52" y="10" width="4" height="4" fill="#22c55e"/>
  </g>
  <g>
    <rect x="22" y="6" width="6" height="4" fill="#fb7185"/>
    <rect x="36" y="6" width="6" height="4" fill="#fb7185"/>
  </g>
</svg>
