<svg width="200" height="200" viewBox="0 0 200 200" fill="none" xmlns="http://www.w3.org/2000/svg">
  <defs>
    <linearGradient id="sg_bg" x1="24" y1="14" x2="176" y2="186" gradientUnits="userSpaceOnUse">
      <stop offset="0" stop-color="#020617"/>
      <stop offset="0.4" stop-color="#0f172a"/>
      <stop offset="1" stop-color="#1f2937"/>
    </linearGradient>
    <radialGradient id="sg_glow" cx="0" cy="0" r="1" gradientUnits="userSpaceOnUse" gradientTransform="translate(100 90) scale(86 72)">
      <stop offset="0" stop-color="#38bdf8" stop-opacity="0.5"/>
      <stop offset="1" stop-color="#0f172a" stop-opacity="0"/>
    </radialGradient>
    <linearGradient id="sg_body" x1="64" y1="66" x2="136" y2="158" gradientUnits="userSpaceOnUse">
      <stop offset="0" stop-color="#1f2937"/>
      <stop offset="1" stop-color="#0f172a"/>
    </linearGradient>
  </defs>
  <rect width="200" height="200" rx="24" fill="url(#sg_bg)"/>
  <rect width="200" height="200" rx="24" fill="url(#sg_glow)"/>
  <path d="M40 154c18 26 44 38 60 38s42-12 60-38c-24-10-34-22-38-34-4-12-10-28-22-28h-0.5c-12 0-18 16-22 28-4 12-14 24-38 34Z" fill="#010b17" opacity="0.6"/>
  <path d="M62 66c-12 10-20 26-20 40 0 28 26 46 58 46s58-18 58-46c0-14-8-30-20-40l-18 20-20-6-20 6-18-20Z" fill="url(#sg_body)"/>
  <path d="M100 42c-18 0-30 12-30 34 0 12 6 18 14 22l-6 28 22 14 22-14-6-28c8-4 14-10 14-22 0-22-12-34-30-34Z" fill="#e2e8f0"/>
  <path d="M74 104c8 14 18 20 26 20s18-6 26-20c-8-14-16-22-26-22s-18 8-26 22Z" fill="#38bdf8" opacity="0.45"/>
  <path d="M84 132c-10 0-18 8-18 16 0 8 6 14 14 14 12 0 22-8 22-16 0-8-8-14-18-14Z" fill="#020617" opacity="0.55"/>
  <path d="M116 132c-10 0-18 6-18 14 0 8 10 16 22 16 8 0 14-6 14-14 0-8-8-16-18-16Z" fill="#020617" opacity="0.5"/>
  <path d="M86 72c-6 0-10 4-10 10 0 6 4 10 10 10s10-4 10-10c0-6-4-10-10-10Z" fill="#020617"/>
  <path d="M114 72c-6 0-10 4-10 10 0 6 4 10 10 10s10-4 10-10c0-6-4-10-10-10Z" fill="#020617"/>
  <path d="M90 124c0 10 8 16 10 16s10-6 10-16-8-18-10-18-10 8-10 18Z" fill="#f8fafc"/>
  <path d="M100 142c-6 0-10 4-10 8s4 8 10 8 10-4 10-8-4-8-10-8Z" fill="#38bdf8"/>
  <path d="M72 92c-8-12-14-26-4-38 6 10 18 16 28 18-10 4-18 10-24 20Z" fill="#e2e8f0" opacity="0.6"/>
  <path d="M128 92c-6-10-14-16-24-20 10-2 22-8 28-18 10 12 4 26-4 38Z" fill="#e2e8f0" opacity="0.5"/>
  <path d="M84 66c-4 0-6 2-6 4s2 4 6 4 6-2 6-4-2-4-6-4Z" fill="#f8fafc"/>
  <path d="M116 66c-4 0-6 2-6 4s2 4 6 4 6-2 6-4-2-4-6-4Z" fill="#f8fafc"/>
  <path d="M70 150c-4 0-8 4-8 8s4 6 8 6 8-2 8-6-4-8-8-8Z" fill="#0ea5e9"/>
  <path d="M130 150c-4 0-8 4-8 8s4 6 8 6 8-2 8-6-4-8-8-8Z" fill="#0ea5e9"/>
  <path d="M100 82c-4 0-6 2-6 6s2 6 6 6 6-2 6-6-2-6-6-6Z" fill="#020617"/>
</svg>
