<svg xmlns="http://www.w3.org/2000/svg" viewBox="0 0 32 32" shape-rendering="crispEdges">
  <rect width="32" height="32" fill="none"/>
  <rect x="6" y="27" width="20" height="3" fill="#09090b" opacity="0.6"/>
  <rect x="8" y="4" width="16" height="6" fill="#4b5563"/>
  <rect x="7" y="10" width="18" height="6" fill="#6b7280"/>
  <rect x="6" y="16" width="20" height="6" fill="#475569"/>
  <rect x="9" y="22" width="4" height="7" fill="#334155"/>
  <rect x="19" y="22" width="4" height="7" fill="#334155"/>
  <rect x="11" y="12" width="2" height="2" fill="#1f2937"/>
  <rect x="19" y="12" width="2" height="2" fill="#1f2937"/>
  <rect x="12" y="17" width="8" height="3" fill="#1f2937"/>
  <rect x="5" y="13" width="4" height="3" fill="#e2e8f0"/>
  <rect x="23" y="13" width="4" height="3" fill="#e2e8f0"/>
  <rect x="10" y="5" width="12" height="3" fill="#9ca3af"/>
  <rect x="9" y="3" width="14" height="2" fill="#d1d5db"/>
  <rect x="13" y="21" width="6" height="8" fill="#1f2937"/>
  <rect x="12" y="22" width="2" height="6" fill="#a855f7"/>
  <rect x="18" y="22" width="2" height="6" fill="#a855f7"/>
  <rect x="12" y="6" width="8" height="2" fill="#111827" opacity="0.4"/>
</svg>
