<svg xmlns="http://www.w3.org/2000/svg" viewBox="0 0 32 32" shape-rendering="crispEdges" role="img" aria-label="Gruener Goblin pixel art">
  <rect width="32" height="32" fill="none"/>
  <rect x="4" y="24" width="24" height="2" fill="#041012" opacity="0.45"/>
  <rect x="7" y="5" width="18" height="4" fill="#15803d"/>
  <rect x="9" y="4" width="14" height="2" fill="#4ade80"/>
  <rect x="6" y="9" width="20" height="10" fill="#166534"/>
  <rect x="8" y="10" width="16" height="8" fill="#22c55e"/>
  <rect x="11" y="11" width="10" height="4" fill="#86efac"/>
  <rect x="10" y="9" width="4" height="2" fill="#052e16"/>
  <rect x="18" y="9" width="4" height="2" fill="#052e16"/>
  <rect x="13" y="14" width="2" height="2" fill="#052e16"/>
  <rect x="17" y="14" width="2" height="2" fill="#052e16"/>
  <rect x="9" y="18" width="14" height="5" fill="#0f172a"/>
  <rect x="10" y="19" width="12" height="4" fill="#1f2937"/>
  <rect x="11" y="19" width="4" height="6" fill="#082f49"/>
  <rect x="17" y="19" width="4" height="6" fill="#082f49"/>
  <rect x="7" y="13" width="3" height="4" fill="#16a34a"/>
  <rect x="22" y="13" width="3" height="4" fill="#16a34a"/>
  <rect x="6" y="11" width="2" height="3" fill="#4ade80"/>
  <rect x="24" y="11" width="2" height="3" fill="#4ade80"/>
  <rect x="12" y="4" width="8" height="1" fill="#bef264"/>
  <rect x="14" y="2" width="4" height="2" fill="#a3e635"/>
  <rect x="13" y="3" width="6" height="1" fill="#d9f99d"/>
</svg>
