<svg viewBox="0 0 64 64" xmlns="http://www.w3.org/2000/svg" role="img" aria-hidden="true" shape-rendering="crispEdges">
  <rect width="64" height="64" fill="none"/>
  <g opacity="0.85">
    <rect x="16" y="56" width="32" height="4" fill="rgba(15,23,42,0.7)"/>
    <rect x="18" y="55" width="28" height="1" fill="rgba(203,213,225,0.2)"/>
  </g>
  <g>
    <rect x="22" y="8" width="20" height="14" fill="#94a3b8" stroke="#475569" stroke-width="1"/>
    <rect x="20" y="22" width="24" height="20" fill="#64748b" stroke="#334155" stroke-width="1"/>
    <rect x="22" y="42" width="20" height="10" fill="#475569" stroke="#1f2937" stroke-width="1"/>
  </g>
  <g>
    <rect x="28" y="16" width="4" height="2" fill="#1f2937"/>
    <rect x="34" y="16" width="4" height="2" fill="#1f2937"/>
    <rect x="30" y="20" width="6" height="2" fill="#0f172a"/>
    <rect x="28" y="12" width="4" height="2" fill="#e2e8f0"/>
    <rect x="34" y="12" width="4" height="2" fill="#e2e8f0"/>
  </g>
  <g>
    <rect x="20" y="30" width="24" height="4" fill="#0f172a" opacity="0.3"/>
    <rect x="26" y="36" width="12" height="2" fill="#cbd5f5"/>
    <rect x="28" y="38" width="8" height="2" fill="#a8b4c4"/>
  </g>
  <g>
    <rect x="24" y="48" width="6" height="10" fill="#475569" stroke="#1f2937" stroke-width="1"/>
    <rect x="34" y="48" width="6" height="10" fill="#475569" stroke="#1f2937" stroke-width="1"/>
    <rect x="22" y="58" width="8" height="4" fill="#111827"/>
    <rect x="34" y="58" width="8" height="4" fill="#111827"/>
  </g>
  <g>
    <rect x="10" y="22" width="10" height="10" fill="#64748b" stroke="#334155" stroke-width="1"/>
    <rect x="8" y="18" width="6" height="22" fill="#475569" stroke="#1f2937" stroke-width="1"/>
    <rect x="6" y="16" width="4" height="24" fill="#1f2937"/>
    <rect x="4" y="14" width="4" height="6" fill="#cbd5f5"/>
  </g>
  <g>
    <rect x="44" y="18" width="12" height="12" fill="#334155" stroke="#111827" stroke-width="1"/>
    <rect x="52" y="16" width="4" height="8" fill="#94a3b8"/>
    <rect x="50" y="24" width="4" height="22" fill="#1f2937"/>
    <rect x="52" y="24" width="4" height="22" fill="#334155"/>
    <rect x="54" y="10" width="6" height="6" fill="#cbd5f5"/>
    <rect x="50" y="40" width="8" height="8" fill="#94a3b8"/>
  </g>
</svg>
