<svg viewBox="0 0 64 64" xmlns="http://www.w3.org/2000/svg" role="img" aria-hidden="true" shape-rendering="crispEdges">
  <rect width="64" height="64" fill="none"/>
  <g opacity="0.85">
    <rect x="18" y="56" width="28" height="4" fill="rgba(15,23,42,0.55)"/>
    <rect x="20" y="55" width="24" height="1" fill="rgba(253,186,116,0.18)"/>
  </g>
  <g>
    <rect x="22" y="8" width="8" height="4" fill="#f97316"/>
    <rect x="34" y="8" width="8" height="4" fill="#f97316"/>
    <rect x="24" y="10" width="16" height="12" fill="#fb923c" stroke="#c2410c" stroke-width="1"/>
    <rect x="22" y="22" width="20" height="18" fill="#f97316" stroke="#9a3412" stroke-width="1"/>
    <rect x="24" y="40" width="16" height="10" fill="#b45309" stroke="#7c2d12" stroke-width="1"/>
  </g>
  <g>
    <rect x="28" y="16" width="4" height="2" fill="#451a03"/>
    <rect x="34" y="16" width="4" height="2" fill="#451a03"/>
    <rect x="30" y="20" width="6" height="2" fill="#7c2d12"/>
    <rect x="28" y="12" width="4" height="2" fill="#fed7aa"/>
    <rect x="34" y="12" width="4" height="2" fill="#fed7aa"/>
  </g>
  <g>
    <rect x="22" y="28" width="20" height="4" fill="#111827" opacity="0.3"/>
    <rect x="26" y="34" width="12" height="2" fill="#fcd34d"/>
    <rect x="28" y="36" width="8" height="2" fill="#f97316"/>
  </g>
  <g>
    <rect x="24" y="46" width="6" height="10" fill="#b45309" stroke="#7c2d12" stroke-width="1"/>
    <rect x="34" y="46" width="6" height="10" fill="#b45309" stroke="#7c2d12" stroke-width="1"/>
    <rect x="22" y="56" width="8" height="4" fill="#1f2937"/>
    <rect x="34" y="56" width="8" height="4" fill="#1f2937"/>
  </g>
  <g>
    <rect x="12" y="24" width="8" height="8" fill="#ea580c" stroke="#7c2d12" stroke-width="1"/>
    <rect x="10" y="20" width="6" height="18" fill="#fb923c" stroke="#9a3412" stroke-width="1"/>
    <rect x="8" y="18" width="4" height="20" fill="#7c2d12"/>
    <rect x="6" y="10" width="4" height="26" fill="#1f2937"/>
    <rect x="4" y="8" width="4" height="6" fill="#64748b"/>
  </g>
  <g>
    <rect x="44" y="18" width="10" height="10" fill="#78350f" stroke="#451a03" stroke-width="1"/>
    <rect x="46" y="16" width="6" height="26" fill="#451a03"/>
    <rect x="52" y="14" width="4" height="30" fill="#111827"/>
    <rect x="50" y="40" width="8" height="6" fill="#fde68a"/>
    <rect x="48" y="20" width="4" height="10" fill="#fcd34d"/>
  </g>
</svg>
