<svg xmlns="http://www.w3.org/2000/svg" viewBox="0 0 120 120" role="img" aria-labelledby="title">
  <title>Waldgoblin</title>
  <defs>
    <linearGradient id="wald-bg" x1="12" y1="4" x2="108" y2="116" gradientUnits="userSpaceOnUse">
      <stop offset="0" stop-color="#123a1a"/>
      <stop offset="1" stop-color="#041106"/>
    </linearGradient>
    <linearGradient id="wald-skin" x1="36" y1="24" x2="96" y2="92" gradientUnits="userSpaceOnUse">
      <stop offset="0" stop-color="#8cf278"/>
      <stop offset="1" stop-color="#1c6b26"/>
    </linearGradient>
  </defs>
  <rect width="120" height="120" rx="28" fill="url(#wald-bg)"/>
  <path d="M60 18c-6 7-15 11-24 12 5 7 13 11 24 11s19-4 24-11c-9-1-18-5-24-12z" fill="#84d747" stroke="#1b4615" stroke-width="3"/>
  <path d="M28 54c-7-12-5-25 7-34-1 8 2 18 6 23-5-1-9 0-13 11z" fill="#2d8a38" stroke="#0f2d11" stroke-width="2"/>
  <path d="M92 54c7-12 5-25-7-34 1 8-2 18-6 23 5-1 9 0 13 11z" fill="#1c5f23" stroke="#071a07" stroke-width="2"/>
  <circle cx="60" cy="64" r="34" fill="url(#wald-skin)" stroke="#08220d" stroke-width="4"/>
  <path d="M36 78c7 8 15 12 24 12s17-4 24-12" fill="none" stroke="#08220d" stroke-width="3" stroke-linecap="round"/>
  <path d="M41 59c-3-1-5-4-5-7s3-6 7-5 9 5 10 10c-4 1-8 3-12 2zm38 0c3-1 5-4 5-7s-3-6-7-5-9 5-10 10c4 1 8 3 12 2z" fill="#052c0c"/>
  <path d="M50 86c4 2 7 3 10 3s6-1 10-3" stroke="#0f3a14" stroke-width="3" stroke-linecap="round"/>
  <path d="M30 86c4-5 11-8 18-8m42 8c-4-5-11-8-18-8" stroke="#2a5125" stroke-width="3" stroke-linecap="round"/>
  <path d="M52 69c3 3 5 4 8 4s5-1 8-4" fill="none" stroke="#b8ff8d" stroke-width="2" stroke-linecap="round"/>
  <circle cx="47" cy="57" r="4" fill="#d5ffb0"/>
  <circle cx="73" cy="57" r="4" fill="#d5ffb0"/>
</svg>
