<svg viewBox="0 0 160 160" xmlns="http://www.w3.org/2000/svg" role="img" aria-labelledby="title desc">
  <title id="title">Hobgoblin Captain</title>
  <desc id="desc">An armored hobgoblin captain with crimson war paint and iron helm.</desc>
  <defs>
    <linearGradient id="hg-bg" x1="0%" y1="0%" x2="0%" y2="100%">
      <stop offset="0%" stop-color="#2d1f1f"/>
      <stop offset="100%" stop-color="#120909"/>
    </linearGradient>
    <linearGradient id="hg-skin" x1="0%" y1="0%" x2="100%" y2="100%">
      <stop offset="0%" stop-color="#f87171"/>
      <stop offset="50%" stop-color="#d94848"/>
      <stop offset="100%" stop-color="#9f1d1d"/>
    </linearGradient>
    <linearGradient id="hg-armor" x1="0%" y1="0%" x2="100%" y2="100%">
      <stop offset="0%" stop-color="#cbd5f5"/>
      <stop offset="50%" stop-color="#94a3b8"/>
      <stop offset="100%" stop-color="#64748b"/>
    </linearGradient>
    <linearGradient id="hg-cape" x1="0%" y1="0%" x2="100%" y2="100%">
      <stop offset="0%" stop-color="#9b1c1c"/>
      <stop offset="100%" stop-color="#4c0519"/>
    </linearGradient>
    <radialGradient id="hg-eye" cx="50%" cy="50%" r="50%">
      <stop offset="0%" stop-color="#facc15"/>
      <stop offset="100%" stop-color="#f97316"/>
    </radialGradient>
    <filter id="hg-shadow" x="-20%" y="-20%" width="140%" height="140%">
      <feDropShadow dx="0" dy="6" stdDeviation="8" flood-color="#08040a" flood-opacity="0.78"/>
    </filter>
  </defs>
  <rect width="160" height="160" rx="26" fill="url(#hg-bg)"/>
  <g filter="url(#hg-shadow)">
    <path d="M36 134 Q22 92 48 54 Q66 30 80 28 Q94 30 112 54 Q138 92 124 134" fill="url(#hg-cape)"/>
    <path d="M48 60 Q70 44 80 44 Q90 44 112 60 L104 92 Q94 110 80 112 Q66 110 56 92 Z" fill="url(#hg-skin)" stroke="#220d0d" stroke-width="2"/>
    <path d="M56 94 Q66 130 48 140 Q30 128 40 100 Z" fill="url(#hg-skin)" stroke="#220d0d" stroke-width="1.8"/>
    <path d="M104 94 Q94 130 112 140 Q130 128 120 100 Z" fill="url(#hg-skin)" stroke="#220d0d" stroke-width="1.8"/>
    <path d="M60 114 Q74 128 80 130 Q86 128 100 114 L104 142 Q90 150 80 152 Q70 150 56 142 Z" fill="url(#hg-armor)" stroke="#1f2937" stroke-width="2"/>
    <path d="M54 58 L80 38 L106 58 L102 70 Q92 62 80 62 Q68 62 58 70 Z" fill="url(#hg-armor)" stroke="#1f2937" stroke-width="2"/>
    <path d="M70 48 L80 44 L90 48 L88 56 Q80 52 72 56 Z" fill="#0f172a" opacity="0.65"/>
    <path d="M60 76 L80 82 L100 76 Q100 82 96 88 Q80 98 64 88 Q60 82 60 76 Z" fill="#1f2937"/>
    <path d="M64 76 A8 10 0 0 1 80 72 A8 10 0 0 1 96 76" fill="#0f172a"/>
    <circle cx="68" cy="78" r="5" fill="url(#hg-eye)"/>
    <circle cx="92" cy="78" r="5" fill="url(#hg-eye)"/>
    <path d="M60 100 Q80 112 100 100" fill="none" stroke="#220d0d" stroke-width="3" stroke-linecap="round"/>
    <path d="M70 86 L80 88 L90 86" fill="none" stroke="#fca5a5" stroke-width="3" stroke-linecap="round"/>
    <path d="M70 120 L80 122 L90 120" fill="none" stroke="#1f2937" stroke-width="2" stroke-linecap="round"/>
  </g>
</svg>
