<svg width="200" height="200" viewBox="0 0 200 200" fill="none" xmlns="http://www.w3.org/2000/svg">
  <defs>
    <linearGradient id="dg_bg" x1="30" y1="12" x2="170" y2="188" gradientUnits="userSpaceOnUse">
      <stop offset="0" stop-color="#020617"/>
      <stop offset="0.4" stop-color="#1e1b4b"/>
      <stop offset="1" stop-color="#4338ca"/>
    </linearGradient>
    <radialGradient id="dg_glow" cx="0" cy="0" r="1" gradientUnits="userSpaceOnUse" gradientTransform="translate(100 92) scale(88 72)">
      <stop offset="0" stop-color="#a855f7" stop-opacity="0.55"/>
      <stop offset="1" stop-color="#312e81" stop-opacity="0"/>
    </radialGradient>
    <linearGradient id="dg_body" x1="64" y1="68" x2="136" y2="160" gradientUnits="userSpaceOnUse">
      <stop offset="0" stop-color="#7c3aed"/>
      <stop offset="1" stop-color="#4c1d95"/>
    </linearGradient>
  </defs>
  <rect width="200" height="200" rx="24" fill="url(#dg_bg)"/>
  <rect width="200" height="200" rx="24" fill="url(#dg_glow)"/>
  <path d="M46 154c18 26 46 38 54 38s36-12 54-38c-22-10-30-22-34-34-4-12-10-28-20-28h-0.5c-10 0-16 16-20 28-4 12-12 24-34 34Z" fill="#0f172a" opacity="0.55"/>
  <path d="M64 70c-12 12-18 26-18 42 0 28 22 44 54 44s54-16 54-44c0-16-6-30-18-42l-16 22-20-6-20 6-16-22Z" fill="url(#dg_body)"/>
  <path d="M100 44c-18 0-30 12-30 34 0 12 6 18 14 22l-6 28 22 14 22-14-6-28c8-4 14-10 14-22 0-22-12-34-30-34Z" fill="#ede9fe"/>
  <path d="M74 106c8 14 18 20 26 20s18-6 26-20c-8-14-16-22-26-22s-18 8-26 22Z" fill="#5b21b6" opacity="0.5"/>
  <path d="M84 132c-10 0-18 8-18 16 0 8 6 14 14 14 12 0 22-8 22-16 0-8-8-14-18-14Z" fill="#1e1b4b" opacity="0.45"/>
  <path d="M116 132c-10 0-18 6-18 14 0 8 10 16 22 16 8 0 14-6 14-14 0-8-8-16-18-16Z" fill="#1e1b4b" opacity="0.4"/>
  <path d="M86 74c-6 0-10 4-10 10 0 6 4 10 10 10s10-4 10-10c0-6-4-10-10-10Z" fill="#111827"/>
  <path d="M114 74c-6 0-10 4-10 10 0 6 4 10 10 10s10-4 10-10c0-6-4-10-10-10Z" fill="#111827"/>
  <path d="M90 126c0 10 8 16 10 16s10-6 10-16-8-18-10-18-10 8-10 18Z" fill="#f5f3ff"/>
  <path d="M100 144c-6 0-10 4-10 8s4 8 10 8 10-4 10-8-4-8-10-8Z" fill="#6d28d9"/>
  <path d="M72 94c-8-12-12-28-2-40 6 10 16 16 26 18-8 6-16 12-24 22Z" fill="#ede9fe" opacity="0.6"/>
  <path d="M128 94c-8-10-16-16-24-22 10-2 20-8 26-18 10 12 6 28-2 40Z" fill="#ede9fe" opacity="0.5"/>
  <path d="M86 68c-4 0-6 2-6 4s2 4 6 4 6-2 6-4-2-4-6-4Z" fill="#faf5ff"/>
  <path d="M114 68c-4 0-6 2-6 4s2 4 6 4 6-2 6-4-2-4-6-4Z" fill="#faf5ff"/>
  <path d="M70 150c-4 0-8 2-8 6s4 8 8 8 8-4 8-8-4-6-8-6Z" fill="#a855f7"/>
  <path d="M130 150c-4 0-8 4-8 8s4 8 8 8 8-4 8-8-4-6-8-6Z" fill="#a855f7"/>
  <path d="M100 84c-4 0-6 2-6 6s2 6 6 6 6-2 6-6-2-6-6-6Z" fill="#111827"/>
</svg>
