<svg xmlns="http://www.w3.org/2000/svg" viewBox="0 0 32 32" shape-rendering="crispEdges">
  <rect width="32" height="32" fill="none"/>
  <rect x="8" y="26" width="16" height="2" fill="#041b11" opacity="0.65"/>
  <rect x="9" y="27" width="14" height="1" fill="#052e1a" opacity="0.55"/>
  <rect x="10" y="22" width="5" height="4" fill="#14532d"/>
  <rect x="17" y="22" width="5" height="4" fill="#14532d"/>
  <rect x="10" y="18" width="12" height="6" fill="#16a34a"/>
  <rect x="11" y="19" width="10" height="1" fill="#22c55e"/>
  <rect x="9" y="13" width="14" height="6" fill="#15803d"/>
  <rect x="10" y="14" width="12" height="4" fill="#34d399"/>
  <rect x="8" y="12" width="16" height="2" fill="#16a34a"/>
  <rect x="7" y="12" width="3" height="6" fill="#166534"/>
  <rect x="22" y="12" width="3" height="6" fill="#166534"/>
  <rect x="6" y="14" width="2" height="4" fill="#0f172a"/>
  <rect x="24" y="14" width="2" height="4" fill="#0f172a"/>
  <rect x="5" y="16" width="2" height="3" fill="#eab308"/>
  <rect x="25" y="16" width="2" height="3" fill="#eab308"/>
  <rect x="11" y="9" width="10" height="3" fill="#22c55e"/>
  <rect x="12" y="8" width="2" height="2" fill="#052e1a"/>
  <rect x="18" y="8" width="2" height="2" fill="#052e1a"/>
  <rect x="14" y="10" width="4" height="2" fill="#fbbf24"/>
  <rect x="10" y="6" width="12" height="2" fill="#15803d"/>
  <rect x="11" y="5" width="10" height="1" fill="#0f172a"/>
  <rect x="9" y="6" width="2" height="2" fill="#14532d"/>
  <rect x="21" y="6" width="2" height="2" fill="#14532d"/>
  <rect x="13" y="4" width="6" height="1" fill="#eab308"/>
  <rect x="14" y="3" width="4" height="1" fill="#f59e0b"/>
</svg>
