<svg xmlns="http://www.w3.org/2000/svg" viewBox="0 0 120 120" role="img" aria-labelledby="title desc">
  <title id="title">Goblinkoenig</title>
  <desc id="desc">Der Goblinkönig mit goldener Krone, Szepter und Edelsteinpanzer.</desc>
  <defs>
    <radialGradient id="gkBg" cx="50%" cy="40%" r="62%">
      <stop offset="0%" stop-color="#1a2e05" stop-opacity="0" />
      <stop offset="70%" stop-color="#0f172a" stop-opacity="0.85" />
      <stop offset="100%" stop-color="#020617" />
    </radialGradient>
    <linearGradient id="gkSkin" x1="0%" y1="0%" x2="0%" y2="100%">
      <stop offset="0%" stop-color="#bbf7d0" />
      <stop offset="100%" stop-color="#15803d" />
    </linearGradient>
    <linearGradient id="gkMantle" x1="0%" y1="0%" x2="100%" y2="100%">
      <stop offset="0%" stop-color="#facc15" />
      <stop offset="100%" stop-color="#f97316" />
    </linearGradient>
    <linearGradient id="gkArmor" x1="0%" y1="0%" x2="100%" y2="100%">
      <stop offset="0%" stop-color="#22d3ee" />
      <stop offset="100%" stop-color="#0ea5e9" />
    </linearGradient>
    <linearGradient id="gkScepter" x1="0%" y1="0%" x2="0%" y2="100%">
      <stop offset="0%" stop-color="#fde68a" />
      <stop offset="50%" stop-color="#f59e0b" />
      <stop offset="100%" stop-color="#b45309" />
    </linearGradient>
  </defs>
  <rect width="120" height="120" fill="#051022" />
  <circle cx="60" cy="56" r="54" fill="url(#gkBg)" />
  <ellipse cx="60" cy="108" rx="36" ry="8" fill="rgba(8,15,30,0.75)" />
  <g transform="translate(0,-6)">
    <path d="M34 88 Q60 116 86 88 L90 96 C86 108 74 116 60 116 C46 116 34 108 30 96 Z" fill="url(#gkMantle)" stroke="#b45309" stroke-width="2" />
    <ellipse cx="60" cy="58" rx="28" ry="22" fill="url(#gkSkin)" stroke="#0f5132" stroke-width="2.5" />
    <path d="M42 60 Q60 74 78 60" fill="rgba(34,197,94,0.4)" />
    <path d="M32 42 C38 24 50 18 60 20 C70 18 82 24 88 42 C80 56 72 66 60 68 C48 66 40 56 32 42 Z" fill="url(#gkSkin)" />
    <ellipse cx="48" cy="56" rx="4.8" ry="6.8" fill="#064e3b" />
    <ellipse cx="72" cy="56" rx="4.8" ry="6.8" fill="#064e3b" />
    <circle cx="48" cy="54" r="2.4" fill="#bef264" />
    <circle cx="72" cy="54" r="2.4" fill="#bef264" />
    <path d="M44 48 Q60 52 76 48" stroke="#064e3b" stroke-width="3.4" stroke-linecap="round" />
    <path d="M50 72 C58 80 62 80 70 72" stroke="#ecfccb" stroke-width="3.2" stroke-linecap="round" />
    <path d="M36 34 L60 24 L84 34 L76 46 L60 40 L44 46 Z" fill="url(#gkArmor)" stroke="#0ea5e9" stroke-width="2" />
    <g transform="translate(24,22)">
      <path d="M0 28 L16 38 L24 24 L10 12 Z" fill="url(#gkArmor)" stroke="#0284c7" stroke-width="2" />
    </g>
    <g transform="translate(92,22)">
      <rect x="-4" y="0" width="8" height="48" rx="4" fill="url(#gkScepter)" />
      <circle cx="0" cy="-6" r="8" fill="#22d3ee" stroke="#0ea5e9" stroke-width="2" />
      <path d="M0 -6 L6 -14 L-6 -14 Z" fill="#fef3c7" stroke="#f59e0b" stroke-width="1.5" />
    </g>
    <path d="M40 90 L36 110" stroke="#0f5132" stroke-width="4" stroke-linecap="round" opacity="0.6" />
    <path d="M80 90 L84 110" stroke="#0f5132" stroke-width="4" stroke-linecap="round" opacity="0.6" />
    <g transform="translate(60,18)">
      <path d="M-14 6 L0 -6 L14 6 L10 14 L0 10 L-10 14 Z" fill="#fde68a" stroke="#b45309" stroke-width="2" />
      <circle cx="0" cy="4" r="3" fill="#22d3ee" stroke="#0ea5e9" stroke-width="1.5" />
    </g>
  </g>
</svg>
