<svg viewBox="0 0 64 64" xmlns="http://www.w3.org/2000/svg" role="img" aria-hidden="true" shape-rendering="crispEdges">
  <rect width="64" height="64" fill="none"/>
  <g opacity="0.85">
    <rect x="18" y="56" width="28" height="4" fill="rgba(15,23,42,0.55)"/>
    <rect x="20" y="55" width="24" height="1" fill="rgba(134,239,172,0.2)"/>
  </g>
  <g>
    <rect x="22" y="8" width="8" height="6" fill="#166534"/>
    <rect x="34" y="8" width="8" height="6" fill="#166534"/>
    <rect x="24" y="10" width="16" height="12" fill="#22c55e" stroke="#166534" stroke-width="1"/>
    <rect x="22" y="22" width="20" height="18" fill="#15803d" stroke="#14532d" stroke-width="1"/>
    <rect x="24" y="40" width="16" height="10" fill="#166534" stroke="#0f3f2f" stroke-width="1"/>
  </g>
  <g>
    <rect x="28" y="16" width="4" height="2" fill="#022c22"/>
    <rect x="34" y="16" width="4" height="2" fill="#022c22"/>
    <rect x="30" y="20" width="6" height="2" fill="#052e16"/>
    <rect x="28" y="12" width="4" height="2" fill="#bbf7d0"/>
    <rect x="34" y="12" width="4" height="2" fill="#bbf7d0"/>
  </g>
  <g>
    <rect x="22" y="28" width="20" height="4" fill="#0f172a" opacity="0.25"/>
    <rect x="26" y="34" width="12" height="2" fill="#86efac"/>
    <rect x="28" y="36" width="8" height="2" fill="#4ade80"/>
  </g>
  <g>
    <rect x="24" y="46" width="6" height="10" fill="#14532d" stroke="#0f3f2f" stroke-width="1"/>
    <rect x="34" y="46" width="6" height="10" fill="#14532d" stroke="#0f3f2f" stroke-width="1"/>
    <rect x="22" y="56" width="8" height="4" fill="#082f27"/>
    <rect x="34" y="56" width="8" height="4" fill="#082f27"/>
  </g>
  <g>
    <rect x="12" y="22" width="8" height="8" fill="#15803d" stroke="#0f3f2f" stroke-width="1"/>
    <rect x="10" y="18" width="6" height="16" fill="#166534" stroke="#0f3f2f" stroke-width="1"/>
    <rect x="8" y="14" width="4" height="18" fill="#065f46"/>
    <rect x="6" y="12" width="4" height="22" fill="#1f2937"/>
    <rect x="4" y="10" width="4" height="6" fill="#22c55e"/>
  </g>
  <g>
    <rect x="44" y="16" width="10" height="10" fill="#166534" stroke="#0f3f2f" stroke-width="1"/>
    <rect x="46" y="14" width="8" height="20" fill="#14532d"/>
    <rect x="52" y="12" width="6" height="18" fill="#064e3b"/>
    <rect x="48" y="30" width="10" height="6" fill="#854d0e"/>
    <rect x="50" y="20" width="6" height="4" fill="#facc15"/>
    <rect x="50" y="36" width="6" height="2" fill="#cbd5f5"/>
  </g>
</svg>
