<svg width="200" height="200" viewBox="0 0 200 200" fill="none" xmlns="http://www.w3.org/2000/svg">
  <defs>
    <linearGradient id="hg_bg" x1="24" y1="12" x2="176" y2="188" gradientUnits="userSpaceOnUse">
      <stop offset="0" stop-color="#1e293b"/>
      <stop offset="0.5" stop-color="#334155"/>
      <stop offset="1" stop-color="#475569"/>
    </linearGradient>
    <linearGradient id="hg_armor" x1="60" y1="60" x2="140" y2="170" gradientUnits="userSpaceOnUse">
      <stop offset="0" stop-color="#0ea5e9"/>
      <stop offset="1" stop-color="#0369a1"/>
    </linearGradient>
    <radialGradient id="hg_light" cx="0" cy="0" r="1" gradientUnits="userSpaceOnUse" gradientTransform="translate(100 80) scale(90 70)">
      <stop offset="0" stop-color="#bae6fd" stop-opacity="0.7"/>
      <stop offset="1" stop-color="#1e3a8a" stop-opacity="0"/>
    </radialGradient>
  </defs>
  <rect width="200" height="200" rx="24" fill="url(#hg_bg)"/>
  <rect width="200" height="200" rx="24" fill="url(#hg_light)"/>
  <path d="M48 150c18 28 40 40 52 40s34-12 52-40c-18-8-26-18-30-30-4-12-6-24-22-24h-0.5c-16 0-18 12-22 24-4 12-12 22-30 30Z" fill="#0f172a" opacity="0.35"/>
  <path d="M62 66c-10 8-18 22-18 36 0 24 20 46 56 46s56-22 56-46c0-14-8-28-18-36l-16 18-22-6-22 6-16-18Z" fill="#1d4ed8"/>
  <path d="M100 40c-18 0-30 12-30 32 0 12 6 20 14 24l-6 32 22 12 22-12-6-32c8-4 14-12 14-24 0-20-12-32-30-32Z" fill="#e0f2fe"/>
  <path d="M70 100c8 10 20 16 30 16s22-6 30-16c-8-14-18-22-30-22s-22 8-30 22Z" fill="#0ea5e9" opacity="0.5"/>
  <path d="M80 126c-12 0-22 8-22 16 0 7 6 12 16 12 14 0 24-6 24-16s-8-12-18-12Z" fill="#0f172a" opacity="0.4"/>
  <path d="M120 126c-10 0-18 4-18 12s10 16 24 16c10 0 16-5 16-12 0-8-10-16-22-16Z" fill="#0f172a" opacity="0.3"/>
  <path d="M82 70c-6 0-10 4-10 10s4 10 10 10 10-4 10-10-4-10-10-10Z" fill="#082f49"/>
  <path d="M118 70c-6 0-10 4-10 10s4 10 10 10 10-4 10-10-4-10-10-10Z" fill="#082f49"/>
  <path d="M88 120c0 10 8 14 12 14s12-4 12-14-8-18-12-18-12 8-12 18Z" fill="#bae6fd"/>
  <path d="M100 138c-6 0-10 4-10 8s4 8 10 8 10-4 10-8-4-8-10-8Z" fill="#1d4ed8"/>
  <path d="M74 84c-8-10-10-26 2-36 4 6 14 12 24 14-10 4-18 10-26 22Z" fill="#e0f2fe" opacity="0.7"/>
  <path d="M126 84c-8-12-16-18-26-22 10-2 20-8 24-14 12 10 10 26 2 36Z" fill="#e0f2fe" opacity="0.7"/>
  <path d="M92 64c-4 0-6 2-6 4s2 4 6 4 6-2 6-4-2-4-6-4Z" fill="#f8fafc"/>
  <path d="M108 64c-4 0-6 2-6 4s2 4 6 4 6-2 6-4-2-4-6-4Z" fill="#f8fafc"/>
  <path d="M100 46c-10 0-18 6-18 14 0 10 8 14 18 14s18-4 18-14c0-8-8-14-18-14Z" fill="#0369a1" opacity="0.5"/>
  <path d="M88 148c-4 0-8 2-8 6 0 3 4 6 8 6 6 0 10-4 10-8s-4-4-10-4Z" fill="#0ea5e9"/>
  <path d="M112 148c-6 0-10 0-10 4s4 8 10 8c4 0 8-3 8-6 0-4-4-6-8-6Z" fill="#0ea5e9"/>
</svg>
