<svg viewBox="0 0 64 64" xmlns="http://www.w3.org/2000/svg" role="img" aria-hidden="true" shape-rendering="crispEdges">
  <rect width="64" height="64" fill="none"/>
  <g opacity="0.9">
    <rect x="18" y="56" width="28" height="4" fill="rgba(15,23,42,0.8)"/>
    <rect x="20" y="55" width="24" height="1" fill="rgba(56,189,248,0.18)"/>
  </g>
  <g>
    <rect x="24" y="10" width="16" height="12" fill="#1e3a8a" stroke="#1d4ed8" stroke-width="1"/>
    <rect x="22" y="22" width="20" height="18" fill="#0f172a" stroke="#1e293b" stroke-width="1"/>
    <rect x="24" y="40" width="16" height="10" fill="#1e293b" stroke="#0f172a" stroke-width="1"/>
  </g>
  <g>
    <rect x="28" y="16" width="4" height="2" fill="#38bdf8"/>
    <rect x="34" y="16" width="4" height="2" fill="#38bdf8"/>
    <rect x="30" y="20" width="6" height="2" fill="#0ea5e9"/>
    <rect x="28" y="12" width="4" height="2" fill="#bae6fd"/>
    <rect x="34" y="12" width="4" height="2" fill="#bae6fd"/>
  </g>
  <g>
    <rect x="22" y="28" width="20" height="4" fill="#38bdf8" opacity="0.3"/>
    <rect x="26" y="34" width="12" height="2" fill="#0ea5e9"/>
    <rect x="28" y="36" width="8" height="2" fill="#38bdf8"/>
  </g>
  <g>
    <rect x="24" y="46" width="6" height="10" fill="#1f2937" stroke="#0f172a" stroke-width="1"/>
    <rect x="34" y="46" width="6" height="10" fill="#1f2937" stroke="#0f172a" stroke-width="1"/>
    <rect x="22" y="56" width="8" height="4" fill="#020617"/>
    <rect x="34" y="56" width="8" height="4" fill="#020617"/>
  </g>
  <g>
    <rect x="12" y="24" width="8" height="8" fill="#0f172a" stroke="#1d4ed8" stroke-width="1"/>
    <rect x="10" y="18" width="6" height="18" fill="#1e3a8a" stroke="#1d4ed8" stroke-width="1"/>
    <rect x="8" y="16" width="4" height="18" fill="#0f172a"/>
    <rect x="6" y="14" width="4" height="20" fill="#020617"/>
    <rect x="4" y="12" width="4" height="6" fill="#38bdf8"/>
  </g>
  <g>
    <rect x="44" y="18" width="10" height="10" fill="#0f172a" stroke="#1d4ed8" stroke-width="1"/>
    <rect x="46" y="16" width="6" height="24" fill="#1d4ed8"/>
    <rect x="52" y="14" width="6" height="20" fill="#1e3a8a"/>
    <rect x="50" y="32" width="10" height="4" fill="#38bdf8"/>
    <rect x="50" y="20" width="6" height="4" fill="#bae6fd"/>
  </g>
</svg>
