<svg viewBox="0 0 160 160" xmlns="http://www.w3.org/2000/svg" role="img" aria-label="Goblinkoenig">
  <defs>
    <linearGradient id="kingGoblinSkin" x1="0%" y1="0%" x2="100%" y2="100%">
      <stop offset="0%" stop-color="#bef264" />
      <stop offset="100%" stop-color="#15803d" />
    </linearGradient>
    <linearGradient id="kingGoblinArmor" x1="0%" y1="0%" x2="0%" y2="100%">
      <stop offset="0%" stop-color="#fbbf24" />
      <stop offset="100%" stop-color="#b45309" />
    </linearGradient>
    <linearGradient id="kingGoblinCape" x1="0%" y1="0%" x2="100%" y2="100%">
      <stop offset="0%" stop-color="#facc15" />
      <stop offset="100%" stop-color="#ea580c" />
    </linearGradient>
  </defs>
  <rect x="12" y="18" width="136" height="134" rx="44" fill="rgba(234,179,8,0.32)" />
  <ellipse cx="80" cy="138" rx="48" ry="16" fill="rgba(249,115,22,0.26)" />
  <g stroke="#14532d" stroke-width="2.8" stroke-linejoin="round">
    <path d="M30 84 C26 46 54 22 80 22 C106 22 134 46 130 84 Z" fill="url(#kingGoblinSkin)" />
    <path d="M44 90 C50 116 60 132 80 132 C100 132 110 116 116 90 Z" fill="#22c55e" />
    <circle cx="64" cy="76" r="10" fill="#0f172a" />
    <circle cx="96" cy="76" r="10" fill="#0f172a" />
    <circle cx="64" cy="76" r="4" fill="#bbf7d0" />
    <circle cx="96" cy="76" r="4" fill="#bbf7d0" />
    <path d="M64 104 Q80 120 96 104" stroke="#fde68a" stroke-width="4" stroke-linecap="round" />
  </g>
  <g fill="url(#kingGoblinCape)" stroke="#b45309" stroke-width="2.6">
    <path d="M40 54 L80 32 L120 54 L108 146 H52 Z" />
  </g>
  <g fill="url(#kingGoblinArmor)" stroke="#92400e" stroke-width="2.6">
    <path d="M48 124 L112 124 L126 154 H34 Z" />
    <path d="M56 132 H104 L110 148 H50 Z" />
  </g>
  <g fill="#fde68a" stroke="#b45309" stroke-width="2.4">
    <path d="M56 44 L68 18 L80 34 L92 18 L104 44 L92 40 L80 52 L68 40 Z" />
  </g>
  <g stroke="#f59e0b" stroke-width="3" stroke-linecap="round">
    <path d="M68 70 h6" />
    <path d="M86 70 h6" />
  </g>
  <circle cx="80" cy="110" r="12" fill="#facc15" stroke="#b45309" stroke-width="3" />
  <path d="M80 100 V120" stroke="#92400e" stroke-width="4" stroke-linecap="round" />
</svg>
