<svg xmlns="http://www.w3.org/2000/svg" viewBox="0 0 32 32" shape-rendering="crispEdges">
  <rect width="32" height="32" fill="none"/>
  <rect x="6" y="27" width="20" height="3" fill="#030712" opacity="0.65"/>
  <rect x="8" y="6" width="16" height="4" fill="#064e3b"/>
  <rect x="7" y="10" width="18" height="6" fill="#047857"/>
  <rect x="6" y="16" width="20" height="6" fill="#065f46"/>
  <rect x="9" y="22" width="4" height="7" fill="#064e3b"/>
  <rect x="19" y="22" width="4" height="7" fill="#064e3b"/>
  <rect x="11" y="12" width="2" height="2" fill="#020617"/>
  <rect x="19" y="12" width="2" height="2" fill="#020617"/>
  <rect x="12" y="17" width="8" height="3" fill="#020617"/>
  <rect x="5" y="13" width="4" height="3" fill="#34d399"/>
  <rect x="23" y="13" width="4" height="3" fill="#34d399"/>
  <rect x="12" y="4" width="8" height="2" fill="#dc2626"/>
  <rect x="11" y="2" width="10" height="2" fill="#f87171"/>
  <rect x="12" y="22" width="3" height="6" fill="#fde68a"/>
  <rect x="17" y="22" width="3" height="6" fill="#fde68a"/>
  <rect x="13" y="7" width="6" height="2" fill="#0f172a" opacity="0.5"/>
</svg>
