<svg xmlns="http://www.w3.org/2000/svg" viewBox="0 0 32 32" shape-rendering="crispEdges" role="img" aria-label="Bergtroll pixel art">
  <rect width="32" height="32" fill="none"/>
  <rect x="3" y="26" width="26" height="2" fill="#05060b" opacity="0.5"/>
  <rect x="6" y="6" width="20" height="5" fill="#4f46e5"/>
  <rect x="8" y="5" width="16" height="2" fill="#6366f1"/>
  <rect x="5" y="11" width="22" height="11" fill="#1e293b"/>
  <rect x="7" y="12" width="18" height="9" fill="#334155"/>
  <rect x="10" y="13" width="12" height="6" fill="#475569"/>
  <rect x="9" y="11" width="4" height="3" fill="#0f172a"/>
  <rect x="19" y="11" width="4" height="3" fill="#0f172a"/>
  <rect x="13" y="16" width="2" height="2" fill="#0f172a"/>
  <rect x="17" y="16" width="2" height="2" fill="#0f172a"/>
  <rect x="8" y="20" width="16" height="6" fill="#0b1120"/>
  <rect x="9" y="21" width="14" height="5" fill="#111827"/>
  <rect x="10" y="21" width="4" height="7" fill="#1f2937"/>
  <rect x="18" y="21" width="4" height="7" fill="#1f2937"/>
  <rect x="6" y="15" width="4" height="5" fill="#4f46e5"/>
  <rect x="22" y="15" width="4" height="5" fill="#4f46e5"/>
  <rect x="4" y="13" width="4" height="4" fill="#312e81"/>
  <rect x="24" y="13" width="4" height="4" fill="#312e81"/>
  <rect x="12" y="9" width="8" height="2" fill="#a78bfa"/>
  <rect x="13" y="8" width="6" height="1" fill="#c4b5fd"/>
  <rect x="14" y="7" width="4" height="1" fill="#ede9fe"/>
  <rect x="11" y="24" width="10" height="2" fill="#9f1239"/>
  <rect x="12" y="25" width="8" height="2" fill="#e11d48"/>
</svg>
