<svg xmlns="http://www.w3.org/2000/svg" viewBox="0 0 120 120" role="img" aria-labelledby="title">
  <title>Schattengoblin</title>
  <defs>
    <linearGradient id="shadow-bg" x1="10" y1="0" x2="110" y2="120" gradientUnits="userSpaceOnUse">
      <stop offset="0" stop-color="#050505"/>
      <stop offset="1" stop-color="#0e0120"/>
    </linearGradient>
    <linearGradient id="shadow-skin" x1="32" y1="26" x2="92" y2="96" gradientUnits="userSpaceOnUse">
      <stop offset="0" stop-color="#3f2a77"/>
      <stop offset="1" stop-color="#06010a"/>
    </linearGradient>
  </defs>
  <rect width="120" height="120" rx="28" fill="url(#shadow-bg)"/>
  <path d="M18 56c4-17 12-26 24-30-3 11-2 19 2 27-8-2-15-2-26 3z" fill="#120a1f"/>
  <path d="M102 56c-4-17-12-26-24-30 3 11 2 19-2 27 8-2 15-2 26 3z" fill="#050109"/>
  <circle cx="60" cy="66" r="34" fill="url(#shadow-skin)" stroke="#020005" stroke-width="4"/>
  <path d="M40 74c6 6 12 9 20 9s14-3 20-9" stroke="#1b072d" stroke-width="4" stroke-linecap="round"/>
  <path d="M60 44c-6 0-10-4-10-10s4-10 10-10 10 4 10 10-4 10-10 10z" fill="#130626"/>
  <path d="M34 58c4-8 12-12 26-12s22 4 26 12" fill="none" stroke="#301859" stroke-width="4" stroke-linecap="round"/>
  <path d="M42 58c-3 0-5-3-5-6s2-6 5-6 8 4 9 8c-3 1-6 4-9 4zm36 0c3 0 5-3 5-6s-2-6-5-6-8 4-9 8c3 1 6 4 9 4z" fill="#030105"/>
  <path d="M38 85c6 4 13 6 22 6s16-2 22-6" fill="none" stroke="#6c4d9c" stroke-width="3" stroke-linecap="round"/>
  <circle cx="46" cy="60" r="4" fill="#f5ff9c"/>
  <circle cx="74" cy="60" r="4" fill="#f5ff9c"/>
  <path d="M32 72l8 6-4 11-10-7zm56 0l-8 6 4 11 10-7z" fill="#2d1c4b"/>
</svg>
