<svg xmlns="http://www.w3.org/2000/svg" viewBox="0 0 32 32" shape-rendering="crispEdges">
  <rect width="32" height="32" fill="none"/>
  <rect x="7" y="26" width="18" height="2" fill="#0f1d2e" opacity="0.7"/>
  <rect x="8" y="27" width="16" height="1" fill="#1e293b" opacity="0.55"/>
  <rect x="9" y="22" width="6" height="4" fill="#334155"/>
  <rect x="17" y="22" width="6" height="4" fill="#334155"/>
  <rect x="9" y="18" width="14" height="6" fill="#475569"/>
  <rect x="10" y="19" width="12" height="1" fill="#cbd5f5"/>
  <rect x="8" y="14" width="18" height="4" fill="#64748b"/>
  <rect x="9" y="15" width="16" height="2" fill="#cbd5f5"/>
  <rect x="7" y="11" width="20" height="3" fill="#94a3b8"/>
  <rect x="6" y="11" width="3" height="8" fill="#475569"/>
  <rect x="23" y="11" width="3" height="8" fill="#475569"/>
  <rect x="5" y="14" width="2" height="5" fill="#1f2937"/>
  <rect x="25" y="14" width="2" height="5" fill="#1f2937"/>
  <rect x="4" y="16" width="2" height="3" fill="#cbd5f5"/>
  <rect x="26" y="16" width="2" height="3" fill="#cbd5f5"/>
  <rect x="11" y="9" width="10" height="3" fill="#cbd5f5"/>
  <rect x="10" y="8" width="2" height="2" fill="#1e293b"/>
  <rect x="20" y="8" width="2" height="2" fill="#1e293b"/>
  <rect x="13" y="10" width="6" height="1" fill="#ef4444"/>
  <rect x="12" y="6" width="8" height="2" fill="#475569"/>
  <rect x="11" y="5" width="10" height="1" fill="#1f2937"/>
  <rect x="13" y="4" width="6" height="1" fill="#0ea5e9"/>
  <rect x="14" y="3" width="4" height="1" fill="#38bdf8"/>
  <rect x="9" y="6" width="3" height="2" fill="#64748b"/>
  <rect x="20" y="6" width="3" height="2" fill="#64748b"/>
  <rect x="4" y="9" width="4" height="2" fill="#475569"/>
  <rect x="24" y="9" width="4" height="2" fill="#475569"/>
  <rect x="5" y="8" width="2" height="1" fill="#eab308"/>
  <rect x="25" y="8" width="2" height="1" fill="#eab308"/>
</svg>
