<svg xmlns="http://www.w3.org/2000/svg" viewBox="0 0 32 32" shape-rendering="crispEdges">
  <rect width="32" height="32" fill="none"/>
  <rect x="8" y="26" width="16" height="2" fill="#130720" opacity="0.7"/>
  <rect x="9" y="27" width="14" height="1" fill="#1f1133" opacity="0.55"/>
  <rect x="10" y="22" width="5" height="4" fill="#312e81"/>
  <rect x="17" y="22" width="5" height="4" fill="#312e81"/>
  <rect x="10" y="18" width="12" height="6" fill="#4338ca"/>
  <rect x="11" y="19" width="10" height="1" fill="#a855f7"/>
  <rect x="9" y="14" width="14" height="4" fill="#3730a3"/>
  <rect x="10" y="15" width="12" height="2" fill="#7c3aed"/>
  <rect x="8" y="12" width="16" height="2" fill="#312e81"/>
  <rect x="7" y="12" width="3" height="7" fill="#1e1b4b"/>
  <rect x="22" y="12" width="3" height="7" fill="#1e1b4b"/>
  <rect x="6" y="15" width="2" height="4" fill="#14b8a6"/>
  <rect x="24" y="15" width="2" height="4" fill="#14b8a6"/>
  <rect x="5" y="17" width="2" height="3" fill="#0f766e"/>
  <rect x="25" y="17" width="2" height="3" fill="#0f766e"/>
  <rect x="12" y="9" width="8" height="3" fill="#a855f7"/>
  <rect x="11" y="8" width="2" height="2" fill="#1f1133"/>
  <rect x="19" y="8" width="2" height="2" fill="#1f1133"/>
  <rect x="14" y="10" width="4" height="1" fill="#14b8a6"/>
  <rect x="10" y="6" width="12" height="2" fill="#4c1d95"/>
  <rect x="9" y="5" width="14" height="1" fill="#312e81"/>
  <rect x="12" y="4" width="8" height="1" fill="#7c3aed"/>
  <rect x="13" y="3" width="6" height="1" fill="#c084fc"/>
  <rect x="7" y="7" width="4" height="2" fill="#1f2937"/>
  <rect x="21" y="7" width="4" height="2" fill="#1f2937"/>
</svg>
