<svg xmlns="http://www.w3.org/2000/svg" viewBox="0 0 32 32" shape-rendering="crispEdges">
  <rect width="32" height="32" fill="none"/>
  <rect x="6" y="27" width="20" height="3" fill="#0b0512" opacity="0.7"/>
  <rect x="8" y="5" width="16" height="4" fill="#065f46"/>
  <rect x="7" y="9" width="18" height="6" fill="#047857"/>
  <rect x="6" y="15" width="20" height="6" fill="#166534"/>
  <rect x="9" y="21" width="4" height="7" fill="#14532d"/>
  <rect x="19" y="21" width="4" height="7" fill="#14532d"/>
  <rect x="11" y="11" width="2" height="2" fill="#02160f"/>
  <rect x="19" y="11" width="2" height="2" fill="#02160f"/>
  <rect x="12" y="16" width="8" height="3" fill="#02160f"/>
  <rect x="5" y="12" width="4" height="3" fill="#22d3ee"/>
  <rect x="23" y="12" width="4" height="3" fill="#22d3ee"/>
  <rect x="12" y="4" width="8" height="2" fill="#facc15"/>
  <rect x="11" y="2" width="10" height="2" fill="#fde047"/>
  <rect x="10" y="1" width="12" height="1" fill="#fbbf24"/>
  <rect x="12" y="21" width="3" height="7" fill="#a855f7"/>
  <rect x="17" y="21" width="3" height="7" fill="#a855f7"/>
  <rect x="10" y="19" width="12" height="2" fill="#fb7185"/>
  <rect x="13" y="7" width="6" height="2" fill="#0f172a" opacity="0.45"/>
  <rect x="6" y="6" width="4" height="3" fill="#eab308"/>
  <rect x="22" y="6" width="4" height="3" fill="#eab308"/>
</svg>
