<svg viewBox="0 0 160 160" xmlns="http://www.w3.org/2000/svg" role="img" aria-labelledby="title desc">
  <title id="title">Hoehlengoblin</title>
  <desc id="desc">A cave goblin miner with a crystal crown and glowing mushrooms.</desc>
  <defs>
    <linearGradient id="cg-bg" x1="0%" y1="0%" x2="0%" y2="100%">
      <stop offset="0%" stop-color="#1a1f2b"/>
      <stop offset="100%" stop-color="#080a12"/>
    </linearGradient>
    <linearGradient id="cg-skin" x1="0%" y1="0%" x2="100%" y2="100%">
      <stop offset="0%" stop-color="#93c5fd"/>
      <stop offset="50%" stop-color="#60a5fa"/>
      <stop offset="100%" stop-color="#2563eb"/>
    </linearGradient>
    <linearGradient id="cg-robe" x1="0%" y1="0%" x2="100%" y2="100%">
      <stop offset="0%" stop-color="#1e293b"/>
      <stop offset="100%" stop-color="#111827"/>
    </linearGradient>
    <radialGradient id="cg-eye" cx="50%" cy="50%" r="50%">
      <stop offset="0%" stop-color="#bfdbfe"/>
      <stop offset="100%" stop-color="#60a5fa"/>
    </radialGradient>
    <filter id="cg-shadow" x="-20%" y="-20%" width="140%" height="140%">
      <feDropShadow dx="0" dy="6" stdDeviation="8" flood-color="#050712" flood-opacity="0.82"/>
    </filter>
  </defs>
  <rect width="160" height="160" rx="28" fill="url(#cg-bg)"/>
  <g filter="url(#cg-shadow)">
    <path d="M36 134 Q24 92 48 54 Q66 32 80 32 Q94 32 112 54 Q136 92 124 134" fill="url(#cg-robe)"/>
    <path d="M50 58 Q68 44 80 44 Q92 44 110 58 L104 90 Q94 108 80 110 Q66 108 56 90 Z" fill="url(#cg-skin)" stroke="#0f172a" stroke-width="2"/>
    <path d="M56 90 Q66 126 48 136 Q32 124 40 96 Z" fill="url(#cg-skin)" stroke="#0f172a" stroke-width="1.8"/>
    <path d="M104 90 Q94 126 112 136 Q128 124 120 96 Z" fill="url(#cg-skin)" stroke="#0f172a" stroke-width="1.8"/>
    <path d="M60 112 Q74 126 80 128 Q86 126 100 112 L104 140 Q90 148 80 150 Q70 148 56 140 Z" fill="#1e3a8a" stroke="#0f172a" stroke-width="2"/>
    <path d="M48 52 L60 34 L80 40 L100 34 L112 52" fill="#38bdf8" stroke="#1f2937" stroke-width="1.8"/>
    <path d="M46 48 L38 60 Q46 70 52 62 Z" fill="#38bdf8" stroke="#1f2937" stroke-width="1.2"/>
    <path d="M114 48 L122 60 Q114 70 108 62 Z" fill="#38bdf8" stroke="#1f2937" stroke-width="1.2"/>
    <ellipse cx="66" cy="76" rx="9" ry="11" fill="#0f172a"/>
    <ellipse cx="94" cy="76" rx="9" ry="11" fill="#0f172a"/>
    <circle cx="66" cy="76" r="5" fill="url(#cg-eye)"/>
    <circle cx="94" cy="76" r="5" fill="url(#cg-eye)"/>
    <path d="M64 104 Q80 116 96 104" fill="none" stroke="#0f172a" stroke-width="2.6" stroke-linecap="round"/>
    <path d="M70 88 Q80 92 90 88" fill="none" stroke="#bfdbfe" stroke-width="2" stroke-linecap="round"/>
  </g>
</svg>
