<svg xmlns="http://www.w3.org/2000/svg" viewBox="0 0 32 32" shape-rendering="crispEdges">
  <rect width="32" height="32" fill="none"/>
  <rect x="6" y="27" width="20" height="3" fill="#04140a" opacity="0.55"/>
  <rect x="8" y="5" width="16" height="4" fill="#166534"/>
  <rect x="7" y="9" width="18" height="5" fill="#22c55e"/>
  <rect x="6" y="14" width="20" height="6" fill="#15803d"/>
  <rect x="5" y="10" width="6" height="3" fill="#4ade80"/>
  <rect x="21" y="10" width="6" height="3" fill="#4ade80"/>
  <rect x="12" y="12" width="2" height="2" fill="#022c22"/>
  <rect x="18" y="12" width="2" height="2" fill="#022c22"/>
  <rect x="12" y="17" width="8" height="3" fill="#022c22"/>
  <rect x="8" y="20" width="4" height="8" fill="#166534"/>
  <rect x="20" y="20" width="4" height="8" fill="#166534"/>
  <rect x="10" y="22" width="3" height="6" fill="#34d399"/>
  <rect x="19" y="22" width="3" height="6" fill="#34d399"/>
  <rect x="11" y="4" width="10" height="2" fill="#65a30d"/>
  <rect x="9" y="3" width="14" height="1" fill="#4d7c0f"/>
  <rect x="12" y="1" width="8" height="2" fill="#facc15"/>
</svg>
