<svg xmlns="http://www.w3.org/2000/svg" viewBox="0 0 120 120" role="img" aria-labelledby="title desc">
  <title id="title">Gruener Goblin Schleuderer</title>
  <desc id="desc">Ein grünhäutiger Goblin mit Schleuder und lederner Rüstung.</desc>
  <defs>
    <radialGradient id="ggBg" cx="50%" cy="38%" r="62%">
      <stop offset="0%" stop-color="#0f172a" stop-opacity="0" />
      <stop offset="70%" stop-color="#111827" stop-opacity="0.8" />
      <stop offset="100%" stop-color="#020617" />
    </radialGradient>
    <linearGradient id="ggSkin" x1="0%" y1="0%" x2="0%" y2="100%">
      <stop offset="0%" stop-color="#86efac" />
      <stop offset="100%" stop-color="#16a34a" />
    </linearGradient>
    <linearGradient id="ggLeather" x1="0%" y1="0%" x2="100%" y2="100%">
      <stop offset="0%" stop-color="#854d0e" />
      <stop offset="100%" stop-color="#451a03" />
    </linearGradient>
  </defs>
  <rect width="120" height="120" fill="#020617" />
  <circle cx="60" cy="54" r="52" fill="url(#ggBg)" />
  <ellipse cx="60" cy="106" rx="32" ry="7" fill="rgba(8,15,30,0.7)" />
  <g transform="translate(0,-4)">
    <path d="M30 40 C36 24 48 18 60 20 C72 18 84 24 90 40 C84 50 76 58 60 60 C44 58 36 50 30 40 Z" fill="url(#ggSkin)" />
    <path d="M36 58 Q60 72 84 58 L80 90 C80 96 72 104 60 104 C48 104 40 96 40 90 Z" fill="url(#ggLeather)" stroke="#3f1d0b" stroke-width="2" />
    <path d="M44 64 Q60 72 76 64" fill="rgba(21,128,61,0.45)" />
    <ellipse cx="60" cy="52" rx="24" ry="18" fill="url(#ggSkin)" stroke="#15803d" stroke-width="2" />
    <path d="M46 54 C48 60 54 64 60 64 C66 64 72 60 74 54" fill="#052e16" opacity="0.35" />
    <ellipse cx="50" cy="52" rx="4.6" ry="6" fill="#052e16" />
    <ellipse cx="70" cy="52" rx="4.6" ry="6" fill="#052e16" />
    <circle cx="50" cy="50" r="2" fill="#facc15" />
    <circle cx="70" cy="50" r="2" fill="#facc15" />
    <path d="M44 44 Q60 50 76 44" stroke="#052e16" stroke-width="3" stroke-linecap="round" />
    <path d="M52 66 C56 70 64 70 68 66" stroke="#ecfdf5" stroke-width="2.5" stroke-linecap="round" />
    <path d="M34 26 L44 34 L36 44 Z" fill="#166534" />
    <path d="M86 26 L76 34 L84 44 Z" fill="#dcfce7" opacity="0.7" />
    <g transform="translate(18,18)">
      <path d="M0 10 Q22 -4 44 12" stroke="#a16207" stroke-width="4" stroke-linecap="round" />
      <circle cx="0" cy="10" r="4" fill="#fdba74" />
      <circle cx="44" cy="12" r="4" fill="#f59e0b" />
    </g>
    <path d="M42 84 L38 102" stroke="#0f172a" stroke-width="4" stroke-linecap="round" opacity="0.5" />
    <path d="M78 84 L82 102" stroke="#0f172a" stroke-width="4" stroke-linecap="round" opacity="0.5" />
  </g>
</svg>
