<svg xmlns="http://www.w3.org/2000/svg" viewBox="0 0 120 120" role="img" aria-labelledby="title">
  <title>Hobgoblin</title>
  <defs>
    <linearGradient id="hob-bg" x1="0" y1="0" x2="120" y2="120" gradientUnits="userSpaceOnUse">
      <stop offset="0" stop-color="#2a160c"/>
      <stop offset="1" stop-color="#080302"/>
    </linearGradient>
    <linearGradient id="hob-skin" x1="30" y1="24" x2="94" y2="94" gradientUnits="userSpaceOnUse">
      <stop offset="0" stop-color="#f0a45e"/>
      <stop offset="1" stop-color="#8b3f17"/>
    </linearGradient>
  </defs>
  <path d="M25 46c6-6 16-14 27-14-6 10-8 21-7 30-6-4-12-7-20-16z" fill="#bf6a23"/>
  <path d="M95 46c-6-6-16-14-27-14 6 10 8 21 7 30 6-4 12-7 20-16z" fill="#843a11"/>
  <circle cx="60" cy="62" r="34" fill="url(#hob-skin)" stroke="#3d1404" stroke-width="4"/>
  <path d="M30 73h60v15c0 5-4 9-9 9H39c-5 0-9-4-9-9V73z" fill="#1b0d07" stroke="#7c4c22" stroke-width="3"/>
  <path d="M34 76h10v8H34zm42 0h10v8H76z" fill="#f4dcb0"/>
  <rect x="50" y="78" width="20" height="6" fill="#d9c18d"/>
  <circle cx="45" cy="58" r="6" fill="#100804"/>
  <circle cx="75" cy="58" r="6" fill="#100804"/>
  <rect x="32" y="42" width="56" height="12" rx="6" fill="#6b250c" stroke="#3c1202" stroke-width="2"/>
  <path d="M60 20l16 8-5 7-11-4-11 4-5-7z" fill="#d7c6a4" stroke="#47321d" stroke-width="3"/>
  <path d="M30 47c7-1 14 1 17 5m26-5c-7-1-14 1-17 5" stroke="#fcd9a9" stroke-width="3" stroke-linecap="round"/>
  <path d="M60 84v6" stroke="#1b0d07" stroke-width="3" stroke-linecap="round"/>
</svg>
