<svg xmlns="http://www.w3.org/2000/svg" viewBox="0 0 120 120" role="img" aria-labelledby="title desc">
  <title id="title">Hobgoblin Kriegshammer</title>
  <desc id="desc">Ein kräftiger Hobgoblin mit bronzener Rüstung und Kriegshammer.</desc>
  <defs>
    <radialGradient id="hgBg" cx="50%" cy="42%" r="60%">
      <stop offset="0%" stop-color="#111827" stop-opacity="0" />
      <stop offset="70%" stop-color="#0f172a" stop-opacity="0.85" />
      <stop offset="100%" stop-color="#020617" />
    </radialGradient>
    <linearGradient id="hgSkin" x1="0%" y1="0%" x2="0%" y2="100%">
      <stop offset="0%" stop-color="#bbf7d0" />
      <stop offset="100%" stop-color="#15803d" />
    </linearGradient>
    <linearGradient id="hgArmor" x1="0%" y1="0%" x2="100%" y2="100%">
      <stop offset="0%" stop-color="#facc15" />
      <stop offset="50%" stop-color="#d97706" />
      <stop offset="100%" stop-color="#92400e" />
    </linearGradient>
  </defs>
  <rect width="120" height="120" fill="#020617" />
  <circle cx="60" cy="56" r="54" fill="url(#hgBg)" />
  <ellipse cx="60" cy="108" rx="34" ry="7" fill="rgba(8,15,30,0.7)" />
  <g transform="translate(0,-4)">
    <path d="M30 48 C34 28 48 20 60 22 C72 20 86 28 90 48 C84 60 74 70 60 72 C46 70 36 60 30 48 Z" fill="url(#hgSkin)" />
    <path d="M36 68 Q60 82 84 68 L80 94 C78 102 70 108 60 108 C50 108 42 102 40 94 Z" fill="url(#hgArmor)" stroke="#78350f" stroke-width="2" />
    <ellipse cx="60" cy="58" rx="26" ry="20" fill="url(#hgSkin)" stroke="#0f5132" stroke-width="2.5" />
    <path d="M44 60 Q60 70 76 60" fill="rgba(15,81,50,0.5)" />
    <ellipse cx="50" cy="58" rx="4.8" ry="6.6" fill="#052e16" />
    <ellipse cx="70" cy="58" rx="4.8" ry="6.6" fill="#052e16" />
    <circle cx="50" cy="56" r="2.4" fill="#fcd34d" />
    <circle cx="70" cy="56" r="2.4" fill="#fcd34d" />
    <path d="M48 70 C54 78 66 78 72 70" stroke="#fefce8" stroke-width="3" stroke-linecap="round" />
    <path d="M46 44 Q60 48 74 44" stroke="#0f172a" stroke-width="3.5" stroke-linecap="round" opacity="0.7" />
    <path d="M30 34 L38 24 L44 36 Z" fill="#1e293b" />
    <path d="M90 34 L82 24 L76 36 Z" fill="#1e293b" />
    <g transform="translate(86,18)">
      <rect x="-6" y="0" width="12" height="52" rx="4" fill="#78350f" />
      <rect x="-14" y="-12" width="28" height="16" rx="4" fill="#f8fafc" stroke="#94a3b8" stroke-width="2" />
      <circle cx="0" cy="-4" r="3" fill="#cbd5f5" />
    </g>
    <path d="M46 86 L40 104" stroke="#1f2937" stroke-width="4" stroke-linecap="round" opacity="0.6" />
    <path d="M74 86 L80 104" stroke="#1f2937" stroke-width="4" stroke-linecap="round" opacity="0.6" />
  </g>
</svg>
