<svg xmlns="http://www.w3.org/2000/svg" viewBox="0 0 120 120" role="img" aria-labelledby="title">
  <title>Dunkelgoblin</title>
  <defs>
    <linearGradient id="dark-bg" x1="16" y1="0" x2="104" y2="120" gradientUnits="userSpaceOnUse">
      <stop offset="0" stop-color="#1b0828"/>
      <stop offset="1" stop-color="#05010c"/>
    </linearGradient>
    <linearGradient id="dark-skin" x1="32" y1="24" x2="92" y2="100" gradientUnits="userSpaceOnUse">
      <stop offset="0" stop-color="#ad6bff"/>
      <stop offset="1" stop-color="#4a1d66"/>
    </linearGradient>
  </defs>
  <path d="M20 49c8-10 17-18 28-20-4 10-5 20-2 28-7-3-13-5-26-8z" fill="#5e2391" stroke="#200533" stroke-width="3"/>
  <path d="M100 49c-8-10-17-18-28-20 4 10 5 20 2 28 7-3 13-5 26-8z" fill="#2f0f47" stroke="#0d0116" stroke-width="3"/>
  <circle cx="60" cy="64" r="34" fill="url(#dark-skin)" stroke="#190227" stroke-width="4"/>
  <path d="M36 55c-4 0-7-3-7-7s3-8 10-8 14 7 15 13c-5 1-10 2-18 2zm48 0c4 0 7-3 7-7s-3-8-10-8-14 7-15 13c5 1 10 2 18 2z" fill="#0f0214"/>
  <path d="M40 74c6 6 13 9 20 9s14-3 20-9" stroke="#2e063d" stroke-width="4" stroke-linecap="round"/>
  <path d="M45 82c4 3 8 5 15 5s11-2 15-5" stroke="#f8e4ff" stroke-width="2" stroke-linecap="round"/>
  <path d="M33 65l6 8-3 11-9-8zm54 0-6 8 3 11 9-8z" fill="#933cff" stroke="#230635" stroke-width="2"/>
  <circle cx="44" cy="58" r="4" fill="#fceaff"/>
  <circle cx="76" cy="58" r="4" fill="#fceaff"/>
  <path d="M60 34l-10 8-6-8 16-9 16 9-6 8z" fill="#cda8ff" stroke="#2a0a3e" stroke-width="3"/>
</svg>
