<svg xmlns="http://www.w3.org/2000/svg" viewBox="0 0 32 32" shape-rendering="crispEdges" role="img" aria-label="Goblinkoenig pixel art">
  <rect width="32" height="32" fill="none"/>
  <rect x="3" y="27" width="26" height="2" fill="#06020c" opacity="0.5"/>
  <rect x="9" y="3" width="14" height="3" fill="#facc15"/>
  <rect x="10" y="2" width="12" height="1" fill="#fde68a"/>
  <rect x="11" y="1" width="10" height="1" fill="#fef9c3"/>
  <rect x="7" y="6" width="18" height="5" fill="#166534"/>
  <rect x="9" y="5" width="14" height="2" fill="#22c55e"/>
  <rect x="6" y="11" width="20" height="11" fill="#047857"/>
  <rect x="8" y="12" width="16" height="9" fill="#10b981"/>
  <rect x="11" y="13" width="10" height="6" fill="#34d399"/>
  <rect x="9" y="11" width="4" height="2" fill="#0f172a"/>
  <rect x="19" y="11" width="4" height="2" fill="#0f172a"/>
  <rect x="13" y="16" width="2" height="2" fill="#052e16"/>
  <rect x="17" y="16" width="2" height="2" fill="#052e16"/>
  <rect x="8" y="20" width="16" height="6" fill="#0b1120"/>
  <rect x="9" y="21" width="14" height="5" fill="#111827"/>
  <rect x="10" y="21" width="4" height="7" fill="#1f2937"/>
  <rect x="18" y="21" width="4" height="7" fill="#1f2937"/>
  <rect x="7" y="14" width="3" height="4" fill="#22c55e"/>
  <rect x="22" y="14" width="3" height="4" fill="#22c55e"/>
  <rect x="5" y="13" width="3" height="3" fill="#15803d"/>
  <rect x="24" y="13" width="3" height="3" fill="#15803d"/>
  <rect x="6" y="17" width="3" height="4" fill="#047857"/>
  <rect x="23" y="17" width="3" height="4" fill="#047857"/>
  <rect x="12" y="9" width="8" height="2" fill="#fde68a"/>
  <rect x="13" y="8" width="6" height="1" fill="#fef3c7"/>
  <rect x="14" y="7" width="4" height="1" fill="#fff7ed"/>
  <rect x="8" y="23" width="4" height="2" fill="#f97316"/>
  <rect x="20" y="23" width="4" height="2" fill="#f97316"/>
  <rect x="6" y="5" width="3" height="2" fill="#f97316"/>
  <rect x="23" y="5" width="3" height="2" fill="#f97316"/>
  <rect x="5" y="4" width="2" height="2" fill="#fb7185"/>
  <rect x="25" y="4" width="2" height="2" fill="#fb7185"/>
  <rect x="4" y="3" width="2" height="1" fill="#fbcfe8"/>
  <rect x="26" y="3" width="2" height="1" fill="#fbcfe8"/>
</svg>
