<svg xmlns="http://www.w3.org/2000/svg" viewBox="0 0 120 120" role="img" aria-labelledby="title desc">
  <title id="title">Bergtroll</title>
  <desc id="desc">Ein mächtiger Bergtroll mit Felskeule und schroffen Panzerplatten.</desc>
  <defs>
    <radialGradient id="btBg" cx="50%" cy="40%" r="62%">
      <stop offset="0%" stop-color="#172554" stop-opacity="0" />
      <stop offset="70%" stop-color="#0f172a" stop-opacity="0.85" />
      <stop offset="100%" stop-color="#020617" />
    </radialGradient>
    <linearGradient id="btSkin" x1="0%" y1="0%" x2="0%" y2="100%">
      <stop offset="0%" stop-color="#a3bffa" />
      <stop offset="100%" stop-color="#475569" />
    </linearGradient>
    <linearGradient id="btArmor" x1="0%" y1="0%" x2="100%" y2="100%">
      <stop offset="0%" stop-color="#facc15" />
      <stop offset="60%" stop-color="#b45309" />
      <stop offset="100%" stop-color="#78350f" />
    </linearGradient>
  </defs>
  <rect width="120" height="120" fill="#0b1220" />
  <circle cx="60" cy="56" r="54" fill="url(#btBg)" />
  <ellipse cx="60" cy="108" rx="34" ry="7" fill="rgba(8,15,30,0.7)" />
  <g transform="translate(0,-6)">
    <path d="M32 46 C38 26 52 18 60 20 C68 18 82 26 88 46 C82 60 72 72 60 74 C48 72 38 60 32 46 Z" fill="url(#btSkin)" />
    <ellipse cx="60" cy="58" rx="28" ry="22" fill="url(#btSkin)" stroke="#334155" stroke-width="3" />
    <path d="M42 60 Q60 74 78 60" fill="rgba(51,65,85,0.5)" />
    <ellipse cx="48" cy="60" rx="4.8" ry="7" fill="#1e293b" />
    <ellipse cx="72" cy="60" rx="4.8" ry="7" fill="#1e293b" />
    <circle cx="48" cy="58" r="2.4" fill="#fde68a" />
    <circle cx="72" cy="58" r="2.4" fill="#fde68a" />
    <path d="M44 50 Q60 54 76 50" stroke="#1f2937" stroke-width="4" stroke-linecap="round" />
    <path d="M50 74 C58 82 62 82 70 74" stroke="#f97316" stroke-width="4" stroke-linecap="round" />
    <path d="M36 80 Q60 102 84 80 L82 98 C80 106 72 112 60 112 C48 112 40 106 38 98 Z" fill="url(#btArmor)" stroke="#7c2d12" stroke-width="2" />
    <path d="M30 32 L40 20 L50 30" fill="#0f172a" />
    <path d="M90 32 L80 20 L70 30" fill="#0f172a" />
    <g transform="translate(92,24)">
      <rect x="-6" y="0" width="12" height="48" rx="4" fill="#374151" />
      <path d="M-10 -10 L10 -10 L14 10 L-14 10 Z" fill="#d97706" stroke="#7c2d12" stroke-width="2" />
      <path d="M-10 -10 L0 -26 L10 -10 Z" fill="#facc15" stroke="#7c2d12" stroke-width="2" />
    </g>
    <path d="M46 90 L42 110" stroke="#1f2937" stroke-width="5" stroke-linecap="round" opacity="0.5" />
    <path d="M74 90 L78 110" stroke="#1f2937" stroke-width="5" stroke-linecap="round" opacity="0.5" />
  </g>
</svg>
