<svg xmlns="http://www.w3.org/2000/svg" viewBox="0 0 120 120" role="img" aria-labelledby="title desc">
  <title id="title">Kriegsgoblin</title>
  <desc id="desc">Ein Kriegsgoblin mit Trommel und Kriegsbemalung.</desc>
  <defs>
    <radialGradient id="kgBg" cx="50%" cy="40%" r="60%">
      <stop offset="0%" stop-color="#7f1d1d" stop-opacity="0" />
      <stop offset="70%" stop-color="#450a0a" stop-opacity="0.85" />
      <stop offset="100%" stop-color="#200404" />
    </radialGradient>
    <linearGradient id="kgSkin" x1="0%" y1="0%" x2="0%" y2="100%">
      <stop offset="0%" stop-color="#facc15" />
      <stop offset="100%" stop-color="#ca8a04" />
    </linearGradient>
    <linearGradient id="kgArmor" x1="0%" y1="0%" x2="100%" y2="100%">
      <stop offset="0%" stop-color="#f97316" />
      <stop offset="100%" stop-color="#b45309" />
    </linearGradient>
  </defs>
  <rect width="120" height="120" fill="#1a0505" />
  <circle cx="60" cy="56" r="54" fill="url(#kgBg)" />
  <ellipse cx="60" cy="108" rx="34" ry="7" fill="rgba(32,4,4,0.72)" />
  <g transform="translate(0,-4)">
    <path d="M36 82 Q60 108 84 82 L82 96 C78 104 70 110 60 110 C50 110 42 104 38 96 Z" fill="url(#kgArmor)" stroke="#7c2d12" stroke-width="2" />
    <ellipse cx="60" cy="56" rx="26" ry="20" fill="url(#kgSkin)" stroke="#92400e" stroke-width="2.5" />
    <path d="M42 56 Q60 70 78 56" fill="rgba(148,86,5,0.45)" />
    <path d="M32 42 C36 26 48 20 60 22 C72 20 84 26 88 42 C80 54 72 64 60 66 C48 64 40 54 32 42 Z" fill="url(#kgSkin)" />
    <ellipse cx="48" cy="54" rx="4.6" ry="6" fill="#7c2d12" />
    <ellipse cx="72" cy="54" rx="4.6" ry="6" fill="#7c2d12" />
    <circle cx="48" cy="52" r="2.2" fill="#fef08a" />
    <circle cx="72" cy="52" r="2.2" fill="#fef08a" />
    <path d="M44 46 Q60 50 76 46" stroke="#7c2d12" stroke-width="3" stroke-linecap="round" />
    <path d="M50 68 C56 74 64 74 70 68" stroke="#fff7ed" stroke-width="2.8" stroke-linecap="round" />
    <path d="M40 38 L60 22 L80 38 L60 44 Z" fill="url(#kgArmor)" stroke="#7c2d12" stroke-width="2" />
    <g transform="translate(60,78)">
      <ellipse cx="0" cy="0" rx="24" ry="14" fill="#78350f" stroke="#431407" stroke-width="2" />
      <path d="M-20 -4 L20 -4" stroke="#fbbf24" stroke-width="3" stroke-linecap="round" />
      <path d="M-16 0 L16 0" stroke="#fde68a" stroke-width="3" stroke-linecap="round" />
      <path d="M-12 4 L12 4" stroke="#fbbf24" stroke-width="3" stroke-linecap="round" />
    </g>
    <g transform="translate(26,30)">
      <path d="M-4 12 L10 0 L14 14" fill="#9a3412" stroke="#7f1d1d" stroke-width="2" />
      <circle cx="3" cy="12" r="3" fill="#f97316" />
    </g>
    <g transform="translate(94,30)">
      <path d="M4 12 L-10 0 L-14 14" fill="#9a3412" stroke="#7f1d1d" stroke-width="2" />
      <circle cx="-3" cy="12" r="3" fill="#f97316" />
    </g>
    <path d="M46 90 L42 106" stroke="#7f1d1d" stroke-width="4" stroke-linecap="round" opacity="0.6" />
    <path d="M74 90 L78 106" stroke="#7f1d1d" stroke-width="4" stroke-linecap="round" opacity="0.6" />
  </g>
</svg>
