<svg xmlns="http://www.w3.org/2000/svg" viewBox="0 0 32 32" shape-rendering="crispEdges" role="img" aria-label="Schattengoblin pixel art">
  <rect width="32" height="32" fill="none"/>
  <rect x="3" y="26" width="26" height="2" fill="#050112" opacity="0.5"/>
  <rect x="7" y="5" width="18" height="5" fill="#1e1b4b"/>
  <rect x="9" y="4" width="14" height="2" fill="#4338ca"/>
  <rect x="6" y="10" width="20" height="10" fill="#312e81"/>
  <rect x="8" y="11" width="16" height="8" fill="#4338ca"/>
  <rect x="11" y="12" width="10" height="5" fill="#6366f1"/>
  <rect x="9" y="10" width="4" height="2" fill="#0ea5e9"/>
  <rect x="19" y="10" width="4" height="2" fill="#0ea5e9"/>
  <rect x="13" y="15" width="2" height="2" fill="#22d3ee"/>
  <rect x="17" y="15" width="2" height="2" fill="#22d3ee"/>
  <rect x="8" y="19" width="16" height="6" fill="#0b1120"/>
  <rect x="9" y="20" width="14" height="5" fill="#111827"/>
  <rect x="10" y="20" width="4" height="7" fill="#1d4ed8"/>
  <rect x="18" y="20" width="4" height="7" fill="#1d4ed8"/>
  <rect x="7" y="13" width="3" height="4" fill="#4338ca"/>
  <rect x="22" y="13" width="3" height="4" fill="#4338ca"/>
  <rect x="5" y="12" width="3" height="3" fill="#4f46e5"/>
  <rect x="24" y="12" width="3" height="3" fill="#4f46e5"/>
  <rect x="6" y="16" width="3" height="3" fill="#312e81"/>
  <rect x="23" y="16" width="3" height="3" fill="#312e81"/>
  <rect x="11" y="8" width="10" height="1" fill="#c026d3"/>
  <rect x="12" y="7" width="8" height="1" fill="#e879f9"/>
  <rect x="13" y="6" width="6" height="1" fill="#f5d0fe"/>
  <rect x="8" y="22" width="4" height="2" fill="#22d3ee"/>
  <rect x="20" y="22" width="4" height="2" fill="#22d3ee"/>
</svg>
