<svg xmlns="http://www.w3.org/2000/svg" viewBox="0 0 120 120" role="img" aria-labelledby="title">
  <title>Gruener Goblin</title>
  <defs>
    <linearGradient id="gg-bg" x1="10" y1="0" x2="110" y2="120" gradientUnits="userSpaceOnUse">
      <stop offset="0" stop-color="#12301f"/>
      <stop offset="1" stop-color="#05150a"/>
    </linearGradient>
    <linearGradient id="gg-skin" x1="32" y1="20" x2="92" y2="100" gradientUnits="userSpaceOnUse">
      <stop offset="0" stop-color="#a7f07a"/>
      <stop offset="1" stop-color="#2c7c1d"/>
    </linearGradient>
  </defs>
  <path d="M13 65c6-14 22-25 35-27-4 9-5 20-3 26-9 0-18-2-32-1z" fill="#53af2a" stroke="#06220f" stroke-width="2"/>
  <path d="M107 65c-6-14-22-25-35-27 4 9 5 20 3 26 9 0 18-2 32-1z" fill="#1f5c11" stroke="#03140a" stroke-width="2"/>
  <circle cx="60" cy="60" r="34" fill="url(#gg-skin)" stroke="#041804" stroke-width="3"/>
  <path d="M40 79c6 4 13 6 20 6s14-2 20-6" fill="none" stroke="#041804" stroke-width="3" stroke-linecap="round"/>
  <path d="M40 51c-4 1-6-5-6-10s9-7 16-5c-4 5-7 12-10 15z" fill="#5bd429" stroke="#041804" stroke-width="2"/>
  <path d="M80 51c4 1 6-5 6-10s-9-7-16-5c4 5 7 12 10 15z" fill="#2b780e" stroke="#041804" stroke-width="2"/>
  <rect x="33" y="66" width="54" height="9" rx="4.5" fill="#021203"/>
  <path d="M37 70c6 4 15 7 23 7s17-3 23-7" stroke="#7fff4f" stroke-width="2" stroke-linecap="round"/>
  <circle cx="46" cy="56" r="5" fill="#021203"/>
  <circle cx="74" cy="56" r="5" fill="#021203"/>
  <path d="M50 87c4 3 7 4 10 4s6-1 10-4" fill="none" stroke="#052006" stroke-width="2" stroke-linecap="round"/>
  <path d="M60 32l-11 6c-1-4 1-8 4-10s7-2 7-2 4 0 7 2 5 6 4 10l-11-6z" fill="#73ff3d" stroke="#041804" stroke-width="2"/>
</svg>
