<svg width="200" height="200" viewBox="0 0 200 200" fill="none" xmlns="http://www.w3.org/2000/svg">
  <defs>
    <linearGradient id="dg2_bg" x1="28" y1="14" x2="172" y2="186" gradientUnits="userSpaceOnUse">
      <stop offset="0" stop-color="#3f0f1b"/>
      <stop offset="0.5" stop-color="#7e22ce"/>
      <stop offset="1" stop-color="#f43f5e"/>
    </linearGradient>
    <radialGradient id="dg2_glow" cx="0" cy="0" r="1" gradientUnits="userSpaceOnUse" gradientTransform="translate(100 92) scale(88 72)">
      <stop offset="0" stop-color="#f472b6" stop-opacity="0.55"/>
      <stop offset="1" stop-color="#7e22ce" stop-opacity="0"/>
    </radialGradient>
    <linearGradient id="dg2_body" x1="60" y1="66" x2="140" y2="160" gradientUnits="userSpaceOnUse">
      <stop offset="0" stop-color="#db2777"/>
      <stop offset="1" stop-color="#7e22ce"/>
    </linearGradient>
  </defs>
  <rect width="200" height="200" rx="24" fill="url(#dg2_bg)"/>
  <rect width="200" height="200" rx="24" fill="url(#dg2_glow)"/>
  <path d="M44 154c18 24 44 38 56 38s38-14 56-38c-24-8-32-22-36-34-4-12-10-28-20-28h-0.5c-10 0-16 16-20 28-4 12-12 26-36 34Z" fill="#2d0f21" opacity="0.55"/>
  <path d="M64 68c-12 12-20 26-20 42 0 28 22 46 56 46s56-18 56-46c0-16-8-30-20-42l-18 20-18-6-18 6-18-20Z" fill="url(#dg2_body)"/>
  <path d="M100 40c-18 0-30 12-30 34 0 12 6 20 14 24l-6 28 22 14 22-14-6-28c8-4 14-12 14-24 0-22-12-34-30-34Z" fill="#ffe4f3"/>
  <path d="M74 106c8 14 18 20 26 20s18-6 26-20c-8-14-16-22-26-22s-18 8-26 22Z" fill="#c026d3" opacity="0.45"/>
  <path d="M86 132c-10 0-18 8-18 16 0 8 6 14 14 14 12 0 22-8 22-16 0-8-8-14-18-14Z" fill="#3b0a1b" opacity="0.45"/>
  <path d="M114 132c-10 0-18 6-18 14 0 8 10 16 22 16 8 0 14-6 14-14 0-8-8-16-18-16Z" fill="#3b0a1b" opacity="0.4"/>
  <path d="M86 72c-6 0-10 4-10 10 0 6 4 10 10 10s10-4 10-10c0-6-4-10-10-10Z" fill="#2d0f21"/>
  <path d="M114 72c-6 0-10 4-10 10 0 6 4 10 10 10s10-4 10-10c0-6-4-10-10-10Z" fill="#2d0f21"/>
  <path d="M90 124c0 10 8 16 10 16s10-6 10-16-8-18-10-18-10 8-10 18Z" fill="#ffe4f3"/>
  <path d="M100 142c-6 0-10 4-10 8s4 8 10 8 10-4 10-8-4-8-10-8Z" fill="#f43f5e"/>
  <path d="M72 92c-8-12-12-28-2-40 6 10 16 16 26 18-10 4-18 10-24 22Z" fill="#ffe4f3" opacity="0.6"/>
  <path d="M128 92c-8-12-14-18-24-22 10-2 20-8 26-18 10 12 6 28-2 40Z" fill="#ffe4f3" opacity="0.5"/>
  <path d="M84 66c-4 0-6 2-6 4s2 4 6 4 6-2 6-4-2-4-6-4Z" fill="#fff0f6"/>
  <path d="M116 66c-4 0-6 2-6 4s2 4 6 4 6-2 6-4-2-4-6-4Z" fill="#fff0f6"/>
  <path d="M68 150c-4 0-8 4-8 8s4 6 8 6 8-2 8-6-4-8-8-8Z" fill="#f472b6"/>
  <path d="M132 150c-4 0-8 4-8 8s4 6 8 6 8-2 8-6-4-8-8-8Z" fill="#f472b6"/>
  <path d="M100 82c-4 0-6 2-6 6s2 6 6 6 6-2 6-6-2-6-6-6Z" fill="#2d0f21"/>
  <path d="M76 60c-6-8-8-20-2-28 6 6 10 16 12 24l-10-4Z" fill="#f9a8d4"/>
  <path d="M124 60c6-8 8-20 2-28-6 6-10 16-12 24l10-4Z" fill="#f9a8d4"/>
</svg>
