<svg xmlns="http://www.w3.org/2000/svg" viewBox="0 0 32 32" shape-rendering="crispEdges">
  <rect width="32" height="32" fill="none"/>
  <rect x="8" y="26" width="16" height="2" fill="#1b0a0a" opacity="0.65"/>
  <rect x="9" y="27" width="14" height="1" fill="#2b1111" opacity="0.55"/>
  <rect x="10" y="22" width="5" height="4" fill="#7f1d1d"/>
  <rect x="17" y="22" width="5" height="4" fill="#7f1d1d"/>
  <rect x="10" y="18" width="12" height="6" fill="#b91c1c"/>
  <rect x="11" y="19" width="10" height="1" fill="#f87171"/>
  <rect x="9" y="14" width="14" height="5" fill="#b91c1c"/>
  <rect x="10" y="15" width="12" height="3" fill="#ef4444"/>
  <rect x="8" y="12" width="16" height="3" fill="#7f1d1d"/>
  <rect x="7" y="12" width="3" height="7" fill="#991b1b"/>
  <rect x="22" y="12" width="3" height="7" fill="#991b1b"/>
  <rect x="6" y="15" width="2" height="4" fill="#fde68a"/>
  <rect x="24" y="15" width="2" height="4" fill="#fde68a"/>
  <rect x="5" y="17" width="2" height="3" fill="#78350f"/>
  <rect x="25" y="17" width="2" height="3" fill="#78350f"/>
  <rect x="12" y="9" width="8" height="3" fill="#f87171"/>
  <rect x="11" y="8" width="2" height="2" fill="#450a0a"/>
  <rect x="19" y="8" width="2" height="2" fill="#450a0a"/>
  <rect x="14" y="10" width="4" height="1" fill="#fde68a"/>
  <rect x="10" y="6" width="12" height="2" fill="#d97706"/>
  <rect x="11" y="5" width="10" height="1" fill="#b45309"/>
  <rect x="9" y="7" width="2" height="3" fill="#7f1d1d"/>
  <rect x="21" y="7" width="2" height="3" fill="#7f1d1d"/>
  <rect x="13" y="4" width="6" height="1" fill="#eab308"/>
  <rect x="14" y="3" width="4" height="1" fill="#fbbf24"/>
  <rect x="15" y="2" width="2" height="1" fill="#fde68a"/>
</svg>
