<svg xmlns="http://www.w3.org/2000/svg" viewBox="0 0 32 32" shape-rendering="crispEdges" role="img" aria-label="Daemonengoblin pixel art">
  <rect width="32" height="32" fill="none"/>
  <rect x="3" y="27" width="26" height="2" fill="#140104" opacity="0.5"/>
  <rect x="7" y="5" width="18" height="5" fill="#7c2d12"/>
  <rect x="9" y="4" width="14" height="2" fill="#ea580c"/>
  <rect x="6" y="10" width="20" height="11" fill="#b91c1c"/>
  <rect x="8" y="11" width="16" height="9" fill="#ef4444"/>
  <rect x="11" y="12" width="10" height="6" fill="#f97316"/>
  <rect x="9" y="10" width="4" height="2" fill="#fcd34d"/>
  <rect x="19" y="10" width="4" height="2" fill="#fcd34d"/>
  <rect x="13" y="15" width="2" height="2" fill="#7f1d1d"/>
  <rect x="17" y="15" width="2" height="2" fill="#7f1d1d"/>
  <rect x="8" y="20" width="16" height="6" fill="#450a0a"/>
  <rect x="9" y="21" width="14" height="5" fill="#7f1d1d"/>
  <rect x="10" y="21" width="4" height="7" fill="#0f172a"/>
  <rect x="18" y="21" width="4" height="7" fill="#0f172a"/>
  <rect x="7" y="13" width="3" height="4" fill="#f97316"/>
  <rect x="22" y="13" width="3" height="4" fill="#f97316"/>
  <rect x="5" y="12" width="3" height="3" fill="#fb923c"/>
  <rect x="24" y="12" width="3" height="3" fill="#fb923c"/>
  <rect x="6" y="16" width="3" height="4" fill="#9a3412"/>
  <rect x="23" y="16" width="3" height="4" fill="#9a3412"/>
  <rect x="11" y="8" width="10" height="1" fill="#fde68a"/>
  <rect x="12" y="7" width="8" height="1" fill="#fef3c7"/>
  <rect x="13" y="6" width="6" height="1" fill="#fff7ed"/>
  <rect x="7" y="4" width="4" height="2" fill="#f97316"/>
  <rect x="21" y="4" width="4" height="2" fill="#f97316"/>
  <rect x="6" y="3" width="3" height="1" fill="#fb7185"/>
  <rect x="23" y="3" width="3" height="1" fill="#fb7185"/>
  <rect x="6" y="2" width="2" height="1" fill="#fbcfe8"/>
  <rect x="24" y="2" width="2" height="1" fill="#fbcfe8"/>
</svg>
