<svg xmlns="http://www.w3.org/2000/svg" viewBox="0 0 32 32" shape-rendering="crispEdges">
  <rect width="32" height="32" fill="none"/>
  <rect x="8" y="26" width="16" height="2" fill="#052e16" opacity="0.6"/>
  <rect x="9" y="27" width="14" height="1" fill="#064e1a" opacity="0.5"/>
  <rect x="10" y="22" width="5" height="4" fill="#166534"/>
  <rect x="17" y="22" width="5" height="4" fill="#166534"/>
  <rect x="10" y="18" width="12" height="6" fill="#15803d"/>
  <rect x="11" y="19" width="10" height="1" fill="#4ade80"/>
  <rect x="9" y="14" width="14" height="4" fill="#15803d"/>
  <rect x="10" y="15" width="12" height="2" fill="#86efac"/>
  <rect x="8" y="12" width="16" height="2" fill="#0f766e"/>
  <rect x="7" y="12" width="3" height="7" fill="#134e4a"/>
  <rect x="22" y="12" width="3" height="7" fill="#134e4a"/>
  <rect x="6" y="15" width="2" height="4" fill="#4ade80"/>
  <rect x="24" y="15" width="2" height="4" fill="#4ade80"/>
  <rect x="5" y="17" width="2" height="3" fill="#022c22"/>
  <rect x="25" y="17" width="2" height="3" fill="#022c22"/>
  <rect x="12" y="9" width="8" height="3" fill="#bbf7d0"/>
  <rect x="11" y="8" width="2" height="2" fill="#064e3b"/>
  <rect x="19" y="8" width="2" height="2" fill="#064e3b"/>
  <rect x="14" y="10" width="4" height="1" fill="#0f172a"/>
  <rect x="10" y="6" width="12" height="2" fill="#15803d"/>
  <rect x="9" y="5" width="14" height="1" fill="#047857"/>
  <rect x="12" y="4" width="8" height="1" fill="#22c55e"/>
  <rect x="13" y="3" width="6" height="1" fill="#86efac"/>
  <rect x="7" y="6" width="6" height="2" fill="#16a34a"/>
  <rect x="19" y="6" width="6" height="2" fill="#16a34a"/>
</svg>
