<svg xmlns="http://www.w3.org/2000/svg" viewBox="0 0 120 120" role="img" aria-labelledby="title desc">
  <title id="title">Kobold Speerkaempfer</title>
  <desc id="desc">Ein wilder Kobold mit Speer, bronzegrüner Haut und Lederpanzer.</desc>
  <defs>
    <radialGradient id="koboldBg" cx="50%" cy="40%" r="60%">
      <stop offset="0%" stop-color="#0f172a" stop-opacity="0" />
      <stop offset="75%" stop-color="#0b1120" stop-opacity="0.85" />
      <stop offset="100%" stop-color="#020617" />
    </radialGradient>
    <linearGradient id="koboldSkin" x1="0%" y1="0%" x2="0%" y2="100%">
      <stop offset="0%" stop-color="#34d399" />
      <stop offset="60%" stop-color="#059669" />
      <stop offset="100%" stop-color="#047857" />
    </linearGradient>
    <linearGradient id="koboldArmor" x1="0%" y1="0%" x2="100%" y2="100%">
      <stop offset="0%" stop-color="#92400e" />
      <stop offset="100%" stop-color="#78350f" />
    </linearGradient>
  </defs>
  <rect width="120" height="120" fill="#020617" />
  <circle cx="60" cy="56" r="54" fill="url(#koboldBg)" />
  <ellipse cx="60" cy="108" rx="34" ry="7" fill="rgba(4,12,24,0.7)" />
  <g transform="translate(0,-2)">
    <path d="M34 62 C20 50 18 30 30 26 C42 22 54 38 60 44 C66 38 78 22 90 26 C102 30 100 50 86 62" fill="url(#koboldSkin)" />
    <path d="M38 64 Q60 76 82 64 L78 92 C78 98 72 104 60 104 C48 104 42 98 42 92 Z" fill="url(#koboldArmor)" stroke="#451a03" stroke-width="2" />
    <ellipse cx="60" cy="56" rx="26" ry="20" fill="url(#koboldSkin)" stroke="#064e3b" stroke-width="2.5" />
    <path d="M40 58 Q60 70 80 58" fill="rgba(6,78,59,0.4)" />
    <ellipse cx="48" cy="56" rx="5" ry="7" fill="#022c22" />
    <ellipse cx="72" cy="56" rx="5" ry="7" fill="#022c22" />
    <circle cx="48" cy="54" r="2.5" fill="#bef264" />
    <circle cx="72" cy="54" r="2.5" fill="#bef264" />
    <path d="M46 68 C52 74 68 74 74 68" stroke="#d1fae5" stroke-width="3" stroke-linecap="round" />
    <path d="M60 38 Q52 44 44 42" stroke="#0f172a" stroke-width="3" stroke-linecap="round" opacity="0.65" />
    <path d="M60 38 Q68 44 76 42" stroke="#0f172a" stroke-width="3" stroke-linecap="round" opacity="0.65" />
    <path d="M28 30 L26 18 L30 14 L34 30 Z" fill="#c4b5fd" stroke="#312e81" stroke-width="2" />
    <path d="M92 30 L94 18 L90 14 L86 30 Z" fill="#fca5a5" stroke="#7f1d1d" stroke-width="2" />
    <g transform="translate(14,20)">
      <path d="M0 4 L52 72" stroke="#facc15" stroke-width="4" stroke-linecap="round" />
      <path d="M-2 2 L2 2 L4 -12 L0 -14 Z" fill="#f97316" stroke="#7c2d12" stroke-width="1" />
    </g>
    <path d="M50 80 L45 106" stroke="#0c4a6e" stroke-width="4" stroke-linecap="round" opacity="0.6" />
    <path d="M70 80 L75 106" stroke="#0c4a6e" stroke-width="4" stroke-linecap="round" opacity="0.6" />
  </g>
</svg>
