<svg width="200" height="200" viewBox="0 0 200 200" fill="none" xmlns="http://www.w3.org/2000/svg">
  <defs>
    <linearGradient id="wg_bg" x1="26" y1="18" x2="174" y2="182" gradientUnits="userSpaceOnUse">
      <stop offset="0" stop-color="#052e16"/>
      <stop offset="0.45" stop-color="#14532d"/>
      <stop offset="1" stop-color="#22c55e"/>
    </linearGradient>
    <radialGradient id="wg_glow" cx="0" cy="0" r="1" gradientUnits="userSpaceOnUse" gradientTransform="translate(100 90) scale(86 68)">
      <stop offset="0" stop-color="#facc15" stop-opacity="0.45"/>
      <stop offset="1" stop-color="#22c55e" stop-opacity="0"/>
    </radialGradient>
  </defs>
  <rect width="200" height="200" rx="24" fill="url(#wg_bg)"/>
  <rect width="200" height="200" rx="24" fill="url(#wg_glow)"/>
  <path d="M40 152c14 22 42 38 60 38s46-16 60-38c-24-8-36-20-40-34-4-12-8-26-20-26h-0.5c-12 0-16 14-20 26-4 14-16 26-40 34Z" fill="#022c22" opacity="0.45"/>
  <path d="M64 64c-12 10-20 26-20 40 0 26 22 46 56 46s56-20 56-46c0-14-8-30-20-40l-16 20-20-6-20 6-16-20Z" fill="#16a34a"/>
  <path d="M100 40c-16 0-28 12-28 32 0 12 6 18 14 22l-6 30 20 12 20-12-6-30c8-4 14-10 14-22 0-20-12-32-28-32Z" fill="#fef9c3"/>
  <path d="M76 98c8 12 18 16 24 16s16-4 24-16c-6-14-14-22-24-22s-18 8-24 22Z" fill="#15803d" opacity="0.5"/>
  <path d="M82 126c-12 0-20 8-20 16 0 6 4 12 14 12 12 0 22-6 22-16s-8-12-16-12Z" fill="#022c22" opacity="0.35"/>
  <path d="M118 126c-8 0-16 4-16 12s10 16 22 16c10 0 14-6 14-12 0-8-8-16-20-16Z" fill="#022c22" opacity="0.3"/>
  <path d="M84 70c-6 0-10 4-10 10 0 4 4 8 10 8 6 0 10-4 10-8 0-6-4-10-10-10Z" fill="#0f172a"/>
  <path d="M116 70c-6 0-10 4-10 10 0 4 4 8 10 8 6 0 10-4 10-8 0-6-4-10-10-10Z" fill="#0f172a"/>
  <path d="M90 118c0 10 6 14 10 14s10-4 10-14-6-18-10-18-10 8-10 18Z" fill="#fef3c7"/>
  <path d="M100 138c-6 0-10 4-10 8s4 8 10 8 10-4 10-8-4-8-10-8Z" fill="#166534"/>
  <path d="M72 86c-10-10-16-26-6-40 6 8 16 16 30 18-12 4-18 10-24 22Z" fill="#fef9c3" opacity="0.7"/>
  <path d="M128 86c-6-12-12-18-24-22 14-2 24-10 30-18 10 14 4 30-6 40Z" fill="#fef9c3" opacity="0.6"/>
  <path d="M68 148c-4 0-8 2-8 6s4 6 8 6 8-2 8-6-4-6-8-6Z" fill="#4ade80"/>
  <path d="M132 148c-4 0-8 2-8 6s4 6 8 6 8-2 8-6-4-6-8-6Z" fill="#4ade80"/>
  <path d="M86 64c-4 0-6 2-6 4s2 4 6 4 6-2 6-4-2-4-6-4Z" fill="#fefce8"/>
  <path d="M114 64c-4 0-6 2-6 4s2 4 6 4 6-2 6-4-2-4-6-4Z" fill="#fefce8"/>
  <path d="M100 82c-4 0-6 2-6 6 0 3 2 6 6 6s6-3 6-6c0-4-2-6-6-6Z" fill="#0f172a"/>
</svg>
