<svg viewBox="0 0 64 64" xmlns="http://www.w3.org/2000/svg" role="img" aria-hidden="true" shape-rendering="crispEdges">
  <rect width="64" height="64" fill="none"/>
  <g opacity="0.85">
    <rect x="18" y="56" width="28" height="4" fill="rgba(15,23,42,0.55)"/>
    <rect x="20" y="55" width="24" height="1" fill="rgba(94,234,212,0.2)"/>
  </g>
  <g>
    <rect x="24" y="10" width="16" height="12" fill="#14b8a6" stroke="#0f766e" stroke-width="1"/>
    <rect x="22" y="22" width="20" height="18" fill="#0d9488" stroke="#0f766e" stroke-width="1"/>
    <rect x="24" y="40" width="16" height="10" fill="#0f766e" stroke="#0b5250" stroke-width="1"/>
  </g>
  <g>
    <rect x="28" y="16" width="4" height="2" fill="#022c22"/>
    <rect x="34" y="16" width="4" height="2" fill="#022c22"/>
    <rect x="30" y="20" width="6" height="2" fill="#022c22"/>
    <rect x="26" y="12" width="4" height="2" fill="#5eead4"/>
    <rect x="34" y="12" width="4" height="2" fill="#5eead4"/>
  </g>
  <g>
    <rect x="22" y="28" width="20" height="4" fill="#0f172a" opacity="0.35"/>
    <rect x="28" y="34" width="8" height="2" fill="#2dd4bf"/>
  </g>
  <g>
    <rect x="24" y="46" width="6" height="10" fill="#0f766e" stroke="#0b5250" stroke-width="1"/>
    <rect x="34" y="46" width="6" height="10" fill="#0f766e" stroke="#0b5250" stroke-width="1"/>
    <rect x="22" y="56" width="8" height="4" fill="#0f172a"/>
    <rect x="34" y="56" width="8" height="4" fill="#0f172a"/>
  </g>
  <g>
    <rect x="14" y="26" width="6" height="4" fill="#0f766e"/>
    <rect x="10" y="20" width="6" height="18" fill="#14b8a6" stroke="#0f766e" stroke-width="1"/>
    <rect x="8" y="14" width="4" height="22" fill="#115e59"/>
    <rect x="6" y="12" width="2" height="16" fill="#78350f"/>
    <rect x="4" y="10" width="2" height="20" fill="#b45309"/>
  </g>
  <g>
    <rect x="44" y="18" width="8" height="6" fill="#0f766e"/>
    <rect x="46" y="12" width="12" height="4" fill="#134e4a"/>
    <rect x="52" y="10" width="6" height="2" fill="#083344"/>
    <rect x="50" y="14" width="4" height="24" fill="#78350f"/>
    <rect x="48" y="36" width="8" height="4" fill="#cbd5f5"/>
  </g>
</svg>
