<svg xmlns="http://www.w3.org/2000/svg" viewBox="0 0 32 32" shape-rendering="crispEdges">
  <rect width="32" height="32" fill="none"/>
  <rect x="7" y="26" width="18" height="2" fill="#0f172a" opacity="0.65"/>
  <rect x="8" y="27" width="16" height="1" fill="#1f2937" opacity="0.55"/>
  <rect x="9" y="22" width="6" height="4" fill="#166534"/>
  <rect x="17" y="22" width="6" height="4" fill="#166534"/>
  <rect x="9" y="18" width="14" height="6" fill="#10b981"/>
  <rect x="10" y="19" width="12" height="1" fill="#34d399"/>
  <rect x="8" y="14" width="16" height="4" fill="#047857"/>
  <rect x="9" y="15" width="14" height="2" fill="#34d399"/>
  <rect x="7" y="12" width="18" height="2" fill="#166534"/>
  <rect x="6" y="12" width="3" height="7" fill="#0f172a"/>
  <rect x="23" y="12" width="3" height="7" fill="#0f172a"/>
  <rect x="5" y="15" width="2" height="4" fill="#fbbf24"/>
  <rect x="25" y="15" width="2" height="4" fill="#fbbf24"/>
  <rect x="4" y="17" width="2" height="3" fill="#f59e0b"/>
  <rect x="26" y="17" width="2" height="3" fill="#f59e0b"/>
  <rect x="11" y="9" width="10" height="3" fill="#22c55e"/>
  <rect x="10" y="8" width="2" height="2" fill="#0f172a"/>
  <rect x="20" y="8" width="2" height="2" fill="#0f172a"/>
  <rect x="13" y="10" width="6" height="1" fill="#fde047"/>
  <rect x="9" y="6" width="14" height="2" fill="#047857"/>
  <rect x="8" y="5" width="16" height="1" fill="#0f172a"/>
  <rect x="11" y="4" width="10" height="1" fill="#f97316"/>
  <rect x="12" y="3" width="8" height="1" fill="#facc15"/>
  <rect x="13" y="2" width="6" height="1" fill="#fde047"/>
  <rect x="14" y="1" width="4" height="1" fill="#fbbf24"/>
  <rect x="6" y="7" width="5" height="2" fill="#1d4ed8"/>
  <rect x="21" y="7" width="5" height="2" fill="#1d4ed8"/>
  <rect x="5" y="9" width="4" height="2" fill="#1e3a8a"/>
  <rect x="23" y="9" width="4" height="2" fill="#1e3a8a"/>
</svg>
