<svg xmlns="http://www.w3.org/2000/svg" viewBox="0 0 120 120" role="img" aria-labelledby="title">
  <title>Kobold</title>
  <defs>
    <linearGradient id="kobold-bg" x1="20" y1="10" x2="100" y2="110" gradientUnits="userSpaceOnUse">
      <stop offset="0" stop-color="#11302c"/>
      <stop offset="1" stop-color="#041a19"/>
    </linearGradient>
    <linearGradient id="kobold-skin" x1="32" y1="26" x2="92" y2="90" gradientUnits="userSpaceOnUse">
      <stop offset="0" stop-color="#45d988"/>
      <stop offset="1" stop-color="#0b7d4f"/>
    </linearGradient>
  </defs>
  <rect width="120" height="120" rx="28" fill="url(#kobold-bg)"/>
  <path d="M22 46c10-8 20-12 28-12-5 8-6 13-6 18-6-1-12-2-22-6z" fill="#0f9760"/>
  <path d="M98 46c-10-8-20-12-28-12 5 8 6 13 6 18 6-1 12-2 22-6z" fill="#0a6a42"/>
  <circle cx="60" cy="58" r="33" fill="url(#kobold-skin)" stroke="#042a1c" stroke-width="3"/>
  <path d="M39 70c5 7 13 11 21 11s16-4 21-11" fill="none" stroke="#042716" stroke-width="3" stroke-linecap="round"/>
  <path d="M48 63c-3 0-5-2-5-5s2-5 5-5 5 2 5 5-2 5-5 5zm24 0c-3 0-5-2-5-5s2-5 5-5 5 2 5 5-2 5-5 5z" fill="#03130d"/>
  <path d="M56 78h8c0 4-2 7-4 7s-4-3-4-7z" fill="#f2a365" stroke="#042716" stroke-width="2"/>
  <path d="M35 47c2 5 8 8 11 5s1-9-4-13c-5-4-11-4-16-2 3 2 7 6 9 10z" fill="#45d988" stroke="#042716" stroke-width="2"/>
  <path d="M85 47c-2 5-8 8-11 5s-1-9 4-13 11-4 16-2c-3 2-7 6-9 10z" fill="#0fb76e" stroke="#042716" stroke-width="2"/>
  <path d="M51 83c3 3 6 5 9 5s6-2 9-5" fill="none" stroke="#0f3b28" stroke-width="2" stroke-linecap="round"/>
  <circle cx="40" cy="76" r="4" fill="#f4d35e"/>
  <circle cx="80" cy="76" r="4" fill="#f4d35e"/>
</svg>
