<svg xmlns="http://www.w3.org/2000/svg" viewBox="0 0 120 160" role="img" aria-labelledby="title desc">
  <title id="title">Shortcut Knight Standbild</title>
  <desc id="desc">Der Shortcut Knight mit strahlender Rüstung, Schwert und Schild.</desc>
  <defs>
    <radialGradient id="heroGlow" cx="50%" cy="35%" r="70%">
      <stop offset="0%" stop-color="#1e293b" stop-opacity="0" />
      <stop offset="70%" stop-color="#0f172a" stop-opacity="0.8" />
      <stop offset="100%" stop-color="#020617" />
    </radialGradient>
    <linearGradient id="heroArmor" x1="0%" y1="0%" x2="0%" y2="100%">
      <stop offset="0%" stop-color="#e2e8f0" />
      <stop offset="50%" stop-color="#94a3b8" />
      <stop offset="100%" stop-color="#475569" />
    </linearGradient>
    <linearGradient id="heroCape" x1="10%" y1="0%" x2="90%" y2="100%">
      <stop offset="0%" stop-color="#1d4ed8" />
      <stop offset="100%" stop-color="#0f172a" />
    </linearGradient>
    <linearGradient id="heroSword" x1="0%" y1="0%" x2="100%" y2="100%">
      <stop offset="0%" stop-color="#f8fafc" />
      <stop offset="60%" stop-color="#cbd5f5" />
      <stop offset="100%" stop-color="#64748b" />
    </linearGradient>
    <linearGradient id="heroGold" x1="0%" y1="0%" x2="0%" y2="100%">
      <stop offset="0%" stop-color="#fde68a" />
      <stop offset="50%" stop-color="#f59e0b" />
      <stop offset="100%" stop-color="#b45309" />
    </linearGradient>
  </defs>
  <rect width="120" height="160" fill="#020617" />
  <ellipse cx="60" cy="146" rx="38" ry="10" fill="rgba(15,23,42,0.82)" />
  <circle cx="60" cy="70" r="68" fill="url(#heroGlow)" />
  <g transform="translate(0,-4)">
    <path d="M32 120 Q60 152 88 120 L86 132 C82 140 72 148 60 148 C48 148 38 140 34 132 Z" fill="url(#heroCape)" opacity="0.9" />
    <g transform="translate(16,70)">
      <path d="M20 0 L38 8 V28 C38 40 20 54 20 54 C20 54 2 40 2 28 V8 Z" fill="#0f172a" stroke="#38bdf8" stroke-width="3" stroke-linejoin="round" />
      <path d="M20 6 L32 12 V26 C32 34 20 44 20 44 C20 44 8 34 8 26 V12 Z" fill="rgba(56,189,248,0.5)" />
      <circle cx="20" cy="22" r="5" fill="#bae6fd" />
    </g>
    <g transform="translate(44,36)">
      <rect x="0" y="32" width="32" height="52" rx="14" fill="url(#heroArmor)" stroke="#1e293b" stroke-width="3" />
      <path d="M0 56 Q16 66 32 56" fill="#111827" opacity="0.55" />
      <path d="M12 32 L16 20 L32 20 L36 32" fill="url(#heroArmor)" stroke="#1e293b" stroke-width="2" />
      <rect x="10" y="80" width="12" height="20" rx="6" fill="#111827" />
      <rect x="22" y="80" width="12" height="20" rx="6" fill="#111827" />
    </g>
    <g transform="translate(42,20)">
      <path d="M18 0 C30 0 38 10 38 24 V34 C38 44 32 52 18 52 C4 52 -2 44 -2 34 V24 C-2 10 6 0 18 0 Z" fill="url(#heroArmor)" stroke="#1e293b" stroke-width="3" />
      <path d="M2 30 H34" stroke="#0f172a" stroke-width="4" stroke-linecap="round" />
      <path d="M6 20 H30" stroke="#f8fafc" stroke-width="3" stroke-linecap="round" opacity="0.8" />
      <circle cx="8" cy="28" r="3.4" fill="#0f172a" />
      <circle cx="28" cy="28" r="3.4" fill="#0f172a" />
      <path d="M18 6 V-6" stroke="#f8fafc" stroke-width="4" stroke-linecap="round" />
    </g>
    <g transform="translate(88,60)">
      <rect x="6" y="-10" width="6" height="72" rx="3" fill="url(#heroSword)" stroke="#64748b" stroke-width="1.5" />
      <rect x="2" y="46" width="14" height="6" rx="3" fill="url(#heroGold)" />
      <rect x="4" y="52" width="10" height="10" rx="4" fill="#b45309" />
      <circle cx="9" cy="58" r="2" fill="#0f172a" />
      <path d="M9 -10 L14 -2 L9 12 L4 -2 Z" fill="#f8fafc" opacity="0.65" />
    </g>
    <g transform="translate(60,84)">
      <circle cx="0" cy="0" r="10" fill="rgba(15,23,42,0.8)" stroke="url(#heroGold)" stroke-width="2" />
      <path d="M0 -6 L4 8 L0 6 L-4 8 Z" fill="#38bdf8" />
    </g>
  </g>
</svg>
