<svg width="200" height="200" viewBox="0 0 200 200" fill="none" xmlns="http://www.w3.org/2000/svg">
  <defs>
    <linearGradient id="hero_bg" x1="30" y1="10" x2="170" y2="190" gradientUnits="userSpaceOnUse">
      <stop offset="0" stop-color="#1f3b73"/>
      <stop offset="0.5" stop-color="#2d6ef5"/>
      <stop offset="1" stop-color="#8fd0ff"/>
    </linearGradient>
    <linearGradient id="hero_armor" x1="65" y1="40" x2="135" y2="170" gradientUnits="userSpaceOnUse">
      <stop offset="0" stop-color="#f1f5f9"/>
      <stop offset="0.45" stop-color="#d3e1ff"/>
      <stop offset="1" stop-color="#7da4ff"/>
    </linearGradient>
    <linearGradient id="hero_cape" x1="40" y1="70" x2="160" y2="190" gradientUnits="userSpaceOnUse">
      <stop offset="0" stop-color="#fb923c"/>
      <stop offset="1" stop-color="#c2410c"/>
    </linearGradient>
    <radialGradient id="hero_glow" cx="0" cy="0" r="1" gradientUnits="userSpaceOnUse" gradientTransform="translate(100 72) scale(90 60)">
      <stop offset="0" stop-color="#fefce8" stop-opacity="0.9"/>
      <stop offset="1" stop-color="#fde68a" stop-opacity="0"/>
    </radialGradient>
  </defs>
  <rect width="200" height="200" rx="24" fill="url(#hero_bg)"/>
  <rect width="200" height="200" rx="24" fill="url(#hero_glow)" opacity="0.55"/>
  <path d="M156 164c-18-6-30.5-11.5-38-22l-18 12-18-12c-7.5 10.5-20 16-38 22l12 26h88l12-26Z" fill="#0f172a" opacity="0.32"/>
  <path d="M100 38c-17 0-30 12-30 36v12c0 14-8 23-26 34 10 7 22 12 38 14 6 16 9 28 18 40l0.5 0.5c7-11.5 12-24.5 18-41 16-2 28-7 38-14-18-11-26-20-26-34V74c0-24-13-36-30-36Z" fill="url(#hero_armor)"/>
  <path d="M100 22c-16.5 0-30 11.5-30 30v16c9 5 19 8 30 8s21-3 30-8V52c0-18.5-13.5-30-30-30Z" fill="#0f172a" opacity="0.12"/>
  <path d="M100 28c15.5 0 26 10.5 26 26 0 15.2-11.8 21.5-26 21.5S74 69.2 74 54c0-15.5 10.5-26 26-26Z" fill="#0b1b36"/>
  <path d="M86 57c5.5 3 9 4 14 4s8.5-1 14-4v-7c0-9.5-5.5-16-14-16s-14 6.5-14 16v7Z" fill="#e2e8f0"/>
  <path d="M76 118c7 3.5 14.5 5 24 5s17-1.5 24-5c-6.5-6-13-13.5-24-13.5S82.5 112 76 118Z" fill="#0f172a" opacity="0.15"/>
  <path d="M60 86c-2.5 11-8.5 18.5-20 27 10 7 22 12 38 14l-8-22c-4.5-5.5-7-10.5-10-19Z" fill="url(#hero_cape)" opacity="0.8"/>
  <path d="M140 86c2.5 11 8.5 18.5 20 27-10 7-22 12-38 14l8-22c4.5-5.5 7-10.5 10-19Z" fill="url(#hero_cape)"/>
  <path d="M100 128c-12 0-20 4.5-24 14 12 6 24 9 24 24 0-15 12-18 24-24-4-9.5-12-14-24-14Z" fill="#38bdf8"/>
  <path d="M98 134 76 98c-6 8-9 18-8 30l30 20 30-20c1-12-2-22-8-30l-22 36Z" fill="#1d4ed8" opacity="0.55"/>
  <path d="M100 58c-5 0-9 4-9 9s4 9 9 9 9-4 9-9-4-9-9-9Z" fill="#0f172a"/>
  <path d="M100 63c-2.5 0-4 1.5-4 4s1.5 4 4 4 4-1.5 4-4-1.5-4-4-4Z" fill="#38bdf8"/>
  <path d="M92 146h16l-8 28-8-28Z" fill="#0f172a" opacity="0.45"/>
</svg>
