<svg class="hero-svg" viewBox="0 0 120 160" xmlns="http://www.w3.org/2000/svg" aria-hidden="true">
                  <defs>
                    <linearGradient id="armorGradient" x1="0%" y1="0%" x2="0%" y2="100%">
                      <stop offset="0%" stop-color="#94a3b8"></stop>
                      <stop offset="100%" stop-color="#475569"></stop>
                    </linearGradient>
                    <linearGradient id="capeGradient" x1="0%" y1="0%" x2="100%" y2="100%">
                      <stop offset="0%" stop-color="#1d4ed8"></stop>
                      <stop offset="100%" stop-color="#0f172a"></stop>
                    </linearGradient>
                  </defs>
                <ellipse cx="60" cy="150" rx="32" ry="8" fill="rgba(8,15,30,0.85)"></ellipse>
                <circle class="armor-core head-shell" cx="60" cy="41" r="15" fill="url(#armorGradient)" stroke="#1e293b" stroke-width="2"></circle>
                <rect class="armor-core neck-piece" x="52" y="56" width="16" height="10" rx="4" fill="url(#armorGradient)" stroke="#1e293b" stroke-width="1.6"></rect>
                <rect class="armor-core" x="44" y="62" width="32" height="40" rx="12" fill="url(#armorGradient)" stroke="#1e293b" stroke-width="2"></rect>
                <rect x="51" y="36" width="7" height="7" rx="2" fill="#0f172a"></rect>
                <rect x="62" y="36" width="7" height="7" rx="2" fill="#0f172a"></rect>
                <path d="M49 44 h22" stroke="#0f172a" stroke-width="3" stroke-linecap="round"></path>
                <path d="M60 33 v-6" stroke="#e2e8f0" stroke-width="3" stroke-linecap="round"></path>
                <path class="cape-shape" d="M38 62 q-16 22 0 44" fill="url(#capeGradient)" opacity="0.8"></path>
                <path class="cape-shape" d="M82 62 q16 26 0 48" fill="url(#capeGradient)" opacity="0.5"></path>
                <g class="shield-group" transform="translate(18,72)">
                    <path class="shield-outline" d="M18 0 L36 8 v16 c0 12-18 24-18 24S0 36 0 24V8z" fill="rgba(15,23,42,0.9)" stroke="#38bdf8" stroke-width="2"></path>
                    <path d="M18 4 L32 10 v12 c0 8-14 16-14 16S8 30 8 22V10z" fill="rgba(59,130,246,0.35)"></path>
                  </g>
                  <g class="sword-group" transform="translate(72,64)">
                    <rect x="12" y="0" width="4" height="44" rx="2" fill="#e2e8f0" class="sword-blade" stroke="#94a3b8" stroke-width="1.5"></rect>
                    <rect x="8" y="38" width="12" height="4" rx="2" fill="#fcd34d"></rect>
                    <rect x="9.5" y="42" width="9" height="6" rx="2" fill="#b45309"></rect>
                    <circle cx="14" cy="44" r="2" fill="#1f2937"></circle>
                  </g>
                <g class="leg-group">
                  <rect class="leg-piece" x="48" y="96" width="11" height="32" rx="4" fill="url(#armorGradient)" stroke="#1e293b" stroke-width="1.5"></rect>
                  <rect class="leg-piece" x="61" y="96" width="11" height="32" rx="4" fill="url(#armorGradient)" stroke="#1e293b" stroke-width="1.5"></rect>
                  <rect class="leg-piece" x="46" y="124" width="13" height="8" rx="3" fill="#0f172a"></rect>
                  <rect class="leg-piece" x="61" y="124" width="13" height="8" rx="3" fill="#0f172a"></rect>
                </g>
                </svg>
