<svg class="hero-svg" viewBox="0 0 160 160" xmlns="http://www.w3.org/2000/svg" role="img" aria-labelledby="title desc">
  <title id="title">Hero Portrait</title>
  <desc id="desc">Front view of a shining armored knight wielding a sword and shield.</desc>
  <defs>
    <linearGradient id="hero-bg-2" x1="0%" y1="0%" x2="0%" y2="100%">
      <stop offset="0%" stop-color="#14233f"/>
      <stop offset="65%" stop-color="#0f172a"/>
      <stop offset="100%" stop-color="#0a1120"/>
    </linearGradient>
    <linearGradient id="hero-cape-2" x1="0%" y1="0%" x2="100%" y2="100%">
      <stop offset="0%" stop-color="#38bdf8"/>
      <stop offset="40%" stop-color="#1d4ed8"/>
      <stop offset="100%" stop-color="#1e3a8a"/>
    </linearGradient>
    <linearGradient id="hero-armor-2" x1="0%" y1="0%" x2="100%" y2="100%">
      <stop offset="0%" stop-color="#f8fafc"/>
      <stop offset="50%" stop-color="#cbd5f5"/>
      <stop offset="100%" stop-color="#94a3b8"/>
    </linearGradient>
    <linearGradient id="hero-plate-2" x1="0%" y1="0%" x2="0%" y2="100%">
      <stop offset="0%" stop-color="#9ca3af"/>
      <stop offset="50%" stop-color="#5b6474"/>
      <stop offset="100%" stop-color="#3a4454"/>
    </linearGradient>
    <linearGradient id="hero-shield-2" x1="0%" y1="0%" x2="100%" y2="100%">
      <stop offset="0%" stop-color="#38bdf8"/>
      <stop offset="45%" stop-color="#0ea5e9"/>
      <stop offset="100%" stop-color="#0369a1"/>
    </linearGradient>
    <linearGradient id="hero-sword-2" x1="0%" y1="0%" x2="0%" y2="100%">
      <stop offset="0%" stop-color="#f8fafc"/>
      <stop offset="50%" stop-color="#c7d2fe"/>
      <stop offset="100%" stop-color="#a5b4fc"/>
    </linearGradient>
    <radialGradient id="hero-glow-2" cx="50%" cy="30%" r="65%">
      <stop offset="0%" stop-color="rgba(96,165,250,0.55)"/>
      <stop offset="55%" stop-color="rgba(59,130,246,0.18)"/>
      <stop offset="100%" stop-color="rgba(59,130,246,0)"/>
    </radialGradient>
    <filter id="hero-shadow-2" x="-20%" y="-20%" width="140%" height="140%">
      <feDropShadow dx="0" dy="5" stdDeviation="7" flood-color="#060b18" flood-opacity="0.65"/>
    </filter>
  </defs>
  <rect width="160" height="160" fill="url(#hero-bg-2)" rx="28"/>
  <circle cx="80" cy="64" r="58" fill="url(#hero-glow-2)"/>
  <g filter="url(#hero-shadow-2)">
    <path d="M34 136 Q20 90 46 50 Q68 18 80 16 Q92 18 114 50 Q140 90 126 136" fill="url(#hero-cape-2)" opacity="0.9"/>
    <path d="M70 22 L90 22 L94 46 Q94 56 80 58 Q66 56 66 46 Z" fill="url(#hero-armor-2)" stroke="#0f172a" stroke-width="2"/>
    <path d="M54 60 Q80 40 106 60 L102 100 Q92 118 80 122 Q68 118 58 100 Z" fill="url(#hero-plate-2)" stroke="#0f172a" stroke-width="2"/>
    <path d="M42 86 Q64 90 72 112 L50 128 Q38 112 42 86 Z" fill="url(#hero-shield-2)" stroke="#083a59" stroke-width="2"/>
    <path d="M118 86 Q96 90 88 112 L110 128 Q122 112 118 86 Z" fill="url(#hero-sword-2)" stroke="#16213a" stroke-width="2"/>
    <path d="M60 120 Q74 134 80 136 Q86 134 100 120 L102 142 Q88 150 80 150 Q72 150 58 142 Z" fill="url(#hero-plate-2)" stroke="#0f172a" stroke-width="2"/>
    <path d="M66 46 Q80 36 94 46 L92 52 Q80 46 68 52 Z" fill="#0f172a" opacity="0.65"/>
    <path d="M66 64 Q80 70 94 64 L94 70 Q80 76 66 70 Z" fill="#e2e8f0" opacity="0.6"/>
    <circle cx="80" cy="66" r="8" fill="#f8fafc" stroke="#0f172a" stroke-width="1.4"/>
    <circle cx="80" cy="66" r="3" fill="#0f172a"/>
  </g>
</svg>
