<svg xmlns="http://www.w3.org/2000/svg" viewBox="0 0 32 32" shape-rendering="crispEdges">
  <rect width="32" height="32" fill="none"/>
  <rect x="6" y="27" width="20" height="2" fill="#0b1120" opacity="0.6"/>
  <rect x="13" y="2" width="6" height="2" fill="#9ca3af"/>
  <rect x="12" y="4" width="8" height="2" fill="#cbd5f5"/>
  <rect x="11" y="6" width="10" height="2" fill="#d1d5db"/>
  <rect x="10" y="8" width="12" height="4" fill="#64748b"/>
  <rect x="9" y="12" width="14" height="6" fill="#4b5563"/>
  <rect x="8" y="18" width="16" height="5" fill="#1f2937"/>
  <rect x="9" y="18" width="4" height="5" fill="#334155"/>
  <rect x="19" y="18" width="4" height="5" fill="#334155"/>
  <rect x="7" y="13" width="2" height="4" fill="#0f172a"/>
  <rect x="23" y="13" width="2" height="4" fill="#0f172a"/>
  <rect x="7" y="16" width="18" height="2" fill="#0f172a"/>
  <rect x="12" y="10" width="2" height="2" fill="#0f172a"/>
  <rect x="18" y="10" width="2" height="2" fill="#0f172a"/>
  <rect x="10" y="20" width="3" height="7" fill="#475569"/>
  <rect x="19" y="20" width="3" height="7" fill="#475569"/>
  <rect x="11" y="24" width="2" height="3" fill="#0f172a"/>
  <rect x="19" y="24" width="2" height="3" fill="#0f172a"/>
  <rect x="6" y="14" width="2" height="3" fill="#38bdf8"/>
  <rect x="24" y="14" width="2" height="3" fill="#38bdf8"/>
  <rect x="20" y="9" width="5" height="2" fill="#1d4ed8"/>
  <rect x="7" y="9" width="5" height="2" fill="#1d4ed8"/>
  <rect x="14" y="18" width="4" height="8" fill="#9ca3af"/>
  <rect x="15" y="14" width="2" height="6" fill="#94a3b8"/>
  <rect x="9" y="19" width="14" height="2" fill="#94a3b8"/>
  <rect x="4" y="11" width="4" height="9" fill="#1e3a8a"/>
  <rect x="24" y="11" width="4" height="9" fill="#1e3a8a"/>
  <rect x="5" y="12" width="3" height="7" fill="#1d4ed8"/>
  <rect x="24" y="12" width="3" height="7" fill="#1d4ed8"/>
  <rect x="13" y="4" width="6" height="2" fill="#e2e8f0" opacity="0.7"/>
</svg>
