<svg viewBox="0 0 120 170" xmlns="http://www.w3.org/2000/svg">
  <defs>
    <linearGradient id="steel" x1="0%" y1="0%" x2="100%" y2="0%">
      <stop offset="0%" stop-color="#dbe2ea"/>
      <stop offset="50%" stop-color="#9aa6b5"/>
      <stop offset="100%" stop-color="#e5edf5"/>
    </linearGradient>
    <linearGradient id="darkSteel" x1="0%" y1="0%" x2="0%" y2="100%">
      <stop offset="0%" stop-color="#4b5563"/>
      <stop offset="100%" stop-color="#1f2937"/>
    </linearGradient>
  </defs>
  <ellipse cx="60" cy="162" rx="30" ry="7" fill="rgba(0,0,0,0.15)"/>
  <path d="M46 122 L58 122 L56 156 Q51 158 46 156 Z" fill="url(#steel)" stroke="#1f2937" stroke-width="1" />
  <path d="M67 122 L79 122 L79 156 Q74 158 67 156 Z" fill="url(#steel)" stroke="#1f2937" stroke-width="1" />
  <path d="M42 156 H58 V163 Q50 165 43 163 Z" fill="#111827" stroke="#0f172a" stroke-width="1"/>
  <path d="M64 156 H80 V163 Q72 165 65 163 Z" fill="#111827" stroke="#0f172a" stroke-width="1"/>
  <g id="arm-left">
    <animateTransform attributeName="transform" type="rotate"
      values="0 40 75; 2 40 75; 0 40 75; -1 40 75; 0 40 75"
      dur="3.4s" repeatCount="indefinite" />
    <path d="M30 82 Q34 70 45 67 L49 82 L42 114 Q35 113 30 110 Z"
          fill="url(#steel)" stroke="#1f2937" stroke-width="1" />
    <path d="M30 109 L38 112 L37 120 Q34 123 31 120 Z"
          fill="url(#steel)" stroke="#1f2937" stroke-width="1" />
    <path d="M31.5 111.2 L31.2 119" stroke="rgba(17,24,39,0.55)" stroke-width="0.6" />
    <path d="M34 112 L33.8 120" stroke="rgba(17,24,39,0.55)" stroke-width="0.6" />
    <path d="M36.2 112.7 L36 120.2" stroke="rgba(17,24,39,0.55)" stroke-width="0.6" />
  </g>
  <g id="arm-right">
    <animateTransform attributeName="transform" type="rotate"
      values="0 80 75; -2 80 75; 0 80 75; 1 80 75; 0 80 75"
      dur="3.4s" repeatCount="indefinite" />
    <path d="M90 82 Q86 70 75 67 L71 82 L78 114 Q85 113 90 110 Z"
          fill="url(#steel)" stroke="#1f2937" stroke-width="1" />
    <path d="M82 112 L91 109 L92 120 Q89 123 85.5 120 Z"
          fill="url(#steel)" stroke="#1f2937" stroke-width="1" />
    <path d="M84 113 L84.4 120.2" stroke="rgba(17,24,39,0.55)" stroke-width="0.6" />
    <path d="M86.5 112.1 L87 120.1" stroke="rgba(17,24,39,0.55)" stroke-width="0.6" />
    <path d="M89 111.2 L89.5 119.2" stroke="rgba(17,24,39,0.55)" stroke-width="0.6" />
  </g>
  <g id="breath">
    <animateTransform attributeName="transform" type="translate"
      values="0 0; 0 -2.4; 0 0"
      dur="4.2s" repeatCount="indefinite" />
    <path d="M42 38 Q60 20 78 38 V60 Q60 66 42 60 Z"
          fill="url(#steel)" stroke="#1f2937" stroke-width="1.8" />
    <g>
      <animateTransform attributeName="transform" type="translate"
        values="0 0; 0 0; 2 0; 2 0; 0 0; 0 0"
        keyTimes="0;0.5;0.533;0.866;0.9;1"
        dur="30s" repeatCount="indefinite"
        calcMode="spline"
        keySplines="0.4 0 0.2 1;
                    0.4 0 0.2 1;
                    0 0 1 1;
                    0.4 0 0.2 1;
                    0 0 1 1" />
      <rect x="46" y="43" width="28" height="9" rx="3" fill="#111827" opacity="0.9" />
      <rect x="50" y="46" width="20" height="3" rx="1.5" fill="#d1d5db" opacity="0.7">
        <animate attributeName="x"
                 values="50;50;60;60;50;50"
                 keyTimes="0;0.5;0.533;0.866;0.9;1"
                 dur="30s" repeatCount="indefinite"
                 calcMode="spline"
                 keySplines="0.4 0 0.2 1;
                             0.4 0 0.2 1;
                             0 0 1 1;
                             0.4 0 0.2 1;
                             0 0 1 1" />
        <animate attributeName="width"
                 values="20;20;10;10;20;20"
                 keyTimes="0;0.5;0.533;0.866;0.9;1"
                 dur="30s" repeatCount="indefinite"
                 calcMode="spline"
                 keySplines="0.4 0 0.2 1;
                             0.4 0 0.2 1;
                             0 0 1 1;
                             0.4 0 0.2 1;
                             0 0 1 1" />
        <animate attributeName="height"
                 values="3;3;0.25;3;3;0.25;3;3;0.25;3"
                 keyTimes="0;0.332;0.338;0.345;0.655;0.661;0.668;0.988;0.994;1"
                 dur="30s" repeatCount="indefinite"
                 calcMode="spline"
                 keySplines="0.4 0 0.2 1;
                             0.4 0 0.2 1;
                             0.4 0 0.2 1;
                             0.4 0 0.2 1;
                             0.4 0 0.2 1;
                             0.4 0 0.2 1;
                             0.4 0 0.2 1;
                             0.4 0 0.2 1;
                             0 0 1 1" />
        <animate attributeName="y"
                 values="46;46;47.4;46;46;47.4;46;46;47.4;46"
                 keyTimes="0;0.332;0.338;0.345;0.655;0.661;0.668;0.988;0.994;1"
                 dur="30s" repeatCount="indefinite"
                 calcMode="spline"
                 keySplines="0.4 0 0.2 1;
                             0.4 0 0.2 1;
                             0.4 0 0.2 1;
                             0.4 0 0.2 1;
                             0.4 0 0.2 1;
                             0.4 0 0.2 1;
                             0.4 0 0.2 1;
                             0.4 0 0.2 1;
                             0 0 1 1" />
      </rect>
    </g>
    <path d="M44 60 Q60 65 76 60 L78 69 Q60 74 42 69 Z"
          fill="url(#darkSteel)" stroke="#111827" stroke-width="1.2" />
    <path d="M30 70 Q37 56 48 60 L46 83 Q36 82 30 75 Z"
          fill="url(#steel)" stroke="#1f2937" stroke-width="1.1" />
    <path d="M90 70 Q83 56 72 60 L74 83 Q84 82 90 75 Z"
          fill="url(#steel)" stroke="#1f2937" stroke-width="1.1" />
    <path d="M44 69 L76 69 L80 106 Q60 114 40 106 Z"
          fill="url(#steel)" stroke="#1f2937" stroke-width="1.3" />
    <path d="M60 70 V110" stroke="rgba(17,24,39,0.5)" stroke-width="2"/>
    <path d="M38 104 H82 L78 116 Q60 120 42 116 Z"
          fill="url(#steel)" stroke="#1f2937" stroke-width="1" />
    <path d="M40 108 H60 L57 137 L34 131 Z"
          fill="url(#steel)" stroke="#1f2937" stroke-width="1" />
    <path d="M80 108 H60 L63 137 L86 131 Z"
          fill="url(#steel)" stroke="#1f2937" stroke-width="1" />
  </g>
</svg>
