<svg viewBox="0 0 64 64" xmlns="http://www.w3.org/2000/svg" role="img" aria-hidden="true" shape-rendering="crispEdges">
  <rect width="64" height="64" fill="none"/>
  <g opacity="0.85">
    <rect x="18" y="56" width="28" height="4" fill="rgba(15,23,42,0.55)"/>
    <rect x="20" y="55" width="24" height="1" fill="rgba(148,163,184,0.2)"/>
  </g>
  <g class="cape-shape">
    <rect x="14" y="24" width="6" height="24" fill="#1d4ed8"/>
    <rect x="44" y="24" width="6" height="24" fill="#1e3a8a"/>
    <rect x="20" y="26" width="6" height="28" fill="#1e40af"/>
    <rect x="38" y="26" width="6" height="28" fill="#1d4ed8"/>
    <rect x="26" y="28" width="12" height="30" fill="#1d4ed8"/>
  </g>
  <g class="armor-core">
    <rect x="26" y="10" width="12" height="10" fill="#cbd5f5" stroke="#1f2937" stroke-width="1"/>
    <rect x="24" y="20" width="16" height="18" fill="#94a3b8" stroke="#1f2937" stroke-width="1"/>
    <rect x="22" y="38" width="20" height="8" fill="#94a3b8" stroke="#1f2937" stroke-width="1"/>
    <rect x="24" y="46" width="16" height="6" fill="#64748b" stroke="#1f2937" stroke-width="1"/>
  </g>
  <g class="leg-group">
    <rect class="leg-piece" x="24" y="46" width="6" height="10" fill="#94a3b8" stroke="#1f2937" stroke-width="1"/>
    <rect class="leg-piece" x="34" y="46" width="6" height="10" fill="#94a3b8" stroke="#1f2937" stroke-width="1"/>
    <rect class="leg-piece" x="22" y="56" width="8" height="4" fill="#111827"/>
    <rect class="leg-piece" x="34" y="56" width="8" height="4" fill="#111827"/>
  </g>
  <g>
    <rect x="28" y="14" width="4" height="2" fill="#0f172a"/>
    <rect x="34" y="14" width="4" height="2" fill="#0f172a"/>
    <rect x="30" y="18" width="6" height="2" fill="#0f172a"/>
    <rect x="30" y="8" width="4" height="2" fill="#e2e8f0"/>
  </g>
  <g class="shield-group" transform="translate(6,24)">
    <rect class="shield-outline" x="4" y="4" width="10" height="18" fill="#0f172a" stroke="#38bdf8" stroke-width="1.5"/>
    <rect x="6" y="6" width="6" height="14" fill="#1e3a8a"/>
    <rect x="6" y="12" width="6" height="2" fill="#38bdf8"/>
  </g>
  <g class="sword-group" transform="translate(42,18)">
    <rect class="sword-blade" x="6" y="0" width="2" height="20" fill="#e2e8f0" stroke="#94a3b8" stroke-width="1"/>
    <rect x="4" y="20" width="6" height="2" fill="#fcd34d"/>
    <rect x="5" y="22" width="4" height="4" fill="#b45309"/>
    <rect x="6" y="23" width="2" height="2" fill="#1f2937"/>
  </g>
  <g>
    <rect x="26" y="22" width="12" height="4" fill="#1f2937" opacity="0.45"/>
    <rect x="26" y="28" width="12" height="3" fill="#cbd5f5" opacity="0.6"/>
  </g>
</svg>
