<svg viewBox="0 0 160 160" xmlns="http://www.w3.org/2000/svg" role="img" aria-labelledby="title desc">
  <title id="title">Shortcut Knight Portrait</title>
  <desc id="desc">A heroic armored knight with shield and glowing sword ready for battle.</desc>
  <defs>
    <linearGradient id="hero-bg" x1="0%" y1="0%" x2="0%" y2="100%">
      <stop offset="0%" stop-color="#1f2945"/>
      <stop offset="70%" stop-color="#0f172a"/>
      <stop offset="100%" stop-color="#0b1220"/>
    </linearGradient>
    <linearGradient id="hero-armor" x1="0%" y1="0%" x2="100%" y2="100%">
      <stop offset="0%" stop-color="#e2e8f0"/>
      <stop offset="45%" stop-color="#94a3b8"/>
      <stop offset="100%" stop-color="#cbd5f5"/>
    </linearGradient>
    <linearGradient id="hero-plate" x1="0%" y1="0%" x2="0%" y2="100%">
      <stop offset="0%" stop-color="#9ba8c4"/>
      <stop offset="55%" stop-color="#5f6e8d"/>
      <stop offset="100%" stop-color="#3b4863"/>
    </linearGradient>
    <linearGradient id="hero-cape" x1="0%" y1="0%" x2="100%" y2="100%">
      <stop offset="0%" stop-color="#3b82f6"/>
      <stop offset="40%" stop-color="#2563eb"/>
      <stop offset="100%" stop-color="#1d4ed8"/>
    </linearGradient>
    <linearGradient id="hero-shield" x1="0%" y1="0%" x2="100%" y2="100%">
      <stop offset="0%" stop-color="#0ea5e9"/>
      <stop offset="45%" stop-color="#0284c7"/>
      <stop offset="100%" stop-color="#0369a1"/>
    </linearGradient>
    <linearGradient id="hero-sword" x1="0%" y1="0%" x2="0%" y2="100%">
      <stop offset="0%" stop-color="#f8fafc"/>
      <stop offset="45%" stop-color="#94a3b8"/>
      <stop offset="100%" stop-color="#dbeafe"/>
    </linearGradient>
    <radialGradient id="hero-glow" cx="50%" cy="30%" r="60%">
      <stop offset="0%" stop-color="rgba(96,165,250,0.6)"/>
      <stop offset="60%" stop-color="rgba(59,130,246,0.18)"/>
      <stop offset="100%" stop-color="rgba(59,130,246,0)"/>
    </radialGradient>
    <filter id="hero-shadow" x="-20%" y="-20%" width="140%" height="140%">
      <feDropShadow dx="0" dy="6" stdDeviation="8" flood-color="#0f172a" flood-opacity="0.65"/>
    </filter>
  </defs>
  <rect width="160" height="160" fill="url(#hero-bg)" rx="32"/>
  <circle cx="80" cy="60" r="56" fill="url(#hero-glow)" opacity="0.75"/>
  <g filter="url(#hero-shadow)">
    <path d="M34 136 Q20 90 44 54 Q64 24 80 20 Q96 24 116 54 Q140 90 126 136" fill="url(#hero-cape)" opacity="0.92"/>
    <path d="M72 20 L88 20 L92 44 Q92 56 80 58 Q68 56 68 44 Z" fill="url(#hero-armor)" stroke="#0f172a" stroke-width="2"/>
    <path d="M52 60 Q80 40 108 60 L104 100 Q94 118 80 122 Q66 118 56 100 Z" fill="url(#hero-plate)" stroke="#0f172a" stroke-width="2"/>
    <path d="M68 58 Q80 52 92 58 L90 78 Q86 92 80 94 Q74 92 70 78 Z" fill="url(#hero-armor)" stroke="#0f172a" stroke-width="1.6"/>
    <path d="M60 80 L74 88 Q76 118 74 130 L58 126 Q54 112 56 94 Z" fill="url(#hero-armor)" stroke="#0f172a" stroke-width="1.6"/>
    <path d="M100 80 L86 88 Q84 118 86 130 L102 126 Q106 112 104 94 Z" fill="url(#hero-armor)" stroke="#0f172a" stroke-width="1.6"/>
    <path d="M58 118 Q74 132 80 134 Q86 132 102 118 L104 140 Q88 150 80 150 Q72 150 56 140 Z" fill="url(#hero-plate)" stroke="#0f172a" stroke-width="2"/>
    <path d="M40 94 Q34 64 54 50 Q52 72 60 88 L56 118 Z" fill="url(#hero-armor)" stroke="#0f172a" stroke-width="1.4"/>
    <path d="M120 94 Q126 64 106 50 Q108 72 100 88 L104 118 Z" fill="url(#hero-armor)" stroke="#0f172a" stroke-width="1.4"/>
    <path d="M46 94 L34 92 L30 122 L48 130 Z" fill="#1f2937" stroke="#0b1120" stroke-width="1.4"/>
    <path d="M114 94 L126 92 L130 122 L112 130 Z" fill="#1f2937" stroke="#0b1120" stroke-width="1.4"/>
    <path d="M56 46 Q68 28 80 28 Q92 28 104 46 L104 58 Q94 50 80 50 Q66 50 56 58 Z" fill="url(#hero-armor)" stroke="#0f172a" stroke-width="2"/>
    <path d="M70 44 Q80 38 90 44 L88 52 Q80 48 72 52 Z" fill="#0f172a" opacity="0.65"/>
    <path d="M66 62 Q80 70 94 62 L94 68 Q80 74 66 68 Z" fill="#e2e8f0" opacity="0.6"/>
    <path d="M44 86 Q66 90 72 112 L48 126 Q36 112 44 86 Z" fill="url(#hero-shield)" stroke="#07263d" stroke-width="2"/>
    <path d="M46 96 Q60 100 66 112 Q58 120 48 118 Z" fill="#bae6fd" opacity="0.75"/>
    <path d="M86 34 L92 24 L100 26 L98 40 L120 20 L126 26 L104 54 Z" fill="url(#hero-sword)" stroke="#1e293b" stroke-width="1.6"/>
    <path d="M104 54 Q116 62 118 82 Q120 102 108 112 L94 102 Q102 90 100 74 Z" fill="url(#hero-sword)" stroke="#1e293b" stroke-width="1.6"/>
    <circle cx="80" cy="66" r="6" fill="#f8fafc" stroke="#0f172a" stroke-width="1.2"/>
    <circle cx="80" cy="66" r="2" fill="#0f172a"/>
  </g>
</svg>
