<svg viewBox="0 0 160 160" xmlns="http://www.w3.org/2000/svg" role="img" aria-labelledby="title desc">
  <title id="title">Knight Idle</title>
  <desc id="desc">Idle portrait of the Shortcut Knight with relaxed stance.</desc>
  <defs>
    <linearGradient id="ki-bg" x1="0%" y1="0%" x2="0%" y2="100%">
      <stop offset="0%" stop-color="#19253e"/>
      <stop offset="100%" stop-color="#0b1423"/>
    </linearGradient>
    <linearGradient id="ki-armor" x1="0%" y1="0%" x2="100%" y2="100%">
      <stop offset="0%" stop-color="#eef2ff"/>
      <stop offset="50%" stop-color="#c7d2fe"/>
      <stop offset="100%" stop-color="#94a3b8"/>
    </linearGradient>
    <linearGradient id="ki-cape" x1="0%" y1="0%" x2="100%" y2="100%">
      <stop offset="0%" stop-color="#38bdf8"/>
      <stop offset="100%" stop-color="#2563eb"/>
    </linearGradient>
    <filter id="ki-shadow" x="-20%" y="-20%" width="140%" height="140%">
      <feDropShadow dx="0" dy="6" stdDeviation="8" flood-color="#060b18" flood-opacity="0.75"/>
    </filter>
  </defs>
  <rect width="160" height="160" rx="28" fill="url(#ki-bg)"/>
  <g filter="url(#ki-shadow)">
    <path d="M34 134 Q20 90 46 52 Q64 24 80 22 Q96 24 114 52 Q140 90 126 134" fill="url(#ki-cape)"/>
    <path d="M50 58 Q68 42 80 42 Q92 42 110 58 L104 92 Q94 110 80 112 Q66 110 56 92 Z" fill="url(#ki-armor)" stroke="#1f2741" stroke-width="2"/>
    <path d="M60 92 Q72 130 54 140 Q38 128 44 100 Z" fill="url(#ki-armor)" stroke="#1f2741" stroke-width="1.6"/>
    <path d="M100 92 Q88 130 106 140 Q122 128 116 100 Z" fill="url(#ki-armor)" stroke="#1f2741" stroke-width="1.6"/>
    <path d="M60 114 Q74 130 80 132 Q86 130 100 114 L104 142 Q90 150 80 152 Q70 150 56 142 Z" fill="#475569" stroke="#1b2433" stroke-width="2"/>
    <path d="M56 48 L80 34 L104 48 L100 60 Q88 54 80 54 Q72 54 60 60 Z" fill="#e2e8f0" stroke="#1f2741" stroke-width="2"/>
    <circle cx="70" cy="74" r="6.8" fill="#1f2741"/>
    <circle cx="90" cy="74" r="6.8" fill="#1f2741"/>
    <path d="M68 100 Q80 108 92 100" fill="none" stroke="#1f2741" stroke-width="2.4" stroke-linecap="round"/>
  </g>
</svg>
