<svg viewBox="0 0 160 160" xmlns="http://www.w3.org/2000/svg" role="img" aria-labelledby="title desc">
  <title id="title">Shortcut Knight Bust</title>
  <desc id="desc">Bust illustration of the Shortcut Knight in polished armor.</desc>
  <defs>
    <linearGradient id="knight-bg" x1="0%" y1="0%" x2="0%" y2="100%">
      <stop offset="0%" stop-color="#152238"/>
      <stop offset="100%" stop-color="#0b1322"/>
    </linearGradient>
    <linearGradient id="knight-armor" x1="0%" y1="0%" x2="100%" y2="100%">
      <stop offset="0%" stop-color="#e2e8f0"/>
      <stop offset="45%" stop-color="#a5b4cb"/>
      <stop offset="100%" stop-color="#6b7a94"/>
    </linearGradient>
    <linearGradient id="knight-cape" x1="0%" y1="0%" x2="100%" y2="100%">
      <stop offset="0%" stop-color="#38bdf8"/>
      <stop offset="100%" stop-color="#1e3a8a"/>
    </linearGradient>
    <filter id="knight-shadow" x="-20%" y="-20%" width="140%" height="140%">
      <feDropShadow dx="0" dy="6" stdDeviation="8" flood-color="#070b16" flood-opacity="0.7"/>
    </filter>
  </defs>
  <rect width="160" height="160" rx="28" fill="url(#knight-bg)"/>
  <g filter="url(#knight-shadow)">
    <path d="M34 134 Q20 88 46 50 Q66 20 80 18 Q94 20 114 50 Q140 88 126 134" fill="url(#knight-cape)"/>
    <path d="M52 58 Q68 44 80 44 Q92 44 108 58 L104 96 Q94 114 80 116 Q66 114 56 96 Z" fill="url(#knight-armor)" stroke="#1f2a3d" stroke-width="2"/>
    <path d="M60 96 Q74 130 56 140 Q40 128 46 102 Z" fill="url(#knight-armor)" stroke="#1f2a3d" stroke-width="1.6"/>
    <path d="M100 96 Q86 130 104 140 Q120 128 114 102 Z" fill="url(#knight-armor)" stroke="#1f2a3d" stroke-width="1.6"/>
    <path d="M62 114 Q76 130 80 132 Q84 130 98 114 L104 142 Q90 150 80 152 Q70 150 56 142 Z" fill="#4b5a74" stroke="#1b2433" stroke-width="2"/>
    <path d="M56 48 L80 34 L104 48 L98 60 Q88 54 80 54 Q72 54 62 60 Z" fill="#e2e8f0" stroke="#1f2a3d" stroke-width="2"/>
    <circle cx="70" cy="76" r="7" fill="#1f2a3d"/>
    <circle cx="90" cy="76" r="7" fill="#1f2a3d"/>
    <path d="M68 102 Q80 110 92 102" fill="none" stroke="#1f2a3d" stroke-width="2.6" stroke-linecap="round"/>
  </g>
</svg>
