<svg xmlns="http://www.w3.org/2000/svg" viewBox="0 0 32 32" shape-rendering="crispEdges" role="img" aria-label="Shortcut Knight pixel art">
  <rect width="32" height="32" fill="none"/>
  <rect x="3" y="22" width="26" height="2" fill="#0b1120" opacity="0.5"/>
  <rect x="5" y="6" width="20" height="2" fill="#cbd5f5"/>
  <rect x="6" y="8" width="18" height="2" fill="#94a3b8"/>
  <rect x="7" y="10" width="16" height="2" fill="#64748b"/>
  <rect x="10" y="5" width="10" height="2" fill="#e2e8f0"/>
  <rect x="11" y="7" width="8" height="1" fill="#cbd5f5"/>
  <rect x="12" y="4" width="6" height="1" fill="#f8fafc"/>
  <rect x="6" y="12" width="4" height="10" fill="#1d4ed8"/>
  <rect x="6" y="17" width="5" height="7" fill="#1e3a8a"/>
  <rect x="21" y="12" width="4" height="10" fill="#2563eb"/>
  <rect x="20" y="17" width="5" height="7" fill="#1d4ed8"/>
  <rect x="10" y="12" width="12" height="10" fill="#94a3b8"/>
  <rect x="11" y="13" width="10" height="6" fill="#cbd5f5"/>
  <rect x="12" y="14" width="8" height="4" fill="#94a3b8"/>
  <rect x="13" y="21" width="6" height="6" fill="#64748b"/>
  <rect x="11" y="24" width="4" height="5" fill="#1f2937"/>
  <rect x="17" y="24" width="4" height="5" fill="#1f2937"/>
  <rect x="9" y="24" width="2" height="2" fill="#0f172a"/>
  <rect x="21" y="24" width="2" height="2" fill="#0f172a"/>
  <rect x="9" y="16" width="2" height="2" fill="#0f172a"/>
  <rect x="21" y="16" width="2" height="2" fill="#0f172a"/>
  <rect x="7" y="19" width="4" height="2" fill="#38bdf8"/>
  <rect x="21" y="19" width="4" height="2" fill="#38bdf8"/>
  <rect x="22" y="6" width="2" height="16" fill="#e2e8f0"/>
  <rect x="24" y="6" width="1" height="16" fill="#94a3b8"/>
  <rect x="22" y="22" width="4" height="2" fill="#facc15"/>
  <rect x="23" y="24" width="2" height="2" fill="#b45309"/>
  <rect x="8" y="14" width="2" height="6" fill="#1f2937"/>
  <rect x="22" y="14" width="2" height="6" fill="#1f2937"/>
  <rect x="13" y="9" width="6" height="2" fill="#e2e8f0"/>
  <rect x="14" y="8" width="4" height="1" fill="#f8fafc"/>
  <rect x="12" y="11" width="8" height="1" fill="#1f2937" opacity="0.4"/>
</svg>
