<svg xmlns="http://www.w3.org/2000/svg" viewBox="0 0 32 32" shape-rendering="crispEdges">
  <rect width="32" height="32" fill="none"/>
  <!-- shadow -->
  <rect x="8" y="26" width="16" height="2" fill="#0f172a" opacity="0.6"/>
  <rect x="9" y="27" width="14" height="1" fill="#1e293b" opacity="0.6"/>
  <!-- boots -->
  <rect x="11" y="24" width="4" height="2" fill="#1f2937"/>
  <rect x="17" y="24" width="4" height="2" fill="#1f2937"/>
  <rect x="11" y="23" width="4" height="1" fill="#334155"/>
  <rect x="17" y="23" width="4" height="1" fill="#334155"/>
  <!-- legs -->
  <rect x="12" y="16" width="8" height="7" fill="#475569"/>
  <rect x="12" y="16" width="8" height="1" fill="#cbd5f5"/>
  <rect x="12" y="21" width="3" height="2" fill="#64748b"/>
  <rect x="17" y="21" width="3" height="2" fill="#64748b"/>
  <!-- belt -->
  <rect x="11" y="15" width="10" height="1" fill="#b45309"/>
  <rect x="15" y="15" width="2" height="1" fill="#fbbf24"/>
  <!-- torso armor -->
  <rect x="9" y="8" width="14" height="8" fill="#94a3b8"/>
  <rect x="10" y="9" width="12" height="6" fill="#dbeafe"/>
  <rect x="9" y="12" width="14" height="1" fill="#475569"/>
  <rect x="11" y="9" width="2" height="6" fill="#94a3b8"/>
  <rect x="19" y="9" width="2" height="6" fill="#94a3b8"/>
  <rect x="13" y="9" width="6" height="1" fill="#e2e8f0"/>
  <!-- pauldrons -->
  <rect x="7" y="10" width="4" height="4" fill="#94a3b8"/>
  <rect x="21" y="10" width="4" height="4" fill="#94a3b8"/>
  <rect x="7" y="12" width="4" height="1" fill="#1e293b"/>
  <rect x="21" y="12" width="4" height="1" fill="#1e293b"/>
  <!-- arms -->
  <rect x="7" y="14" width="4" height="3" fill="#475569"/>
  <rect x="21" y="14" width="4" height="3" fill="#475569"/>
  <rect x="6" y="16" width="2" height="3" fill="#1f2937"/>
  <rect x="24" y="16" width="2" height="3" fill="#1f2937"/>
  <!-- hands -->
  <rect x="6" y="19" width="2" height="2" fill="#e2e8f0"/>
  <rect x="24" y="19" width="2" height="2" fill="#e2e8f0"/>
  <!-- cape -->
  <rect x="6" y="12" width="4" height="10" fill="#1e3a8a"/>
  <rect x="22" y="12" width="4" height="10" fill="#1e3a8a"/>
  <rect x="8" y="12" width="16" height="12" fill="#1d4ed8"/>
  <rect x="9" y="13" width="14" height="10" fill="#2563eb"/>
  <rect x="10" y="14" width="12" height="8" fill="#3b82f6"/>
  <rect x="11" y="15" width="10" height="6" fill="#60a5fa" opacity="0.85"/>
  <!-- sword -->
  <rect x="4" y="11" width="2" height="10" fill="#0f172a"/>
  <rect x="3" y="10" width="4" height="1" fill="#fbbf24"/>
  <rect x="4" y="7" width="2" height="3" fill="#1f2937"/>
  <rect x="4" y="4" width="2" height="3" fill="#f8fafc"/>
  <rect x="4" y="3" width="2" height="1" fill="#cbd5f5"/>
  <!-- shield -->
  <rect x="24" y="9" width="6" height="12" fill="#0f172a"/>
  <rect x="25" y="10" width="4" height="10" fill="#1e293b"/>
  <rect x="25" y="11" width="4" height="1" fill="#38bdf8"/>
  <rect x="26" y="12" width="2" height="6" fill="#38bdf8"/>
  <rect x="25" y="18" width="4" height="1" fill="#38bdf8"/>
  <!-- helmet -->
  <rect x="10" y="4" width="12" height="5" fill="#cbd5f5"/>
  <rect x="11" y="4" width="10" height="1" fill="#e2e8f0"/>
  <rect x="12" y="3" width="8" height="1" fill="#94a3b8"/>
  <rect x="14" y="2" width="4" height="1" fill="#64748b"/>
  <rect x="12" y="6" width="8" height="1" fill="#1f2937"/>
  <rect x="13" y="6" width="2" height="2" fill="#1e293b"/>
  <rect x="17" y="6" width="2" height="2" fill="#1e293b"/>
  <rect x="13" y="8" width="6" height="1" fill="#475569"/>
  <rect x="12" y="9" width="8" height="1" fill="#cbd5f5"/>
  <!-- crest -->
  <rect x="15" y="1" width="2" height="1" fill="#f97316"/>
  <rect x="15" y="0" width="2" height="1" fill="#ef4444"/>
</svg>
